<?xml version="1.0" standalone="no"?>
<!DOCTYPE svg PUBLIC "-//W3C//DTD SVG 20010904//EN"
 "http://www.w3.org/TR/2001/REC-SVG-20010904/DTD/svg10.dtd">
<svg version="1.0" xmlns="http://www.w3.org/2000/svg"
 width="400.000000pt" height="400.000000pt" viewBox="0 0 400.000000 400.000000"
 preserveAspectRatio="xMidYMid meet">

<g transform="translate(0.000000,400.000000) scale(0.100000,-0.100000)"
fill="#000000" stroke="none">
<path d="M1560 3277 c-76 -24 -179 -158 -195 -254 l-7 -43 -41 24 c-23 13 -56
26 -72 29 -17 3 -64 21 -105 40 -86 40 -100 44 -155 51 -153 19 -163 19 -210
-4 -25 -12 -61 -36 -79 -54 -30 -28 -35 -40 -46 -119 l-13 -87 28 -30 c33 -35
63 -38 145 -14 30 9 86 15 123 14 65 -1 137 -22 137 -38 0 -5 11 -14 24 -22
29 -15 120 -125 158 -189 50 -87 57 -106 65 -196 l8 -90 38 -6 c21 -3 61 -2
90 3 42 8 57 7 79 -7 27 -15 30 -15 69 7 l41 23 39 -23 c41 -24 87 -23 117 1
17 14 24 6 66 -80 51 -102 65 -205 42 -305 -23 -97 -41 -143 -80 -203 -18 -27
-48 -76 -67 -108 -38 -66 -171 -193 -234 -224 -22 -11 -68 -26 -102 -33 -43
-9 -69 -21 -88 -39 -24 -26 -24 -28 -8 -43 22 -19 82 -36 188 -53 44 -7 97
-21 117 -29 21 -9 46 -16 57 -16 10 0 61 -20 113 -45 51 -25 110 -48 132 -50
21 -3 51 -14 67 -26 16 -11 73 -41 127 -66 53 -25 116 -59 139 -75 35 -25 48
-29 77 -24 28 5 41 16 61 50 31 53 31 70 3 88 -27 17 -136 53 -193 63 -72 12
-172 86 -217 160 -12 20 -18 49 -18 89 0 49 5 65 26 94 17 22 32 60 40 104 7
39 32 107 54 152 32 65 44 103 55 182 24 165 20 211 -25 347 -23 65 -39 121
-37 123 7 8 187 -177 214 -219 14 -23 34 -48 44 -55 10 -7 27 -32 37 -56 37
-82 118 -192 208 -281 97 -96 224 -248 224 -268 0 -7 26 -43 57 -82 l57 -70 6
-122 c5 -117 6 -123 33 -151 33 -34 208 -115 230 -106 9 3 23 21 31 39 14 29
15 57 8 202 -8 161 -10 173 -51 293 -52 150 -76 211 -146 355 -30 61 -65 144
-79 185 -14 41 -37 97 -51 124 -14 27 -25 57 -25 65 0 9 -6 26 -14 37 -8 11
-23 41 -32 65 -38 99 -149 243 -224 293 -14 9 -64 53 -111 99 -47 45 -99 91
-116 102 -65 42 -117 82 -185 143 -38 34 -74 62 -79 62 -15 0 -108 78 -158
132 -48 52 -166 137 -226 162 -42 18 -133 19 -185 3z"/>
</g>
</svg>
