<?xml version="1.0" encoding="UTF-8" standalone="no"?>
<svg
   version="1.1"
   width="584.00031"
   height="427.7305"
   id="svg77"
   viewBox="0 0 584.0003 427.7305"
   sodipodi:docname="ed95ca74f151256263b5063b373675f3.cdr"
   xmlns:inkscape="http://www.inkscape.org/namespaces/inkscape"
   xmlns:sodipodi="http://sodipodi.sourceforge.net/DTD/sodipodi-0.dtd"
   xmlns="http://www.w3.org/2000/svg"
   xmlns:svg="http://www.w3.org/2000/svg">
  <defs
     id="defs81" />
  <sodipodi:namedview
     id="namedview79"
     pagecolor="#ffffff"
     bordercolor="#666666"
     borderopacity="1.0"
     inkscape:pageshadow="2"
     inkscape:pageopacity="0.0"
     inkscape:pagecheckerboard="0" />
  <path
     d="M 311.6909,10.53125 H 122.1242 v 406.6685 h 333.7603 v -262.5208 z"
     style="fill:#ffffff;fill-rule:evenodd"
     id="path2" />
  <path
     d="M 311.6909,10.53125 H 122.1242 v 406.668 h 333.7603 v -262.5203 z"
     style="fill:none;stroke:#000000;stroke-width:21.0625;stroke-linecap:butt;stroke-linejoin:round;stroke-dasharray:none"
     id="path4" />
  <path
     d="m 455.8845,99.68835 v -89.1571 h -89.11 z"
     style="fill:#000000;fill-rule:evenodd"
     id="path6" />
  <path
     d="m 455.8845,99.68835 v -89.1571 h -89.11 z"
     style="fill:none;stroke:#000000;stroke-width:21.0625;stroke-linecap:butt;stroke-linejoin:round;stroke-dasharray:none"
     id="path8" />
  <path
     d="M 0,371.28245 H 584.0003 V 207.78215 H 0 Z"
     style="fill:#ffffff;fill-rule:evenodd"
     id="path10" />
  <g
     id="Layer1000"
     transform="translate(-132.2478,-87.23505)">
    <path
       d="m 150.9585,308.9596 v 80.4188 h 52.0719 v -12.217 h -36.177 v -68.2018 z"
       style="fill:#18a303;fill-rule:evenodd"
       id="path12" />
    <path
       d="m 212.5024,389.3784 h 15.8948 V 331.495 h -15.8948 z m 7.9461,-62.8648 c 4.9835,0 9.1333,-4.0335 9.1333,-9.1334 0,-4.9807 -4.1498,-9.1333 -9.1333,-9.1333 -5.0998,0 -9.1333,4.1526 -9.1333,9.1333 0,5.0999 4.0335,9.1334 9.1333,9.1334 z"
       style="fill:#18a303;fill-rule:evenodd"
       id="path14" />
    <path
       d="m 256.0751,338.2566 h -0.2379 v -34.2777 h -15.8923 v 85.3995 h 15.5392 l 0.3531,-6.7588 h 0.2379 c 4.9834,5.5744 9.9641,7.9461 18.1476,7.9461 15.4202,0 25.6217,-13.8794 25.6217,-31.1962 0,-16.7232 -9.1333,-29.0596 -24.909,-29.0596 -8.4215,0 -13.4023,2.4907 -18.8603,7.9467 z m -0.2379,20.8755 c 0,-9.9621 4.5087,-16.6047 13.0485,-16.6047 9.4895,0 14.233,6.7615 14.233,17.7919 0,10.9116 -4.6251,18.0287 -13.9958,18.0287 -8.1833,0 -13.2857,-6.4052 -13.2857,-16.6067 z"
       style="fill:#18a303;fill-rule:evenodd"
       id="path16" />
    <path
       d="m 342.3258,330.3099 c -7.5899,0.4752 -14.8261,5.0996 -18.1477,11.5049 h -0.2374 l -0.3561,-10.3198 h -15.5367 v 57.8834 h 15.8928 v -21.8228 c 0,-11.6261 2.1365,-15.7759 5.8118,-18.3856 3.2026,-2.2554 6.9989,-3.2026 12.217,-3.44 z"
       style="fill:#18a303;fill-rule:evenodd"
       id="path18" />
    <path
       d="m 400.753,356.9977 c 0,-14.3514 -8.7778,-26.6878 -23.96,-26.6878 -18.2666,0 -30.0089,12.5738 -30.0089,31.6687 0,18.6228 12.0986,28.5871 30.0089,28.5871 8.4207,0 14.3514,-1.3065 19.9258,-3.7963 l -1.6592,-11.8614 c -5.2208,2.1344 -10.5578,3.44 -16.2511,3.44 -9.6079,0 -15.776,-4.3898 -16.3694,-13.4041 h 37.6012 c 0.4746,-2.1344 0.7127,-5.456 0.7127,-7.9462 z m -25.6217,-14.4703 c 6.8798,0 10.0824,5.5744 10.3203,11.5051 h -22.4191 c 1.1872,-6.6426 5.8118,-11.5051 12.0988,-11.5051 z"
       style="fill:#18a303;fill-rule:evenodd"
       id="path20" />
    <path
       d="m 448.9249,307.7724 c -21.3482,0 -38.9048,15.5385 -38.9048,41.3976 0,25.857 17.5566,41.3957 38.9048,41.3957 21.3503,0 38.9069,-15.5387 38.9069,-41.3957 0,-25.8591 -17.5566,-41.3976 -38.9069,-41.3976 z m 0,8.0677 c 15.8949,0 27.9935,11.8606 27.9935,33.3299 0,21.4672 -12.0986,33.3306 -27.9935,33.3306 -15.8928,0 -27.9908,-11.8634 -27.9908,-33.3306 0,-21.4693 12.098,-33.3299 27.9908,-33.3299 z"
       style="fill:#000000;fill-rule:evenodd"
       id="path22" />
    <path
       d="m 502.9843,328.2944 v 3.6753 h -9.3706 v 7.5924 h 9.3706 v 49.8163 h 9.9642 v -49.8163 h 14.7077 v -7.5924 h -14.7077 v -5.2182 c 0,-10.3203 4.3898,-16.37 12.3359,-16.37 3.6779,0 6.0497,0.5935 8.3025,1.4244 l 0.9498,-7.3551 c -2.1344,-0.8283 -6.1679,-1.6591 -9.3707,-1.6591 -14.114,0 -22.1817,9.1331 -22.1817,25.5027 z"
       style="fill:#000000;fill-rule:evenodd"
       id="path24" />
    <path
       d="m 536.0395,328.2944 v 3.6753 h -9.3707 v 7.5924 h 9.3707 v 49.8163 h 9.9614 v -49.8163 h 14.7077 v -7.5924 h -14.7077 v -5.2182 c 0,-10.3203 4.39,-16.37 12.3367,-16.37 3.6771,0 6.0489,0.5935 8.3017,1.4244 l 0.9498,-7.3551 c -2.1344,-0.8283 -6.1679,-1.6591 -9.3705,-1.6591 -14.114,0 -22.1791,9.1331 -22.1791,25.5027 z"
       style="fill:#000000;fill-rule:evenodd"
       id="path26" />
    <path
       d="m 572.2117,389.3784 h 9.9643 v -57.4087 h -9.9643 z m 4.9809,-65.8301 c 3.4399,0 6.1678,-2.7273 6.1678,-6.1681 0,-3.4397 -2.7279,-6.1678 -6.1678,-6.1678 -3.4406,0 -6.1681,2.7281 -6.1681,6.1678 0,3.4408 2.7275,6.1681 6.1681,6.1681 z"
       style="fill:#000000;fill-rule:evenodd"
       id="path28" />
    <path
       d="m 602.8848,360.4377 c 0,-14.4703 8.6612,-22.0627 19.9271,-22.0627 5.9292,0 11.1474,1.4243 15.4214,3.4398 l 0.9441,-7.5899 c -3.5564,-1.7806 -9.2464,-3.4398 -15.5314,-3.4398 -17.7959,0 -31.1981,10.7925 -31.1981,30.9562 0,18.9783 12.0986,28.8244 28.1137,28.8244 7.1127,0 12.2144,-0.831 18.0275,-3.3217 l -0.9506,-7.5924 c -4.9789,2.2553 -10.3199,3.3215 -15.2988,3.3215 -11.5062,0 -19.4549,-7.2342 -19.4549,-22.5354 z"
       style="fill:#000000;fill-rule:evenodd"
       id="path30" />
    <path
       d="m 695.2704,362.9284 c 0.0737,-0.675 0.1362,-1.3147 0.1875,-1.9302 v -7.4438 c -1.195,-12.938 -8.7999,-22.7693 -22.3661,-22.7693 -16.0164,0 -27.7588,13.2832 -27.7588,30.9562 0,19.4537 11.7424,28.8244 27.7588,28.8244 7.1126,0 12.4536,-1.0684 18.0273,-3.3217 l -0.9506,-7.5924 c -4.3903,2.1369 -10.6753,3.3215 -15.6542,3.3215 -11.5096,0 -18.9843,-6.9969 -19.2171,-20.0447 z M 672.2577,338.375 c 8.7744,0 13.5205,7.2368 13.5205,16.7257 h -30.0089 c 1.4225,-10.0826 6.9962,-16.7257 16.4884,-16.7257 z"
       style="fill:#000000;fill-rule:evenodd"
       id="path32" />
    <path
       d="M 174.5875,409.532 H 150.817 v 3.3971 h 9.8077 v 30.4585 h 4.0593 v -30.4585 h 9.9035 z"
       style="fill:#000000;fill-rule:evenodd"
       id="path34" />
    <path
       d="m 182.4198,423.214 v -15.7785 h -4.0587 v 35.9521 h 4.0587 V 430.104 c 0,-4.993 2.9453,-7.9885 6.57,-7.9885 3.7685,0 4.6855,2.1971 4.6855,6.8424 v 14.4297 h 4.0587 v -15.7283 c 0,-5.8924 -2.6091,-8.9385 -7.5847,-8.9385 -3.4781,0 -5.9915,1.9979 -7.6333,4.4932 z"
       style="fill:#000000;fill-rule:evenodd"
       id="path36" />
    <path
       d="m 223.525,432.254 c 0.0983,-0.8992 0.1461,-1.6494 0.1461,-2.3967 0,-6.1941 -3.1392,-11.1365 -9.1811,-11.1365 -6.5216,0 -11.3051,5.5918 -11.3051,13.0328 0,8.1887 4.7835,12.1343 11.3051,12.1343 2.8994,0 5.0745,-0.4494 7.3448,-1.3994 l -0.3861,-3.1953 c -1.7883,0.8994 -4.3496,1.3991 -6.3773,1.3991 -4.686,0 -7.7295,-2.9471 -7.8278,-8.4383 z m -9.3704,-10.3384 c 3.5737,0 5.5058,3.0462 5.5058,7.0423 h -12.2221 c 0.5779,-4.2457 2.8488,-7.0423 6.7163,-7.0423 z"
       style="fill:#000000;fill-rule:evenodd"
       id="path38" />
    <path
       d="m 240.3569,409.9812 v 33.108 c 2.369,0.3493 5.8471,0.5484 8.4562,0.5484 9.9041,0 19.2288,-5.9403 19.2288,-18.2258 0,-10.7853 -7.1502,-16.1302 -19.1324,-16.1302 -2.6577,0 -5.749,0.1998 -8.5526,0.6996 z m 4.0588,2.9957 c 1.498,-0.2504 3.1397,-0.298 4.9277,-0.298 9.2295,0 14.2531,5.0919 14.2531,13.2326 0,9.6358 -6.4732,14.3314 -14.3009,14.3314 -1.4977,0 -3.1873,-0.0503 -4.8799,-0.1991 z"
       style="fill:#000000;fill-rule:evenodd"
       id="path40" />
    <path
       d="m 283.1389,418.7208 c -7.0519,0 -11.2549,5.4934 -11.2549,12.5836 0,7.0898 4.203,12.5835 11.2549,12.5835 7.0544,0 11.2572,-5.4937 11.2572,-12.5835 0,-7.0902 -4.2028,-12.5836 -11.2572,-12.5836 z m 0,21.9715 c -4.8801,0 -7.0041,-4.344 -7.0041,-9.3879 0,-5.0443 2.124,-9.3888 7.0041,-9.3888 4.8799,0 7.0066,4.3445 7.0066,9.3888 0,5.0439 -2.1267,9.3879 -7.0066,9.3879 z"
       style="fill:#000000;fill-rule:evenodd"
       id="path42" />
    <path
       d="m 302.6508,431.2032 c 0,-6.0922 3.5259,-9.2876 8.118,-9.2876 2.4145,0 4.5412,0.5986 6.2786,1.4476 l 0.3866,-3.1953 c -1.4497,-0.7475 -3.7685,-1.4471 -6.3296,-1.4471 -7.2465,0 -12.7045,4.5436 -12.7045,13.0328 0,7.9894 4.9277,12.1343 11.4496,12.1343 2.8992,0 4.9755,-0.3486 7.3447,-1.3994 l -0.3867,-3.1953 c -2.0303,0.9497 -4.2056,1.3991 -6.2333,1.3991 -4.6853,0 -7.9234,-3.0463 -7.9234,-9.4891 z"
       style="fill:#000000;fill-rule:evenodd"
       id="path44" />
    <path
       d="m 337.6229,439.3948 0.1436,3.9928 h 3.9152 v -24.1669 h -4.0588 v 13.2804 c 0,4.9937 -2.9478,7.9921 -6.572,7.9921 -3.7684,0 -4.6852,-2.1978 -4.6852,-6.8423 v -14.4302 h -4.0595 v 15.7286 c 0,5.8924 2.6091,8.9386 7.5854,8.9386 3.4807,0 5.9906,-1.998 7.6351,-4.4931 z"
       style="fill:#000000;fill-rule:evenodd"
       id="path46" />
    <path
       d="m 377.5709,428.4579 v 14.9297 h 4.0587 v -16.2281 c 0,-5.3926 -2.417,-8.4387 -7.0544,-8.4387 -3.334,0 -5.9908,2.1971 -7.5369,5.4432 h -0.1468 c -0.9168,-3.3973 -2.8488,-5.4432 -6.5694,-5.4432 -3.3339,0 -5.4606,1.8457 -7.1023,4.4932 h -0.0964 l -0.1461,-3.9933 h -3.9127 v 24.1669 h 4.0588 v -12.283 c 0,-5.4432 2.3188,-8.9891 5.9435,-8.9891 3.0437,0 4.2508,2.1971 4.2508,6.3424 v 14.9297 h 4.0588 v -12.283 c 0,-5.5441 2.3186,-8.9891 5.941,-8.9891 3.0461,0 4.2534,2.1971 4.2534,6.3424 z"
       style="fill:#000000;fill-rule:evenodd"
       id="path48" />
    <path
       d="m 407.3477,432.254 c 0.0957,-0.8992 0.1435,-1.6494 0.1435,-2.3967 0,-6.1941 -3.1393,-11.1365 -9.1785,-11.1365 -6.5242,0 -11.3053,5.5918 -11.3053,13.0328 0,8.1887 4.7811,12.1343 11.3053,12.1343 2.8974,0 5.0719,-0.4494 7.3427,-1.3994 l -0.3865,-3.1953 c -1.786,0.8994 -4.3473,1.3991 -6.3776,1.3991 -4.6852,0 -7.7288,-2.9471 -7.8252,-8.4383 z m -9.3732,-10.3384 c 3.5738,0 5.5084,3.0462 5.5084,7.0423 h -12.2247 c 0.5807,-4.2457 2.8514,-7.0423 6.7163,-7.0423 z"
       style="fill:#000000;fill-rule:evenodd"
       id="path50" />
    <path
       d="m 417.2917,423.214 -0.1468,-3.9933 h -3.9125 v 24.1669 h 4.0593 V 430.104 c 0,-4.993 2.9448,-7.9885 6.5695,-7.9885 3.7684,0 4.688,2.1971 4.688,6.8424 v 14.4297 h 4.0562 v -15.7283 c 0,-5.8924 -2.6091,-8.9385 -7.5847,-8.9385 -3.4781,0 -5.9916,1.9979 -7.6333,4.4932 z"
       style="fill:#000000;fill-rule:evenodd"
       id="path52" />
    <path
       d="m 450.7155,419.2207 h -5.6048 v -5.3444 h -4.0588 v 5.3444 h -3.718 v 3.1954 h 3.718 v 15.031 c 0,4.3924 2.3214,6.4408 6.0898,6.4408 1.9799,0 3.2835,-0.1999 4.2985,-0.6492 l -0.4344,-3.0461 c -0.8206,0.3483 -1.6923,0.4997 -2.6091,0.4997 -2.3666,0 -3.286,-1.3991 -3.286,-4.2934 v -13.9828 h 5.6048 z"
       style="fill:#000000;fill-rule:evenodd"
       id="path54" />
    <path
       d="m 471.644,443.3876 v -15.2789 h 11.7405 v -3.3965 H 471.644 v -11.7831 h 13.3847 v -3.3971 h -17.4434 v 33.8556 z"
       style="fill:#000000;fill-rule:evenodd"
       id="path56" />
    <path
       d="m 499.706,418.7208 c -7.0544,0 -11.2573,5.4934 -11.2573,12.5836 0,7.0898 4.2029,12.5835 11.2573,12.5835 7.0519,0 11.2575,-5.4937 11.2575,-12.5835 0,-7.0902 -4.2056,-12.5836 -11.2575,-12.5836 z m 0,21.9715 c -4.8799,0 -7.0066,-4.344 -7.0066,-9.3879 0,-5.0443 2.1267,-9.3888 7.0066,-9.3888 4.8799,0 7.0041,4.3445 7.0041,9.3888 0,5.0439 -2.1242,9.3879 -7.0041,9.3879 z"
       style="fill:#000000;fill-rule:evenodd"
       id="path58" />
    <path
       d="m 531.7278,439.3948 0.1468,3.9928 h 3.9127 v -24.1669 h -4.0595 v 13.2804 c 0,4.9937 -2.9453,7.9921 -6.5695,7.9921 -3.7684,0 -4.6852,-2.1978 -4.6852,-6.8423 v -14.4302 h -4.0588 v 15.7286 c 0,5.8924 2.6092,8.9386 7.5847,8.9386 3.4781,0 5.9914,-1.998 7.6331,-4.4931 z"
       style="fill:#000000;fill-rule:evenodd"
       id="path60" />
    <path
       d="m 547.229,423.214 -0.1443,-3.9933 h -3.9127 v 24.1669 h 4.057 V 430.104 c 0,-4.993 2.9471,-7.9885 6.572,-7.9885 3.7684,0 4.6852,2.1971 4.6852,6.8424 v 14.4297 h 4.0588 v -15.7283 c 0,-5.8924 -2.609,-8.9385 -7.5847,-8.9385 -3.4781,0 -5.9914,1.9979 -7.6331,4.4932 z"
       style="fill:#000000;fill-rule:evenodd"
       id="path62" />
    <path
       d="m 586.0652,422.9636 c -1.7374,-2.9445 -4.2506,-4.2428 -7.5368,-4.2428 -6.2791,0 -10.5326,5.3926 -10.5326,13.0328 0,7.2898 3.8163,12.1343 10.2423,12.1343 3.3818,0 5.9908,-1.5992 7.8271,-4.2437 h 0.0965 l 0.146,3.7434 h 3.9127 v -35.9521 h -4.0587 v 15.5281 z m 0.0965,9.7879 c 0,4.1949 -2.5109,7.9408 -6.6659,7.9408 -4.6878,0 -7.2465,-3.7961 -7.2465,-9.3375 0,-5.6934 2.4628,-9.4392 7.1508,-9.4392 3.718,0 6.7616,3.2964 6.7616,7.9417 z"
       style="fill:#000000;fill-rule:evenodd"
       id="path64" />
    <path
       d="m 605.7388,418.7208 c -2.369,0 -4.7356,0.3989 -7.2465,1.3965 l 0.3867,3.1973 c 2.3667,-0.9491 4.2987,-1.399 6.2791,-1.399 3.5764,0 5.0741,2.1472 5.0741,5.5446 v 0.6969 c -1.111,-0.1998 -2.1746,-0.298 -3.8667,-0.298 -5.9412,0 -10.4343,3.0461 -10.4343,8.3375 0,4.9457 3.5259,7.6913 7.2943,7.6913 3.0921,0 5.6532,-1.6468 6.9084,-4.2437 h 0.0983 l 0.1442,3.7434 h 3.9132 v -16.3775 c 0,-5.443 -3.1406,-8.2893 -8.5508,-8.2893 z m 4.4934,14.2808 c 0,4.794 -2.3692,7.6907 -5.7988,7.6907 -2.463,0 -4.1552,-1.8487 -4.1552,-4.7938 0,-3.1949 1.9825,-5.2939 6.7163,-5.2939 1.2074,0 2.2702,0.1488 3.2377,0.3006 z"
       style="fill:#000000;fill-rule:evenodd"
       id="path66" />
    <path
       d="m 632.3686,419.2207 h -5.6061 v -5.3444 h -4.0606 v 5.3444 h -3.718 v 3.1954 h 3.718 v 15.031 c 0,4.3924 2.3213,6.4408 6.0911,6.4408 1.9786,0 3.2847,-0.1999 4.2998,-0.6492 l -0.4332,-3.0461 c -0.8211,0.3483 -1.6941,0.4997 -2.6122,0.4997 -2.3666,0 -3.2849,-1.3991 -3.2849,-4.2934 v -13.9828 h 5.6061 z"
       style="fill:#000000;fill-rule:evenodd"
       id="path68" />
    <path
       d="m 638.2916,443.3876 h 4.0542 v -24.1669 h -4.0542 z m 2.0303,-27.7129 c 1.3966,0 2.5088,-1.1494 2.5088,-2.5968 0,-1.4498 -1.1122,-2.5963 -2.5088,-2.5963 -1.4031,0 -2.5153,1.1465 -2.5153,2.5963 0,1.4474 1.1122,2.5968 2.5153,2.5968 z"
       style="fill:#000000;fill-rule:evenodd"
       id="path70" />
    <path
       d="m 659.2738,418.7208 c -7.0544,0 -11.2573,5.4934 -11.2573,12.5836 0,7.0898 4.2029,12.5835 11.2573,12.5835 7.0545,0 11.2575,-5.4937 11.2575,-12.5835 0,-7.0902 -4.203,-12.5836 -11.2575,-12.5836 z m 0,21.9715 c -4.8819,0 -7.0027,-4.344 -7.0027,-9.3879 0,-5.0443 2.1208,-9.3888 7.0027,-9.3888 4.8819,0 7.0092,4.3445 7.0092,9.3888 0,5.0439 -2.1273,9.3879 -7.0092,9.3879 z"
       style="fill:#000000;fill-rule:evenodd"
       id="path72" />
    <path
       d="m 680.2821,423.214 -0.1422,-3.9933 h -3.9186 v 24.1669 h 4.0608 V 430.104 c 0,-4.993 2.9484,-7.9885 6.5695,-7.9885 3.7697,0 4.6878,2.1971 4.6878,6.8424 v 14.4297 h 3.9185 v -17.9549 c -0.6054,-4.431 -3.1414,-6.7119 -7.4489,-6.7119 -3.4724,0 -5.9877,1.9979 -7.6299,4.4932 z"
       style="fill:#000000;fill-rule:evenodd"
       id="path74" />
  </g>
</svg>
