<?xml version="1.0" encoding="UTF-8"?>
<!DOCTYPE svg PUBLIC "-//W3C//DTD SVG 1.1//EN" "http://www.w3.org/Graphics/SVG/1.1/DTD/svg11.dtd">
<svg xmlns="http://www.w3.org/2000/svg" version="1.1" width="1024px" height="1024px" style="shape-rendering:geometricPrecision; text-rendering:geometricPrecision; image-rendering:optimizeQuality; fill-rule:evenodd; clip-rule:evenodd" xmlns:xlink="http://www.w3.org/1999/xlink">
<g><path style="opacity:1" fill="#3b3745" d="M 354.5,81.5 C 459.167,81.3333 563.834,81.5 668.5,82C 703.983,82.1407 739.317,84.4741 774.5,89C 803.004,92.5413 830.004,100.875 855.5,114C 884.925,130.758 905.758,154.925 918,186.5C 930.813,222.704 937.813,260.038 939,298.5C 939.952,316.823 940.619,335.156 941,353.5C 941.667,458.833 941.667,564.167 941,669.5C 940.983,708.739 937.983,747.739 932,786.5C 926.904,820.156 914.237,850.49 894,877.5C 870.037,903.74 840.537,920.574 805.5,928C 778.828,934.042 751.828,937.709 724.5,939C 705.844,939.963 687.178,940.629 668.5,941C 563.833,941.667 459.167,941.667 354.5,941C 314.926,941.03 275.593,938.03 236.5,932C 156.867,920.363 109.033,875.197 93,796.5C 87.1612,766.112 83.8279,735.446 83,704.5C 81.9072,640.174 81.4072,575.84 81.5,511.5C 81.4072,447.16 81.9072,382.826 83,318.5C 83.5764,280.554 88.5764,243.221 98,206.5C 115.289,147.545 153.789,110.712 213.5,96C 241.446,89.2983 269.779,85.2983 298.5,84C 317.328,83.2019 335.995,82.3686 354.5,81.5 Z"/></g>
<g><path style="opacity:1" fill="#d1cdc7" d="M 335.5,179.5 C 400.108,177.887 450.941,203.221 488,255.5C 499.842,274.35 508.175,294.683 513,316.5C 519.784,332.284 531.618,341.784 548.5,345C 563.505,345 578.505,344.5 593.5,343.5C 670.686,345.017 734.519,374.683 785,432.5C 840.758,502.956 856.424,581.623 832,668.5C 804.167,749.667 749.667,804.167 668.5,832C 577.919,857.098 496.919,839.431 425.5,779C 395.746,751.336 373.579,718.502 359,680.5C 353.001,659.838 347.001,639.172 341,618.5C 323.235,568.752 295.068,525.919 256.5,490C 190.945,441.347 167.778,377.18 187,297.5C 212.372,227.738 261.872,188.405 335.5,179.5 Z"/></g>
<g><path style="opacity:1" fill="#3b5a18" d="M 344.5,196.5 C 400.426,197.871 443.926,221.537 475,267.5C 485.105,285.048 492.438,303.715 497,323.5C 507.549,347.033 525.716,360.2 551.5,363C 637.503,351.773 710.003,377.607 769,440.5C 825.452,510.193 839.785,587.86 812,673.5C 781.556,750.278 726.389,799.112 646.5,820C 556.594,837.585 480.428,813.085 418,746.5C 399.585,724.71 385.252,700.377 375,673.5C 369,652.833 363,632.167 357,611.5C 335.124,550.868 298.957,500.702 248.5,461C 202.139,416.73 187.305,363.563 204,301.5C 222.839,249.328 259.006,215.828 312.5,201C 323.205,198.685 333.872,197.185 344.5,196.5 Z"/></g>
<g><path style="opacity:1" fill="#93cffb" d="M 340.5,231.5 C 397.084,231.954 435.918,258.287 457,310.5C 468.451,364.455 501.618,393.788 556.5,398.5C 639.25,387.148 705.75,414.481 756,480.5C 794.3,539.239 801.3,601.573 777,667.5C 749.295,730.867 701.795,770.7 634.5,787C 550.239,800.927 482.406,774.094 431,706.5C 422.714,694.265 415.714,681.265 410,667.5C 402.62,641.314 394.62,615.314 386,589.5C 361.207,527.389 322.707,475.556 270.5,434C 231.857,395.455 222.357,350.622 242,299.5C 262.631,259.105 295.465,236.438 340.5,231.5 Z"/></g>
</svg>
