<?xml version="1.0" encoding="UTF-8"?>
<!DOCTYPE svg PUBLIC "-//W3C//DTD SVG 1.1//EN" "http://www.w3.org/Graphics/SVG/1.1/DTD/svg11.dtd">
<svg xmlns="http://www.w3.org/2000/svg" version="1.1" width="256px" height="256px" style="shape-rendering:geometricPrecision; text-rendering:geometricPrecision; image-rendering:optimizeQuality; fill-rule:evenodd; clip-rule:evenodd" xmlns:xlink="http://www.w3.org/1999/xlink">
<g><path style="opacity:1" fill="#1b1b1b" d="M 224.5,18.5 C 226.185,20.8176 228.519,21.8176 231.5,21.5C 231.232,23.099 231.566,24.4324 232.5,25.5C 234.333,27.8315 235.666,30.4982 236.5,33.5C 233.972,38.2866 233.972,42.9532 236.5,47.5C 229.547,48.2438 222.547,48.9104 215.5,49.5C 215.249,47.8297 214.582,46.3297 213.5,45C 208.638,41.8699 204.138,39.0365 200,36.5C 199.667,36.8333 199.333,37.1667 199,37.5C 197.69,35.2611 195.857,33.5944 193.5,32.5C 194.303,31.5768 194.47,30.5768 194,29.5C 191.267,32.0625 188.767,34.7291 186.5,37.5C 189.51,31.9769 193.51,27.1436 198.5,23C 200.217,21.4412 202.217,20.6079 204.5,20.5C 204.918,19.7784 205.584,19.2784 206.5,19C 212.491,18.5005 218.491,18.3338 224.5,18.5 Z"/></g>
<g><path style="opacity:1" fill="#454049" d="M 204.5,20.5 C 210.805,19.5133 217.138,19.3466 223.5,20C 215.016,19.946 207.016,21.7793 199.5,25.5C 199.167,25.3333 198.833,25.1667 198.5,25C 200.684,23.6366 202.684,22.1366 204.5,20.5 Z"/></g>
<g><path style="opacity:1" fill="#74564e" d="M 226.5,29.5 C 230.138,28.7366 231.638,30.0699 231,33.5C 226.415,35.4126 224.915,34.0793 226.5,29.5 Z"/></g>
<g><path style="opacity:0.479" fill="#060506" d="M 142.5,37.5 C 156.496,37.7831 168.996,42.1164 180,50.5C 180.757,48.6854 181.59,47.0188 182.5,45.5C 182.196,48.5219 181.696,51.5219 181,54.5C 179.878,52.3762 178.378,50.5429 176.5,49C 166.261,43.1903 155.261,40.0236 143.5,39.5C 143.167,38.8333 142.833,38.1667 142.5,37.5 Z"/></g>
<g><path style="opacity:0.851" fill="#534e56" d="M 142.5,37.5 C 142.833,38.1667 143.167,38.8333 143.5,39.5C 130.254,36.5974 117.254,37.2641 104.5,41.5C 102.527,42.4867 100.527,43.4867 98.5,44.5C 97.537,44.0302 97.537,43.3635 98.5,42.5C 103.51,39.8331 108.844,37.9998 114.5,37C 124.009,36.1757 133.343,36.3424 142.5,37.5 Z"/></g>
<g><path style="opacity:1" fill="#252426" d="M 143.5,39.5 C 144.5,41.1667 145.833,42.5 147.5,43.5C 148.895,47.5151 150.395,51.5151 152,55.5C 156.028,58.363 159.528,61.6963 162.5,65.5C 146.249,58.7155 130.416,52.7155 115,47.5C 111.235,45.7654 107.735,43.7654 104.5,41.5C 117.254,37.2641 130.254,36.5974 143.5,39.5 Z"/></g>
<g><path style="opacity:1" fill="#302e33" d="M 193.5,32.5 C 188.31,38.2035 184.643,44.8702 182.5,52.5C 184.513,53.5901 186.68,55.2568 189,57.5C 190.507,56.4652 192.007,56.6319 193.5,58C 193.167,58.3333 192.833,58.6667 192.5,59C 197.419,62.0423 202.252,65.209 207,68.5C 207.499,73.1548 207.666,77.8215 207.5,82.5C 207.5,83.5 207.5,84.5 207.5,85.5C 205.806,86.686 204.139,86.5193 202.5,85C 199.833,83.6667 197.833,81.6667 196.5,79C 194.075,78.7073 192.242,77.5407 191,75.5C 189.187,76.6091 188.354,75.9424 188.5,73.5C 179.909,69.7627 171.909,64.9294 164.5,59C 161.833,58 159.167,57 156.5,56C 157.167,55.6667 157.833,55.3333 158.5,55C 155.827,53.9986 153.493,52.4986 151.5,50.5C 150.385,49.4016 150.385,48.2349 151.5,47C 150.355,45.5979 149.022,44.4312 147.5,43.5C 145.833,42.5 144.5,41.1667 143.5,39.5C 155.261,40.0236 166.261,43.1903 176.5,49C 178.378,50.5429 179.878,52.3762 181,54.5C 181.696,51.5219 182.196,48.5219 182.5,45.5C 182.794,42.2459 184.127,39.5792 186.5,37.5C 188.767,34.7291 191.267,32.0625 194,29.5C 194.47,30.5768 194.303,31.5768 193.5,32.5 Z"/></g>
<g><path style="opacity:1" fill="#262427" d="M 193.5,32.5 C 195.857,33.5944 197.69,35.2611 199,37.5C 199.333,37.1667 199.667,36.8333 200,36.5C 204.138,39.0365 208.638,41.8699 213.5,45C 214.582,46.3297 215.249,47.8297 215.5,49.5C 212.471,51.372 210.305,54.0386 209,57.5C 208.829,66.0101 208.329,74.3434 207.5,82.5C 207.666,77.8215 207.499,73.1548 207,68.5C 202.252,65.209 197.419,62.0423 192.5,59C 192.833,58.6667 193.167,58.3333 193.5,58C 192.007,56.6319 190.507,56.4652 189,57.5C 186.68,55.2568 184.513,53.5901 182.5,52.5C 184.643,44.8702 188.31,38.2035 193.5,32.5 Z"/></g>
<g><path style="opacity:1" fill="#323034" d="M 104.5,41.5 C 107.735,43.7654 111.235,45.7654 115,47.5C 130.416,52.7155 146.249,58.7155 162.5,65.5C 163.391,66.2613 164.058,67.2613 164.5,68.5C 159.722,69.8609 155.056,71.5276 150.5,73.5C 128.35,65.2737 107.017,56.9404 86.5,48.5C 89.9111,45.569 93.9111,43.569 98.5,42.5C 97.537,43.3635 97.537,44.0302 98.5,44.5C 100.527,43.4867 102.527,42.4867 104.5,41.5 Z"/></g>
<g><path style="opacity:1" fill="#c2bfbf" d="M 236.5,47.5 C 233.972,42.9532 233.972,38.2866 236.5,33.5C 235.666,30.4982 234.333,27.8315 232.5,25.5C 232.775,23.1582 233.608,23.1582 235,25.5C 236.562,27.9573 237.562,30.624 238,33.5C 244.25,39.1804 249.416,45.6804 253.5,53C 247.526,52.2869 241.859,50.4536 236.5,47.5 Z"/></g>
<g><path style="opacity:1" fill="#554f59" d="M 64.5,61.5 C 86.6759,69.5455 109.009,78.3788 131.5,88C 129.63,90.0396 127.63,91.8729 125.5,93.5C 124.426,91.716 122.76,90.5494 120.5,90C 99.7855,82.1497 79.1188,73.9831 58.5,65.5C 60.769,64.5633 62.769,63.23 64.5,61.5 Z"/></g>
<g><path style="opacity:0.91" fill="#2e2b30" d="M 65.5,59.5 C 65.1667,60.1667 64.8333,60.8333 64.5,61.5C 62.769,63.23 60.769,64.5633 58.5,65.5C 49.1302,70.5114 39.1302,73.5114 28.5,74.5C 28.5,74.1667 28.5,73.8333 28.5,73.5C 34.8684,72.2153 41.2017,70.7153 47.5,69C 53.389,65.6081 59.389,62.4414 65.5,59.5 Z"/></g>
<g><path style="opacity:1" fill="#645d69" d="M 58.5,65.5 C 79.1188,73.9831 99.7855,82.1497 120.5,90C 122.76,90.5494 124.426,91.716 125.5,93.5C 123.194,95.1394 121.194,97.1394 119.5,99.5C 116.694,101.478 113.528,102.478 110,102.5C 96.2371,101.151 82.5704,99.1506 69,96.5C 67.8333,96.6667 66.6667,96.8333 65.5,97C 68.1667,97.6667 70.8333,98.3333 73.5,99C 67.0074,99.1199 60.6741,98.1199 54.5,96C 55.1667,95.8333 55.8333,95.6667 56.5,95.5C 58.8006,96.3958 61.1339,96.5625 63.5,96C 54.3116,93.6588 45.3116,90.8255 36.5,87.5C 31.5894,84.6362 26.2561,82.6362 20.5,81.5C 21.3292,77.0009 23.9959,74.6676 28.5,74.5C 39.1302,73.5114 49.1302,70.5114 58.5,65.5 Z"/></g>
<g><path style="opacity:1" fill="#3d3940" d="M 147.5,43.5 C 149.022,44.4312 150.355,45.5979 151.5,47C 150.385,48.2349 150.385,49.4016 151.5,50.5C 153.493,52.4986 155.827,53.9986 158.5,55C 157.833,55.3333 157.167,55.6667 156.5,56C 159.167,57 161.833,58 164.5,59C 171.909,64.9294 179.909,69.7627 188.5,73.5C 188.354,75.9424 189.187,76.6091 191,75.5C 192.242,77.5407 194.075,78.7073 196.5,79C 197.833,81.6667 199.833,83.6667 202.5,85C 204.139,86.5193 205.806,86.686 207.5,85.5C 204.944,95.6119 199.611,103.945 191.5,110.5C 190.548,109.548 189.548,108.548 188.5,107.5C 187.914,107.709 187.414,108.043 187,108.5C 185.345,108.198 184.012,106.864 183,104.5C 182.667,104.833 182.333,105.167 182,105.5C 179.749,103.623 177.249,102.123 174.5,101C 174.833,100.667 175.167,100.333 175.5,100C 174.069,99.5348 172.903,98.7014 172,97.5C 171,97.5 170,97.5 169,97.5C 166.3,95.8412 163.633,93.5079 161,90.5C 159.16,91.8331 158.66,91.6665 159.5,90C 158.069,89.5348 156.903,88.7014 156,87.5C 155,87.5 154,87.5 153,87.5C 152.059,85.9386 150.892,84.6053 149.5,83.5C 146.025,85.8076 142.692,88.3076 139.5,91C 137.681,91.7828 136.348,91.2828 135.5,89.5C 139.108,86.7105 141.775,83.5438 143.5,80C 122.893,72.9027 103.06,65.0694 84,56.5C 83.6667,56.8333 83.3333,57.1667 83,57.5C 80.4125,55.8042 77.5792,54.8042 74.5,54.5C 78.1704,51.9368 82.1704,49.9368 86.5,48.5C 107.017,56.9404 128.35,65.2737 150.5,73.5C 155.056,71.5276 159.722,69.8609 164.5,68.5C 164.058,67.2613 163.391,66.2613 162.5,65.5C 159.528,61.6963 156.028,58.363 152,55.5C 150.395,51.5151 148.895,47.5151 147.5,43.5 Z"/></g>
<g><path style="opacity:1" fill="#49444c" d="M 74.5,54.5 C 77.5792,54.8042 80.4125,55.8042 83,57.5C 83.3333,57.1667 83.6667,56.8333 84,56.5C 103.06,65.0694 122.893,72.9027 143.5,80C 141.775,83.5438 139.108,86.7105 135.5,89.5C 136.348,91.2828 137.681,91.7828 139.5,91C 142.692,88.3076 146.025,85.8076 149.5,83.5C 150.892,84.6053 152.059,85.9386 153,87.5C 154,87.5 155,87.5 156,87.5C 156.903,88.7014 158.069,89.5348 159.5,90C 158.66,91.6665 159.16,91.8331 161,90.5C 163.633,93.5079 166.3,95.8412 169,97.5C 170,97.5 171,97.5 172,97.5C 172.903,98.7014 174.069,99.5348 175.5,100C 175.167,100.333 174.833,100.667 174.5,101C 177.249,102.123 179.749,103.623 182,105.5C 182.333,105.167 182.667,104.833 183,104.5C 184.012,106.864 185.345,108.198 187,108.5C 187.414,108.043 187.914,107.709 188.5,107.5C 189.548,108.548 190.548,109.548 191.5,110.5C 183.783,116.885 175.783,122.885 167.5,128.5C 164.725,125.958 165.058,124.125 168.5,123C 167.965,120.891 166.965,120.391 165.5,121.5C 164.614,120.675 164.281,119.675 164.5,118.5C 163.127,118.657 161.793,118.49 160.5,118C 161.604,116.869 161.271,116.035 159.5,115.5C 155.746,115.861 152.913,114.194 151,110.5C 149.187,111.609 148.354,110.942 148.5,108.5C 145.039,108.854 142.539,107.521 141,104.5C 138.135,105.041 136.135,103.707 135,100.5C 133.594,101.668 132.428,101.335 131.5,99.5C 129.343,101.412 127.009,103.079 124.5,104.5C 123.28,104.113 122.613,103.28 122.5,102C 123.33,100.535 123.496,99.0349 123,97.5C 122.184,98.8228 121.017,99.4894 119.5,99.5C 121.194,97.1394 123.194,95.1394 125.5,93.5C 127.63,91.8729 129.63,90.0396 131.5,88C 109.009,78.3788 86.6759,69.5455 64.5,61.5C 64.8333,60.8333 65.1667,60.1667 65.5,59.5C 68.0078,57.0764 71.0078,55.4097 74.5,54.5 Z"/></g>
<g><path style="opacity:0.027" fill="#050505" d="M 224.5,18.5 C 233.806,18.6369 239.306,23.3036 241,32.5C 246.448,37.7703 251.281,43.4369 255.5,49.5C 255.5,51.5 255.5,53.5 255.5,55.5C 246.132,53.2193 236.632,51.2193 227,49.5C 221.267,49.2744 216.267,50.9411 212,54.5C 211.178,56.7885 210.511,59.1218 210,61.5C 209.667,70.5 209.333,79.5 209,88.5C 205.136,98.0371 199.303,106.204 191.5,113C 182.553,118.947 173.886,125.28 165.5,132C 172.897,132.924 179.897,134.091 186.5,135.5C 189.712,136.694 192.712,137.36 195.5,137.5C 217.648,142.437 229.648,155.604 231.5,177C 230.988,188.975 226.321,198.142 217.5,204.5C 217.167,203.167 216.833,203.167 216.5,204.5C 215.188,206.641 213.355,208.308 211,209.5C 210.667,209.167 210.333,208.833 210,208.5C 209.722,209.416 209.222,210.082 208.5,210.5C 208.5,209.833 208.167,209.5 207.5,209.5C 206.833,208.167 206.167,208.167 205.5,209.5C 204.833,209.5 204.5,209.833 204.5,210.5C 203.508,210.328 202.842,210.662 202.5,211.5C 201.167,211.5 200.5,212.167 200.5,213.5C 199.167,213.833 199.167,214.167 200.5,214.5C 200.265,215.097 199.765,215.43 199,215.5C 197.989,215.108 197.489,214.441 197.5,213.5C 195.512,214.289 195.179,215.455 196.5,217C 195.258,217.311 194.258,216.811 193.5,215.5C 192.893,215.624 192.56,215.957 192.5,216.5C 190.576,216.711 190.243,217.377 191.5,218.5C 191.44,219.043 191.107,219.376 190.5,219.5C 189.833,218.833 189.167,218.167 188.5,217.5C 188.446,218.53 188.112,219.697 187.5,221C 185.865,221.54 184.532,221.04 183.5,219.5C 183.94,220.953 183.274,222.119 181.5,223C 176.701,224.575 171.868,226.075 167,227.5C 165.699,226.107 164.199,225.607 162.5,226C 164.301,226.317 164.634,226.984 163.5,228C 160.779,229.931 158.279,229.764 156,227.5C 155.235,227.57 154.735,227.903 154.5,228.5C 153.508,228.328 152.842,228.662 152.5,229.5C 151.167,229.833 151.167,230.167 152.5,230.5C 151.295,231.686 149.961,231.686 148.5,230.5C 147.167,229.167 145.833,229.167 144.5,230.5C 140.714,230.638 140.714,231.305 144.5,232.5C 140.145,232.542 135.645,232.542 131,232.5C 130.167,232.667 129.333,232.833 128.5,233C 129.833,233.333 131.167,233.667 132.5,234C 130,234.5 127.5,235 125,235.5C 121.473,233.551 117.973,233.217 114.5,234.5C 103.833,234.833 103.833,235.167 114.5,235.5C 111.038,236.482 107.371,236.815 103.5,236.5C 103.167,235.167 102.833,235.167 102.5,236.5C 101.833,236.5 101.167,236.5 100.5,236.5C 100.167,235.167 99.8333,235.167 99.5,236.5C 94.5312,237.783 89.5312,237.783 84.5,236.5C 84.5,235.833 84.1667,235.5 83.5,235.5C 80.4371,234.799 77.2704,234.132 74,233.5C 73.6174,234.056 73.1174,234.389 72.5,234.5C 68.1885,234.678 63.8552,234.678 59.5,234.5C 53.3905,234.262 47.7238,232.929 42.5,230.5C 40.7162,230.107 39.0495,229.441 37.5,228.5C 37.1667,227.167 36.8333,227.167 36.5,228.5C 33.279,228.104 30.6123,226.771 28.5,224.5C 28.1667,223.167 27.8333,223.167 27.5,224.5C 26.8333,223.833 26.1667,223.167 25.5,222.5C 25.5,222.167 25.5,221.833 25.5,221.5C 24.8333,221.5 24.5,221.833 24.5,222.5C 23.8333,221.833 23.1667,221.167 22.5,220.5C 22.1667,219.5 21.5,218.833 20.5,218.5C 20.1667,217.5 19.5,216.833 18.5,216.5C 17.3117,215.636 16.1451,214.636 15,213.5C 14.3828,212.551 14.5494,211.718 15.5,211C 13.9386,210.059 12.6053,208.892 11.5,207.5C 12.041,205.477 11.541,203.477 10,201.5C 8.51867,194.463 8.51867,187.463 10,180.5C 11.7583,179.531 12.2583,178.364 11.5,177C 15.2571,171.19 19.5904,166.69 24.5,163.5C 27.4489,160.314 30.6156,157.981 34,156.5C 35.2289,158.947 36.7289,159.113 38.5,157C 37.828,155.421 38.4947,154.254 40.5,153.5C 40.5,154.167 40.5,154.833 40.5,155.5C 42.6977,155.591 43.0311,154.925 41.5,153.5C 45.9744,150.773 50.3078,148.44 54.5,146.5C 55.086,146.709 55.586,147.043 56,147.5C 58.5884,144.713 61.2551,144.38 64,146.5C 66.3782,145.476 67.7115,144.142 68,142.5C 68.2514,143.986 69.5847,144.986 72,145.5C 71.9813,143.893 71.8146,142.226 71.5,140.5C 66.9681,139.237 62.6347,137.403 58.5,135C 47.0787,128.207 35.912,121.041 25,113.5C 24.7978,111.744 24.2978,110.078 23.5,108.5C 15.1522,108.349 7.15218,106.682 -0.5,103.5C -0.5,102.167 -0.5,100.833 -0.5,99.5C 8.90405,96.3685 18.5707,93.8685 28.5,92C 29.3333,90.5 30.5,89.3333 32,88.5C 32.6877,87.6683 32.521,87.0016 31.5,86.5C 27.622,84.9913 23.622,83.9913 19.5,83.5C 19.3214,77.1401 22.3214,73.8067 28.5,73.5C 28.5,73.8333 28.5,74.1667 28.5,74.5C 23.9959,74.6676 21.3292,77.0009 20.5,81.5C 26.2561,82.6362 31.5894,84.6362 36.5,87.5C 32.1053,89.5622 29.1053,92.8955 27.5,97.5C 26.596,96.791 26.2627,95.791 26.5,94.5C 17.3668,95.3228 8.70018,97.6561 0.5,101.5C 8.26881,105.844 16.6021,107.511 25.5,106.5C 25.1569,103.347 25.4902,101.013 26.5,99.5C 26.1975,104.43 26.5308,109.263 27.5,114C 41.9371,123.882 56.9371,132.715 72.5,140.5C 74.2304,144.025 75.5637,147.691 76.5,151.5C 76.6716,152.492 76.3382,153.158 75.5,153.5C 75.5,152.833 75.1667,152.5 74.5,152.5C 74.4431,151.391 74.1098,150.391 73.5,149.5C 73.5,148.833 73.1667,148.5 72.5,148.5C 70.0075,149.774 67.3408,150.44 64.5,150.5C 64.719,151.675 64.3857,152.675 63.5,153.5C 60.3049,151.974 58.6383,152.64 58.5,155.5C 56.9291,154.691 55.2624,154.357 53.5,154.5C 53.9111,157.276 53.0777,157.943 51,156.5C 37.9981,161.504 27.6648,169.837 20,181.5C 19.7105,183.952 19.0438,186.285 18,188.5C 17.1834,191.964 17.5167,195.298 19,198.5C 19.6667,195.833 20.3333,195.833 21,198.5C 21.5798,201.547 21.2465,201.881 20,199.5C 19.4986,202.529 20.332,205.196 22.5,207.5C 24.6674,206.046 26.6674,206.212 28.5,208C 27.5509,208.617 26.7175,208.451 26,207.5C 23.9762,209.792 24.3095,210.459 27,209.5C 27.6449,210.646 28.4783,211.646 29.5,212.5C 29.2907,213.086 28.9574,213.586 28.5,214C 30.7543,216.419 33.421,218.252 36.5,219.5C 38.3497,218.758 39.0164,217.758 38.5,216.5C 40.2705,217.035 40.6039,217.869 39.5,219C 40.8333,219.667 42.1667,220.333 43.5,221C 42.8333,221.333 42.1667,221.667 41.5,222C 45.9852,224.441 50.6519,225.274 55.5,224.5C 56.6956,224.846 56.6956,225.346 55.5,226C 59.7392,227.663 64.0726,227.829 68.5,226.5C 68.0825,227.222 67.4158,227.722 66.5,228C 67.5,228.333 68.5,228.667 69.5,229C 80.7883,229.077 91.7883,228.91 102.5,228.5C 110.031,230.422 117.697,230.255 125.5,228C 124.112,227.111 124.278,226.611 126,226.5C 130.735,229.082 134.901,228.416 138.5,224.5C 140.947,224.385 142.947,223.385 144.5,221.5C 147.821,221.464 150.988,222.131 154,223.5C 155.627,223.375 157.127,222.875 158.5,222C 157.304,221.346 157.304,220.846 158.5,220.5C 161.839,222.235 164.506,221.568 166.5,218.5C 169.784,219.82 171.784,219.153 172.5,216.5C 174.098,217.485 175.765,217.651 177.5,217C 178.833,216.333 178.833,215.667 177.5,215C 179.126,215.195 180.793,215.195 182.5,215C 184.762,214.299 185.762,213.132 185.5,211.5C 186.324,213.748 187.324,213.914 188.5,212C 188.167,211.667 187.833,211.333 187.5,211C 188.833,211 190.167,211 191.5,211C 192.833,210.333 192.833,209.667 191.5,209C 193.746,207.961 195.913,206.794 198,205.5C 198.333,206.167 198.667,206.833 199,207.5C 199.903,206.299 201.069,205.465 202.5,205C 200.699,204.683 200.366,204.016 201.5,203C 203.95,204.126 205.95,203.459 207.5,201C 203.249,199.805 198.915,199.305 194.5,199.5C 191.941,199.802 189.607,199.468 187.5,198.5C 196.203,198.495 204.87,198.661 213.5,199C 208.255,197.57 202.922,196.57 197.5,196C 200.924,195.253 204.257,195.42 207.5,196.5C 207.833,196.5 208.167,196.5 208.5,196.5C 210.027,196.573 211.027,195.906 211.5,194.5C 212.239,194.631 212.906,194.464 213.5,194C 212.207,193.51 210.873,193.343 209.5,193.5C 205.398,194.641 201.231,194.641 197,193.5C 191.845,196.529 185.679,195.696 178.5,191C 179.793,190.51 181.127,190.343 182.5,190.5C 189.953,192.038 197.62,193.038 205.5,193.5C 208.722,192.294 211.888,192.294 215,193.5C 215.464,192.906 215.631,192.239 215.5,191.5C 218.925,190.107 219.925,187.773 218.5,184.5C 218.938,183.494 219.604,183.494 220.5,184.5C 221.971,181.679 221.637,179.179 219.5,177C 219.579,174.695 219.746,172.195 220,169.5C 220.699,174.281 221.199,174.447 221.5,170C 219.317,162.065 214.483,155.565 207,150.5C 206.396,152.686 205.23,152.852 203.5,151C 204.993,149.844 204.826,149.01 203,148.5C 201.838,149.187 200.672,149.353 199.5,149C 200.604,147.869 200.271,147.035 198.5,146.5C 197.232,147.428 195.899,147.595 194.5,147C 196.301,146.683 196.634,146.016 195.5,145C 193.765,144.349 192.098,144.515 190.5,145.5C 189.304,145.154 189.304,144.654 190.5,144C 187.761,142.252 184.927,142.086 182,143.5C 182.027,142.212 181.027,141.212 179,140.5C 178.667,141.167 178.333,141.833 178,142.5C 177.326,141.422 176.326,140.755 175,140.5C 172.522,141.332 170.022,141.499 167.5,141C 167.833,140.667 168.167,140.333 168.5,140C 163.875,138.838 159.208,138.504 154.5,139C 157.937,139.649 158.104,140.149 155,140.5C 153.93,140.472 153.097,140.139 152.5,139.5C 151.005,139.989 149.671,140.655 148.5,141.5C 147.778,141.918 147.278,142.584 147,143.5C 144.239,142.721 142.406,143.887 141.5,147C 142.044,148.585 142.711,150.085 143.5,151.5C 143.167,151.5 142.833,151.5 142.5,151.5C 141.778,151.082 141.278,150.416 141,149.5C 140.051,151.093 138.885,152.426 137.5,153.5C 138.219,151.236 138.552,148.903 138.5,146.5C 136.5,146.833 134.5,147.167 132.5,147.5C 137.768,144.866 143.101,142.199 148.5,139.5C 152.118,137.863 155.451,135.863 158.5,133.5C 161.634,132.099 164.634,130.432 167.5,128.5C 175.783,122.885 183.783,116.885 191.5,110.5C 199.611,103.945 204.944,95.6119 207.5,85.5C 207.5,84.5 207.5,83.5 207.5,82.5C 208.329,74.3434 208.829,66.0101 209,57.5C 210.305,54.0386 212.471,51.372 215.5,49.5C 222.547,48.9104 229.547,48.2438 236.5,47.5C 241.859,50.4536 247.526,52.2869 253.5,53C 249.416,45.6804 244.25,39.1804 238,33.5C 237.562,30.624 236.562,27.9573 235,25.5C 233.608,23.1582 232.775,23.1582 232.5,25.5C 231.566,24.4324 231.232,23.099 231.5,21.5C 228.519,21.8176 226.185,20.8176 224.5,18.5 Z M 162.5,132.5 C 163.376,132.369 164.043,132.702 164.5,133.5C 162.192,134.873 161.525,134.54 162.5,132.5 Z M 186.5,135.5 C 186.833,136.167 187.167,136.833 187.5,137.5C 184.147,137.655 183.814,136.988 186.5,135.5 Z M 195.5,137.5 C 195.5,138.167 195.5,138.833 195.5,139.5C 191.714,139.362 191.714,138.695 195.5,137.5 Z M 199.5,141.5 C 200.721,140.535 202.054,140.702 203.5,142C 202.072,142.579 200.738,142.412 199.5,141.5 Z M 211.5,146.5 C 212.167,146.5 212.833,146.5 213.5,146.5C 213.833,147.167 214.167,147.833 214.5,148.5C 212.973,148.573 211.973,147.906 211.5,146.5 Z M 40.5,153.5 C 40.8333,153.5 41.1667,153.5 41.5,153.5C 43.0311,154.925 42.6977,155.591 40.5,155.5C 40.5,154.833 40.5,154.167 40.5,153.5 Z M 21.5,168.5 C 21.7828,167.711 22.2828,167.044 23,166.5C 23.5281,167.816 23.0281,168.483 21.5,168.5 Z M 211.5,205.5 C 211.483,207.028 210.816,207.528 209.5,207C 210.044,206.283 210.711,205.783 211.5,205.5 Z M 17.5,211.5 C 19.9327,212.548 19.9327,213.214 17.5,213.5C 17.5,212.833 17.5,212.167 17.5,211.5 Z M 23.5,217.5 C 24.5,217.833 25.1667,218.5 25.5,219.5C 24.1667,219.5 23.5,218.833 23.5,217.5 Z M 25.5,219.5 C 27.9327,220.548 27.9327,221.214 25.5,221.5C 25.5,220.833 25.5,220.167 25.5,219.5 Z M 42.5,228.5 C 44.9327,228.786 44.9327,229.452 42.5,230.5C 42.5,229.833 42.5,229.167 42.5,228.5 Z M 58.5,232.5 C 63.079,232.34 63.4123,233.007 59.5,234.5C 59.1667,233.833 58.8333,233.167 58.5,232.5 Z M 83.5,235.5 C 79.6286,235.815 75.9619,235.482 72.5,234.5C 73.1174,234.389 73.6174,234.056 74,233.5C 77.2704,234.132 80.4371,234.799 83.5,235.5 Z"/></g>
<g><path style="opacity:1" fill="#5a545f" d="M 158.5,133.5 C 155.451,135.863 152.118,137.863 148.5,139.5C 146.983,136.637 144.816,134.304 142,132.5C 141.667,132.833 141.333,133.167 141,133.5C 134.653,129.579 128.32,124.912 122,119.5C 121,119.5 120,119.5 119,119.5C 114.91,116.22 110.743,113.22 106.5,110.5C 111.444,110.178 116.277,110.178 121,110.5C 122,109.833 123,109.167 124,108.5C 124.37,111.28 125.37,113.28 127,114.5C 131.686,113.308 135.686,114.974 139,119.5C 140.073,118.72 141.24,118.887 142.5,120C 142.167,121 141.833,122 141.5,123C 142,123.5 142.5,124 143,124.5C 144.667,124.167 146.333,123.833 148,123.5C 151.048,125.096 153.548,127.263 155.5,130C 156.449,130.617 157.282,130.451 158,129.5C 158.49,130.793 158.657,132.127 158.5,133.5 Z"/></g>
<g><path style="opacity:1" fill="#504a55" d="M 36.5,87.5 C 45.3116,90.8255 54.3116,93.6588 63.5,96C 61.1339,96.5625 58.8006,96.3958 56.5,95.5C 55.8333,95.6667 55.1667,95.8333 54.5,96C 60.6741,98.1199 67.0074,99.1199 73.5,99C 70.8333,98.3333 68.1667,97.6667 65.5,97C 66.6667,96.8333 67.8333,96.6667 69,96.5C 82.5704,99.1506 96.2371,101.151 110,102.5C 113.528,102.478 116.694,101.478 119.5,99.5C 121.017,99.4894 122.184,98.8228 123,97.5C 123.496,99.0349 123.33,100.535 122.5,102C 122.613,103.28 123.28,104.113 124.5,104.5C 127.009,103.079 129.343,101.412 131.5,99.5C 132.428,101.335 133.594,101.668 135,100.5C 136.135,103.707 138.135,105.041 141,104.5C 142.539,107.521 145.039,108.854 148.5,108.5C 148.354,110.942 149.187,111.609 151,110.5C 152.913,114.194 155.746,115.861 159.5,115.5C 161.271,116.035 161.604,116.869 160.5,118C 161.793,118.49 163.127,118.657 164.5,118.5C 164.281,119.675 164.614,120.675 165.5,121.5C 166.965,120.391 167.965,120.891 168.5,123C 165.058,124.125 164.725,125.958 167.5,128.5C 164.634,130.432 161.634,132.099 158.5,133.5C 158.657,132.127 158.49,130.793 158,129.5C 157.282,130.451 156.449,130.617 155.5,130C 153.548,127.263 151.048,125.096 148,123.5C 146.333,123.833 144.667,124.167 143,124.5C 142.5,124 142,123.5 141.5,123C 141.833,122 142.167,121 142.5,120C 141.24,118.887 140.073,118.72 139,119.5C 135.686,114.974 131.686,113.308 127,114.5C 125.37,113.28 124.37,111.28 124,108.5C 123,109.167 122,109.833 121,110.5C 116.277,110.178 111.444,110.178 106.5,110.5C 90.4245,108.157 74.4245,105.323 58.5,102C 50.9422,99.5544 43.9422,96.0544 37.5,91.5C 38.376,90.7492 39.376,90.2492 40.5,90C 38.9336,89.3918 37.6002,88.5585 36.5,87.5 Z"/></g>
<g><path style="opacity:0.974" fill="#3d393f" d="M 27.5,97.5 C 27.6716,98.4916 27.3382,99.1583 26.5,99.5C 25.4902,101.013 25.1569,103.347 25.5,106.5C 16.6021,107.511 8.26881,105.844 0.5,101.5C 8.70018,97.6561 17.3668,95.3228 26.5,94.5C 26.2627,95.791 26.596,96.791 27.5,97.5 Z"/></g>
<g><path style="opacity:1" fill="#655e6b" d="M 36.5,87.5 C 37.6002,88.5585 38.9336,89.3918 40.5,90C 39.376,90.2492 38.376,90.7492 37.5,91.5C 43.9422,96.0544 50.9422,99.5544 58.5,102C 74.4245,105.323 90.4245,108.157 106.5,110.5C 110.743,113.22 114.91,116.22 119,119.5C 120,119.5 121,119.5 122,119.5C 128.32,124.912 134.653,129.579 141,133.5C 141.333,133.167 141.667,132.833 142,132.5C 144.816,134.304 146.983,136.637 148.5,139.5C 143.101,142.199 137.768,144.866 132.5,147.5C 130.599,147.433 128.766,147.767 127,148.5C 110.606,142.041 93.7725,139.375 76.5,140.5C 75.1667,140.5 73.8333,140.5 72.5,140.5C 56.9371,132.715 41.9371,123.882 27.5,114C 26.5308,109.263 26.1975,104.43 26.5,99.5C 27.3382,99.1583 27.6716,98.4916 27.5,97.5C 29.1053,92.8955 32.1053,89.5622 36.5,87.5 Z"/></g>
<g><path style="opacity:0.393" fill="#131210" d="M 76.5,140.5 C 93.7725,139.375 110.606,142.041 127,148.5C 128.766,147.767 130.599,147.433 132.5,147.5C 131.882,149.423 132.215,151.423 133.5,153.5C 134.7,154.292 136.033,154.292 137.5,153.5C 138.552,155.256 140.219,155.923 142.5,155.5C 142.5,154.167 142.5,152.833 142.5,151.5C 142.833,151.5 143.167,151.5 143.5,151.5C 143.343,152.873 143.51,154.207 144,155.5C 152.015,163.348 159.848,171.348 167.5,179.5C 171.619,181.059 175.619,182.893 179.5,185C 177.331,185.429 175.331,184.929 173.5,183.5C 173.167,184.167 172.833,184.833 172.5,185.5C 171.167,184.833 169.833,184.167 168.5,183.5C 168.167,184.167 167.833,184.833 167.5,185.5C 163.939,184.206 163.606,185.04 166.5,188C 161.697,190.403 156.697,192.236 151.5,193.5C 149.519,193.563 147.852,192.896 146.5,191.5C 148.858,189.713 151.525,188.713 154.5,188.5C 155.812,186.521 157.479,184.855 159.5,183.5C 151.484,174.651 142.984,166.317 134,158.5C 132.63,155.95 131.463,153.283 130.5,150.5C 124.15,148.494 117.817,146.494 111.5,144.5C 111.167,144.5 110.833,144.5 110.5,144.5C 110.167,144.5 109.833,144.5 109.5,144.5C 108.305,144.678 107.138,145.011 106,145.5C 104.14,143.085 102.474,143.085 101,145.5C 100.005,144.934 99.172,144.267 98.5,143.5C 99.2389,143.631 99.9056,143.464 100.5,143C 98.8659,142.506 97.1992,142.34 95.5,142.5C 93.6827,143.219 93.0161,144.219 93.5,145.5C 90.1707,142.826 87.1707,143.16 84.5,146.5C 84.5,146.833 84.5,147.167 84.5,147.5C 86.0291,150.754 87.3624,154.087 88.5,157.5C 90.726,163.401 90.726,169.234 88.5,175C 89.2524,175.671 89.5858,176.504 89.5,177.5C 88.1634,176.685 87.1634,175.518 86.5,174C 81.4968,172.478 76.4968,172.144 71.5,173C 74.1066,170.895 77.1066,170.062 80.5,170.5C 81.4215,164.025 79.7548,158.359 75.5,153.5C 76.3382,153.158 76.6716,152.492 76.5,151.5C 77.8333,153.5 79.1667,155.5 80.5,157.5C 82.1113,161.99 82.778,166.657 82.5,171.5C 84.5,171.833 86.5,172.167 88.5,172.5C 88.7801,162.756 86.4468,153.756 81.5,145.5C 82.1667,141.5 80.5,139.833 76.5,140.5 Z"/></g>
<g><path style="opacity:0.978" fill="#746f50" d="M 72.5,140.5 C 73.8333,140.5 75.1667,140.5 76.5,140.5C 80.5,139.833 82.1667,141.5 81.5,145.5C 80.5166,149.298 80.1832,153.298 80.5,157.5C 79.1667,155.5 77.8333,153.5 76.5,151.5C 75.5637,147.691 74.2304,144.025 72.5,140.5 Z"/></g>
<g><path style="opacity:0.114" fill="#444444" d="M 95.5,142.5 C 96.209,143.404 97.209,143.737 98.5,143.5C 99.172,144.267 100.005,144.934 101,145.5C 102.474,143.085 104.14,143.085 106,145.5C 107.138,145.011 108.305,144.678 109.5,144.5C 109.252,147.44 110.252,149.44 112.5,150.5C 112.154,151.696 111.654,151.696 111,150.5C 110.667,151.5 110.333,152.5 110,153.5C 109.225,151.777 107.892,150.777 106,150.5C 103.977,152.355 102.144,154.355 100.5,156.5C 98.9737,154.342 97.4737,154.675 96,157.5C 93.8656,154.916 92.0323,155.25 90.5,158.5C 89.8165,158.137 89.1499,157.804 88.5,157.5C 87.3624,154.087 86.0291,150.754 84.5,147.5C 85.8333,147.167 85.8333,146.833 84.5,146.5C 87.1707,143.16 90.1707,142.826 93.5,145.5C 93.0161,144.219 93.6827,143.219 95.5,142.5 Z"/></g>
<g><path style="opacity:0.99" fill="#878042" d="M 81.5,145.5 C 86.4468,153.756 88.7801,162.756 88.5,172.5C 86.5,172.167 84.5,171.833 82.5,171.5C 82.778,166.657 82.1113,161.99 80.5,157.5C 80.1832,153.298 80.5166,149.298 81.5,145.5 Z"/></g>
<g><path style="opacity:0.043" fill="#2f2f2f" d="M 215.5,191.5 C 215.5,191.167 215.5,190.833 215.5,190.5C 215.5,189.833 215.167,189.5 214.5,189.5C 213.833,189.5 213.167,189.5 212.5,189.5C 212.5,188.833 212.167,188.5 211.5,188.5C 210.833,188.5 210.5,188.167 210.5,187.5C 212.411,187.426 213.578,186.426 214,184.5C 215.666,185.34 215.833,184.84 214.5,183C 214.928,180.371 215.928,178.038 217.5,176C 215.928,173.962 214.928,171.629 214.5,169C 215.833,167.16 215.666,166.66 214,167.5C 211.945,162.112 208.445,157.946 203.5,155C 199.271,153.586 195.771,151.753 193,149.5C 192.333,150.167 191.667,150.833 191,151.5C 189.232,149.608 187.232,147.941 185,146.5C 181.549,146.954 178.049,146.454 174.5,145C 170.247,144.8 166.08,144.3 162,143.5C 160.372,144.097 158.705,143.763 157,142.5C 155.6,143.116 154.1,143.449 152.5,143.5C 150.667,143.415 149.334,142.748 148.5,141.5C 149.671,140.655 151.005,139.989 152.5,139.5C 153.097,140.139 153.93,140.472 155,140.5C 158.104,140.149 157.937,139.649 154.5,139C 159.208,138.504 163.875,138.838 168.5,140C 168.167,140.333 167.833,140.667 167.5,141C 170.022,141.499 172.522,141.332 175,140.5C 176.326,140.755 177.326,141.422 178,142.5C 178.333,141.833 178.667,141.167 179,140.5C 181.027,141.212 182.027,142.212 182,143.5C 184.927,142.086 187.761,142.252 190.5,144C 189.304,144.654 189.304,145.154 190.5,145.5C 192.098,144.515 193.765,144.349 195.5,145C 196.634,146.016 196.301,146.683 194.5,147C 195.899,147.595 197.232,147.428 198.5,146.5C 200.271,147.035 200.604,147.869 199.5,149C 200.672,149.353 201.838,149.187 203,148.5C 204.826,149.01 204.993,149.844 203.5,151C 205.23,152.852 206.396,152.686 207,150.5C 214.483,155.565 219.317,162.065 221.5,170C 221.199,174.447 220.699,174.281 220,169.5C 219.746,172.195 219.579,174.695 219.5,177C 221.637,179.179 221.971,181.679 220.5,184.5C 219.604,183.494 218.938,183.494 218.5,184.5C 219.925,187.773 218.925,190.107 215.5,191.5 Z"/></g>
<g><path style="opacity:0.308" fill="#515151" d="M 148.5,141.5 C 149.334,142.748 150.667,143.415 152.5,143.5C 154.1,143.449 155.6,143.116 157,142.5C 158.705,143.763 160.372,144.097 162,143.5C 166.08,144.3 170.247,144.8 174.5,145C 178.049,146.454 181.549,146.954 185,146.5C 187.232,147.941 189.232,149.608 191,151.5C 191.667,150.833 192.333,150.167 193,149.5C 195.771,151.753 199.271,153.586 203.5,155C 208.445,157.946 211.945,162.112 214,167.5C 215.666,166.66 215.833,167.16 214.5,169C 214.928,171.629 215.928,173.962 217.5,176C 215.928,178.038 214.928,180.371 214.5,183C 215.833,184.84 215.666,185.34 214,184.5C 213.578,186.426 212.411,187.426 210.5,187.5C 202.826,187.334 195.159,187.5 187.5,188C 194.833,188.333 202.167,188.667 209.5,189C 200.833,189.667 192.167,189.667 183.5,189C 181.956,187.813 180.289,187.48 178.5,188C 180.066,188.608 181.4,189.442 182.5,190.5C 181.127,190.343 179.793,190.51 178.5,191C 185.679,195.696 191.845,196.529 197,193.5C 201.231,194.641 205.398,194.641 209.5,193.5C 209.842,194.338 210.508,194.672 211.5,194.5C 211.027,195.906 210.027,196.573 208.5,196.5C 208.167,195.167 207.833,195.167 207.5,196.5C 204.257,195.42 200.924,195.253 197.5,196C 202.922,196.57 208.255,197.57 213.5,199C 204.87,198.661 196.203,198.495 187.5,198.5C 189.607,199.468 191.941,199.802 194.5,199.5C 195.808,200.232 197.142,201.066 198.5,202C 196.069,202.295 194.236,203.462 193,205.5C 191.251,204.701 189.918,205.368 189,207.5C 188.667,207.167 188.333,206.833 188,206.5C 186.667,207.833 185.333,209.167 184,210.5C 183.586,210.043 183.086,209.709 182.5,209.5C 179.727,210.468 177.227,211.801 175,213.5C 173.062,212.14 171.396,212.473 170,214.5C 168.622,212.787 166.955,211.453 165,210.5C 163.649,211.961 162.149,213.294 160.5,214.5C 159.757,213.092 158.923,211.759 158,210.5C 157.047,212.592 155.714,212.925 154,211.5C 153.798,213.256 153.298,214.922 152.5,216.5C 151.614,215.675 151.281,214.675 151.5,213.5C 150.448,213.351 149.448,213.517 148.5,214C 148.833,214.333 149.167,214.667 149.5,215C 148.241,215.923 146.908,216.757 145.5,217.5C 146.729,218.281 148.062,218.781 149.5,219C 147.509,219.374 145.842,220.207 144.5,221.5C 142.947,223.385 140.947,224.385 138.5,224.5C 129.647,222.239 120.647,222.739 111.5,226C 112.833,226.333 114.167,226.667 115.5,227C 111.955,227.571 108.622,226.904 105.5,225C 102.167,224.833 98.8333,224.667 95.5,224.5C 91.4599,224.904 87.6265,224.904 84,224.5C 82.2151,225.24 80.3817,225.907 78.5,226.5C 73.5348,223.886 68.3682,222.886 63,223.5C 59.3381,221.978 55.5048,221.145 51.5,221C 49.7373,219.398 47.904,218.898 46,219.5C 45.1667,218.5 44.3333,217.5 43.5,216.5C 42.914,216.709 42.414,217.043 42,217.5C 39.2325,214.155 35.7325,211.988 31.5,211C 31.8333,210.667 32.1667,210.333 32.5,210C 24.152,202.882 22.152,194.382 26.5,184.5C 26.0233,183.522 25.3567,182.689 24.5,182C 25.4491,181.383 26.2825,181.549 27,182.5C 28.1145,181 28.9479,179.333 29.5,177.5C 30.325,176.614 31.325,176.281 32.5,176.5C 33.8063,172.364 36.6397,169.697 41,168.5C 41.3333,168.833 41.6667,169.167 42,169.5C 43.0086,167.975 43.5086,166.308 43.5,164.5C 45.1992,164.66 46.8659,164.494 48.5,164C 51.405,161.657 54.5717,159.824 58,158.5C 59.9427,158.959 61.276,157.959 62,155.5C 64.0639,156.591 66.2305,156.758 68.5,156C 67.5494,155.282 67.3828,154.449 68,153.5C 69.8886,154.097 71.7219,154.431 73.5,154.5C 74.2975,154.043 74.6309,153.376 74.5,152.5C 75.1667,152.5 75.5,152.833 75.5,153.5C 79.7548,158.359 81.4215,164.025 80.5,170.5C 77.1066,170.062 74.1066,170.895 71.5,173C 76.4968,172.144 81.4968,172.478 86.5,174C 87.1634,175.518 88.1634,176.685 89.5,177.5C 89.5858,176.504 89.2524,175.671 88.5,175C 90.726,169.234 90.726,163.401 88.5,157.5C 89.1499,157.804 89.8165,158.137 90.5,158.5C 92.0323,155.25 93.8656,154.916 96,157.5C 97.4737,154.675 98.9737,154.342 100.5,156.5C 102.144,154.355 103.977,152.355 106,150.5C 107.892,150.777 109.225,151.777 110,153.5C 110.333,152.5 110.667,151.5 111,150.5C 111.654,151.696 112.154,151.696 112.5,150.5C 110.252,149.44 109.252,147.44 109.5,144.5C 109.833,144.5 110.167,144.5 110.5,144.5C 110.833,145.833 111.167,145.833 111.5,144.5C 117.817,146.494 124.15,148.494 130.5,150.5C 131.463,153.283 132.63,155.95 134,158.5C 142.984,166.317 151.484,174.651 159.5,183.5C 157.479,184.855 155.812,186.521 154.5,188.5C 151.525,188.713 148.858,189.713 146.5,191.5C 147.852,192.896 149.519,193.563 151.5,193.5C 156.697,192.236 161.697,190.403 166.5,188C 163.606,185.04 163.939,184.206 167.5,185.5C 167.833,184.833 168.167,184.167 168.5,183.5C 169.833,184.167 171.167,184.833 172.5,185.5C 172.833,184.833 173.167,184.167 173.5,183.5C 175.331,184.929 177.331,185.429 179.5,185C 175.619,182.893 171.619,181.059 167.5,179.5C 159.848,171.348 152.015,163.348 144,155.5C 143.51,154.207 143.343,152.873 143.5,151.5C 142.711,150.085 142.044,148.585 141.5,147C 142.406,143.887 144.239,142.721 147,143.5C 147.278,142.584 147.778,141.918 148.5,141.5 Z"/></g>
<g><path style="opacity:1" fill="#5e5764" d="M 142.5,151.5 C 142.5,152.833 142.5,154.167 142.5,155.5C 140.219,155.923 138.552,155.256 137.5,153.5C 138.885,152.426 140.051,151.093 141,149.5C 141.278,150.416 141.778,151.082 142.5,151.5 Z"/></g>
<g><path style="opacity:1" fill="#454049" d="M 137.5,153.5 C 136.033,154.292 134.7,154.292 133.5,153.5C 132.215,151.423 131.882,149.423 132.5,147.5C 134.5,147.167 136.5,146.833 138.5,146.5C 138.552,148.903 138.219,151.236 137.5,153.5 Z"/></g>
<g><path style="opacity:0.004" fill="#000000" d="M 24.5,163.5 C 23.8333,162.167 23.8333,162.167 24.5,163.5 Z"/></g>
<g><path style="opacity:0.995" fill="#8e873c" d="M 135.5,157.5 C 137.628,156.371 139.961,156.204 142.5,157C 149.364,164.198 156.53,171.032 164,177.5C 164.667,179.167 164.667,180.833 164,182.5C 163.282,183.451 162.449,183.617 161.5,183C 153.506,173.832 144.84,165.332 135.5,157.5 Z"/></g>
<g><path style="opacity:1" fill="#111111" d="M 139.5,179.5 C 138.244,179.539 137.244,179.039 136.5,178C 124.762,177.936 113.096,177.27 101.5,176C 113.489,176.076 125.489,176.41 137.5,177C 138.381,177.708 139.047,178.542 139.5,179.5 Z"/></g>
<g><path style="opacity:1" fill="#121212" d="M 81.5,179.5 C 80.6009,178.528 79.4343,177.862 78,177.5C 74.0577,178.809 70.0577,179.809 66,180.5C 64.5,180.333 63,180.167 61.5,180C 61.0426,179.586 60.7093,179.086 60.5,178.5C 63.3033,176.729 66.3033,175.896 69.5,176C 60.4987,178.791 60.4987,179.791 69.5,179C 73.3887,177.573 77.2221,176.073 81,174.5C 81.4935,176.134 81.6602,177.801 81.5,179.5 Z"/></g>
<g><path style="opacity:0.982" fill="#171616" d="M 89.5,177.5 C 91.099,177.232 92.4324,177.566 93.5,178.5C 90.8875,179.095 90.8875,179.929 93.5,181C 91.1311,181.536 89.1311,182.703 87.5,184.5C 90.5606,187.784 94.2272,189.284 98.5,189C 99.056,188.617 99.3893,188.117 99.5,187.5C 100.525,187.897 100.692,188.563 100,189.5C 98.5589,190.26 97.0589,190.926 95.5,191.5C 91.8333,189.333 88.1667,187.167 84.5,185C 83.2423,183.259 82.2423,181.426 81.5,179.5C 83.1733,180.343 84.34,181.676 85,183.5C 86.918,182.458 88.7513,181.292 90.5,180C 89.7476,179.329 89.4142,178.496 89.5,177.5 Z"/></g>
<g><path style="opacity:1" fill="#66605e" d="M 93.5,178.5 C 108.855,182.202 124.522,183.369 140.5,182C 144.554,183.941 144.22,184.775 139.5,184.5C 125.663,184.551 111.663,183.884 97.5,182.5C 96.5,182.667 95.5,182.833 94.5,183C 96.0375,184.707 97.7041,186.207 99.5,187.5C 99.3893,188.117 99.056,188.617 98.5,189C 94.2272,189.284 90.5606,187.784 87.5,184.5C 89.1311,182.703 91.1311,181.536 93.5,181C 90.8875,179.929 90.8875,179.095 93.5,178.5 Z"/></g>
<g><path style="opacity:0.724" fill="#181818" d="M 139.5,184.5 C 126.824,185.573 114.157,185.573 101.5,184.5C 100.5,184.667 99.5,184.833 98.5,185C 99.2524,185.671 99.5858,186.504 99.5,187.5C 97.7041,186.207 96.0375,184.707 94.5,183C 95.5,182.833 96.5,182.667 97.5,182.5C 111.663,183.884 125.663,184.551 139.5,184.5 Z"/></g>
<g><path style="opacity:1" fill="#2d2b2a" d="M 93.5,178.5 C 103.789,179.744 114.122,180.411 124.5,180.5C 129.678,180.499 134.678,180.166 139.5,179.5C 143.831,181.165 147.164,183.998 149.5,188C 145.989,187.452 142.656,186.286 139.5,184.5C 144.22,184.775 144.554,183.941 140.5,182C 124.522,183.369 108.855,182.202 93.5,178.5 Z"/></g>
<g><path style="opacity:0.999" fill="#676160" d="M 154.5,188.5 C 156.552,187.29 158.718,186.29 161,185.5C 162.404,185.509 163.57,186.009 164.5,187C 160.031,190.405 155.031,191.739 149.5,191C 151.491,190.626 153.158,189.793 154.5,188.5 Z"/></g>
<g><path style="opacity:1" fill="#111010" d="M 210.5,187.5 C 210.5,188.167 210.833,188.5 211.5,188.5C 212.167,188.5 212.5,188.833 212.5,189.5C 213.167,189.5 213.833,189.5 214.5,189.5C 215.167,189.5 215.5,189.833 215.5,190.5C 215.5,190.833 215.5,191.167 215.5,191.5C 204.489,191.452 193.489,191.119 182.5,190.5C 181.4,189.442 180.066,188.608 178.5,188C 180.289,187.48 181.956,187.813 183.5,189C 192.167,189.667 200.833,189.667 209.5,189C 202.167,188.667 194.833,188.333 187.5,188C 195.159,187.5 202.826,187.334 210.5,187.5 Z"/></g>
<g><path style="opacity:1" fill="#635d5b" d="M 182.5,190.5 C 193.489,191.119 204.489,191.452 215.5,191.5C 215.631,192.239 215.464,192.906 215,193.5C 211.888,192.294 208.722,192.294 205.5,193.5C 197.62,193.038 189.953,192.038 182.5,190.5 Z"/></g>
<g><path style="opacity:0.992" fill="#111111" d="M 187.5,198.5 C 183.171,197.89 179.171,196.39 175.5,194C 179.747,194.805 183.747,196.305 187.5,198.5 Z"/></g>
<g><path style="opacity:0.004" fill="#000000" d="M 216.5,204.5 C 216.833,204.5 217.167,204.5 217.5,204.5C 217.315,205.17 216.981,205.17 216.5,204.5 Z"/></g>
<g><path style="opacity:0.004" fill="#000000" d="M 205.5,209.5 C 206.167,209.5 206.833,209.5 207.5,209.5C 208.167,209.5 208.5,209.833 208.5,210.5C 206.388,212.771 203.721,214.104 200.5,214.5C 200.5,214.167 200.5,213.833 200.5,213.5C 201.5,213.167 202.167,212.5 202.5,211.5C 203.492,211.672 204.158,211.338 204.5,210.5C 205.167,210.5 205.5,210.167 205.5,209.5 Z"/></g>
<g><path style="opacity:0.02" fill="#2f2f2f" d="M 72.5,148.5 C 73.1667,148.5 73.5,148.833 73.5,149.5C 74.1098,150.391 74.4431,151.391 74.5,152.5C 74.6309,153.376 74.2975,154.043 73.5,154.5C 71.7219,154.431 69.8886,154.097 68,153.5C 67.3828,154.449 67.5494,155.282 68.5,156C 66.2305,156.758 64.0639,156.591 62,155.5C 61.276,157.959 59.9427,158.959 58,158.5C 54.5717,159.824 51.405,161.657 48.5,164C 46.8659,164.494 45.1992,164.66 43.5,164.5C 43.5086,166.308 43.0086,167.975 42,169.5C 41.6667,169.167 41.3333,168.833 41,168.5C 36.6397,169.697 33.8063,172.364 32.5,176.5C 31.325,176.281 30.325,176.614 29.5,177.5C 28.9479,179.333 28.1145,181 27,182.5C 26.2825,181.549 25.4491,181.383 24.5,182C 25.3567,182.689 26.0233,183.522 26.5,184.5C 22.152,194.382 24.152,202.882 32.5,210C 32.1667,210.333 31.8333,210.667 31.5,211C 35.7325,211.988 39.2325,214.155 42,217.5C 42.414,217.043 42.914,216.709 43.5,216.5C 44.3333,217.5 45.1667,218.5 46,219.5C 47.904,218.898 49.7373,219.398 51.5,221C 55.5048,221.145 59.3381,221.978 63,223.5C 68.3682,222.886 73.5348,223.886 78.5,226.5C 80.3817,225.907 82.2151,225.24 84,224.5C 87.6265,224.904 91.4599,224.904 95.5,224.5C 98.8333,224.667 102.167,224.833 105.5,225C 108.622,226.904 111.955,227.571 115.5,227C 114.167,226.667 112.833,226.333 111.5,226C 120.647,222.739 129.647,222.239 138.5,224.5C 134.089,224.936 129.756,224.936 125.5,224.5C 121.171,225.833 116.838,227.166 112.5,228.5C 109.678,228.448 107.011,227.781 104.5,226.5C 97.3629,227.559 90.1963,227.559 83,226.5C 82.6667,227.167 82.3333,227.833 82,228.5C 76.8267,228.743 72.3267,228.077 68.5,226.5C 64.0726,227.829 59.7392,227.663 55.5,226C 56.6956,225.346 56.6956,224.846 55.5,224.5C 50.6519,225.274 45.9852,224.441 41.5,222C 42.1667,221.667 42.8333,221.333 43.5,221C 42.1667,220.333 40.8333,219.667 39.5,219C 40.6039,217.869 40.2705,217.035 38.5,216.5C 39.0164,217.758 38.3497,218.758 36.5,219.5C 33.421,218.252 30.7543,216.419 28.5,214C 28.9574,213.586 29.2907,213.086 29.5,212.5C 28.4783,211.646 27.6449,210.646 27,209.5C 24.3095,210.459 23.9762,209.792 26,207.5C 26.7175,208.451 27.5509,208.617 28.5,208C 26.6674,206.212 24.6674,206.046 22.5,207.5C 20.332,205.196 19.4986,202.529 20,199.5C 21.2465,201.881 21.5798,201.547 21,198.5C 20.3333,195.833 19.6667,195.833 19,198.5C 17.5167,195.298 17.1834,191.964 18,188.5C 19.0438,186.285 19.7105,183.952 20,181.5C 27.6648,169.837 37.9981,161.504 51,156.5C 53.0777,157.943 53.9111,157.276 53.5,154.5C 55.2624,154.357 56.9291,154.691 58.5,155.5C 58.6383,152.64 60.3049,151.974 63.5,153.5C 64.3857,152.675 64.719,151.675 64.5,150.5C 67.3408,150.44 70.0075,149.774 72.5,148.5 Z"/></g>
<g><path style="opacity:0.004" fill="#000000" d="M 18.5,216.5 C 17.8333,217.167 17.8333,217.167 18.5,216.5 Z"/></g>
<g><path style="opacity:0.039" fill="#353535" d="M 194.5,199.5 C 198.915,199.305 203.249,199.805 207.5,201C 205.95,203.459 203.95,204.126 201.5,203C 200.366,204.016 200.699,204.683 202.5,205C 201.069,205.465 199.903,206.299 199,207.5C 198.667,206.833 198.333,206.167 198,205.5C 195.913,206.794 193.746,207.961 191.5,209C 192.833,209.667 192.833,210.333 191.5,211C 190.167,211 188.833,211 187.5,211C 187.833,211.333 188.167,211.667 188.5,212C 187.324,213.914 186.324,213.748 185.5,211.5C 185.762,213.132 184.762,214.299 182.5,215C 180.793,215.195 179.126,215.195 177.5,215C 178.833,215.667 178.833,216.333 177.5,217C 175.765,217.651 174.098,217.485 172.5,216.5C 171.784,219.153 169.784,219.82 166.5,218.5C 164.506,221.568 161.839,222.235 158.5,220.5C 157.304,220.846 157.304,221.346 158.5,222C 157.127,222.875 155.627,223.375 154,223.5C 150.988,222.131 147.821,221.464 144.5,221.5C 145.842,220.207 147.509,219.374 149.5,219C 148.062,218.781 146.729,218.281 145.5,217.5C 146.908,216.757 148.241,215.923 149.5,215C 149.167,214.667 148.833,214.333 148.5,214C 149.448,213.517 150.448,213.351 151.5,213.5C 151.281,214.675 151.614,215.675 152.5,216.5C 153.298,214.922 153.798,213.256 154,211.5C 155.714,212.925 157.047,212.592 158,210.5C 158.923,211.759 159.757,213.092 160.5,214.5C 162.149,213.294 163.649,211.961 165,210.5C 166.955,211.453 168.622,212.787 170,214.5C 171.396,212.473 173.062,212.14 175,213.5C 177.227,211.801 179.727,210.468 182.5,209.5C 183.086,209.709 183.586,210.043 184,210.5C 185.333,209.167 186.667,207.833 188,206.5C 188.333,206.833 188.667,207.167 189,207.5C 189.918,205.368 191.251,204.701 193,205.5C 194.236,203.462 196.069,202.295 198.5,202C 197.142,201.066 195.808,200.232 194.5,199.5 Z"/></g>
<g><path style="opacity:0.004" fill="#000000" d="M 192.5,216.5 C 193.757,217.623 193.424,218.289 191.5,218.5C 191.833,217.833 192.167,217.167 192.5,216.5 Z"/></g>
<g><path style="opacity:0.004" fill="#000000" d="M 20.5,218.5 C 19.8333,219.167 19.8333,219.167 20.5,218.5 Z"/></g>
<g><path style="opacity:0.004" fill="#000000" d="M 22.5,220.5 C 21.8333,221.167 21.8333,221.167 22.5,220.5 Z"/></g>
<g><path style="opacity:0.004" fill="#000000" d="M 24.5,222.5 C 24.8333,222.5 25.1667,222.5 25.5,222.5C 25.3147,223.17 24.9813,223.17 24.5,222.5 Z"/></g>
<g><path style="opacity:0.004" fill="#000000" d="M 27.5,224.5 C 27.8333,224.5 28.1667,224.5 28.5,224.5C 28.3147,225.17 27.9813,225.17 27.5,224.5 Z"/></g>
<g><path style="opacity:0.004" fill="#000000" d="M 36.5,228.5 C 36.8333,228.5 37.1667,228.5 37.5,228.5C 37.3147,229.17 36.9813,229.17 36.5,228.5 Z"/></g>
<g><path style="opacity:0.02" fill="#444444" d="M 138.5,224.5 C 134.901,228.416 130.735,229.082 126,226.5C 124.278,226.611 124.112,227.111 125.5,228C 117.697,230.255 110.031,230.422 102.5,228.5C 91.7883,228.91 80.7883,229.077 69.5,229C 68.5,228.667 67.5,228.333 66.5,228C 67.4158,227.722 68.0825,227.222 68.5,226.5C 72.3267,228.077 76.8267,228.743 82,228.5C 82.3333,227.833 82.6667,227.167 83,226.5C 90.1963,227.559 97.3629,227.559 104.5,226.5C 107.011,227.781 109.678,228.448 112.5,228.5C 116.838,227.166 121.171,225.833 125.5,224.5C 129.756,224.936 134.089,224.936 138.5,224.5 Z"/></g>
<g><path style="opacity:0.004" fill="#000000" d="M 154.5,228.5 C 155.239,228.369 155.906,228.536 156.5,229C 155.437,230.188 154.103,230.688 152.5,230.5C 152.5,230.167 152.5,229.833 152.5,229.5C 153.492,229.672 154.158,229.338 154.5,228.5 Z"/></g>
<g><path style="opacity:0.004" fill="#000000" d="M 144.5,230.5 C 145.833,230.5 147.167,230.5 148.5,230.5C 147.486,231.674 146.153,232.34 144.5,232.5C 144.5,231.833 144.5,231.167 144.5,230.5 Z"/></g>
<g><path style="opacity:0.004" fill="#000000" d="M 114.5,235.5 C 114.5,235.167 114.5,234.833 114.5,234.5C 123.833,234.833 123.833,235.167 114.5,235.5 Z"/></g>
<g><path style="opacity:0.004" fill="#000000" d="M 84.5,236.5 C 83.8333,237.167 83.8333,237.167 84.5,236.5 Z"/></g>
<g><path style="opacity:0.004" fill="#000000" d="M 99.5,236.5 C 99.8333,236.5 100.167,236.5 100.5,236.5C 100.315,237.17 99.9813,237.17 99.5,236.5 Z"/></g>
<g><path style="opacity:0.004" fill="#000000" d="M 102.5,236.5 C 102.833,236.5 103.167,236.5 103.5,236.5C 103.315,237.17 102.981,237.17 102.5,236.5 Z"/></g>
</svg>
