<svg xmlns="http://www.w3.org/2000/svg" width="500" height="157" viewBox="0 0 375 118"><path d="M88.5 14.281a103 103 0 0 1 3.75 3.758c1.516.656 3.012 1.148 4.598 1.598 1.925.902 2.62 1.804 3.652 3.664.586 4.664.234 9.234-.984 13.762-.7 2.953-.407 4.355 1.171 6.953 1.149 1.609 1.79 2.445 3.563 3.336 1.762.12 3.496.086 5.262.039 2.238-.04 2.238-.04 4.664.105 2.683.047 4.758-.082 7.324-.898 2.078-2.035 3.535-4.164 5.121-6.602A33.9 33.9 0 0 1 143.25 27.06c3.102-.528 3.992-.34 6.61 1.406 2.097 2.043 2.347 2.648 2.624 5.59-.027 4.633-1.757 8.96-3.234 13.297 5.96-3.387 5.96-3.387 11.719-7.094 1.781-1.176 1.781-1.176 3.281-1.176l.094-1.41.656-1.594 1.883-.605c3.383-1.164 6.129-2.973 9.133-4.891 4.93-3.086 9.793-5.934 15.234-8.035.836-.324 1.672-.649 2.531-.985 8.024-1.527 15.52-.878 22.469 3.622 1.734 1.312 3.371 2.687 5 4.128.602.532 1.203 1.06 1.824 1.606a357 357 0 0 1 7.606 6.988c6.054 5.657 11.414 8.996 19.875 8.84 3.289-.219 6.187-.48 8.945-2.402 1.484-2.38 2.207-4.84 3-7.516a371 371 0 0 1 2.25-6.012c2.469-.066 4.938-.105 7.406-.14.703-.02 1.406-.04 2.13-.059l2.038-.023 1.88-.035c.51.086 1.019.168 1.546.257.496.743.988 1.489 1.5 2.254.465-.183.93-.363 1.41-.55 17.156-6.508 38.735-10.25 56.34-3.208.824.31 1.652.614 2.504.93 3.98 1.563 7.574 3.262 10.996 5.836.742-1.738 1.484-3.473 2.25-5.262h18c.035 2.016.074 4.036.113 6.114q.06 2.94.125 5.883.043 2.038.078 4.078.055 2.936.125 5.87l.024 1.833c.086 3.21.441 5.578 1.785 8.539.2 2.726.2 2.726.188 5.683l.011 2.965c-.191 2.516-.594 3.477-1.699 5.633a88 88 0 0 0-.469 5.45c-.094 1.675-.187 3.347-.281 5.073h-12V84.93h-9v3.007H339c-.496-1.242-.988-2.48-1.5-3.757-.469-.047-.941-.094-1.426-.14l-1.855-.192c-.61-.059-1.219-.121-1.848-.184-1.621-.238-1.621-.238-3.121-.988v5.261h-12v-6.765c-6.434.25-12.871.496-19.5.75.496 1.242.988 2.48 1.5 3.758v2.257q-3.328.03-6.656.047c-.633.004-1.262.012-1.914.02-.602 0-1.207.004-1.832.008-.836.004-.836.004-1.688.011-1.41-.085-1.41-.085-2.91-.84a71 71 0 0 0-5.39 2.493c-.536.265-1.067.535-1.618.812-3.816 1.973-7.367 4.211-10.898 6.657-7.934 5.425-14.239 7.71-24.094 6.574-8.625-2.067-15.937-6.172-22.219-12.399-2.133-2.03-2.133-2.03-4.855-2.843-1.633.191-1.633.191-3.285.578-9.313 1.894-17.082-.403-25.141-4.875l-2.25-1.504-1.516 1.457c-8.113 7.633-15.457 13.12-26.937 13.105-.692 0-1.383 0-2.098.004-5.43-.086-10.164-.992-15.32-2.637-2.117-.765-2.117-.765-4.379-.656l-.562 2.489c-.938 2.773-.938 2.773-2.297 4.277-1.641.75-1.641.75-3.516.75-2.883-1.156-4.266-3.285-5.625-6.012a206 206 0 0 1-.187-4.086c-.227-3.281-.227-3.281-2.11-5.875-3.91-1-6.617-.648-10.133 1.207-4.445 2.778-8.652 5.899-12.836 9.051-3.543 2.46-7.32 2.566-11.484 1.957-5.691-2.305-8.723-6.594-11.25-12.027A69 69 0 0 1 72 78.918a229 229 0 0 0-6.156 6.324c-9.063 9.582-19.203 18.281-32.918 18.73-.797.016-.797.016-1.614.028-.757.02-.757.02-1.53.035-4.13-.043-7.106-1.055-10.18-3.836-.36-.433-.715-.87-1.086-1.316-.368-.434-.739-.867-1.118-1.313-2.296-3.488-2.046-7.87-1.648-11.89 1.367-5.723 4.418-10.578 9-14.278 2.336-1.02 3.355-.968 6-.754 2.145 1.329 3.375 2.254 4.5 4.512.387 3.164-.203 5.11-1.594 7.89-1.226 2.552-1.457 3.114-.89 6.013.816 1.785.816 1.785 1.734 2.632 2.406.48 3.96.317 6.09-.937 4.976-3.738 10.074-8.324 12.66-14.094-.672-.281-.672-.281-1.36-.566-2.671-1.532-3.617-3.285-4.78-6.106-2.188-8.633-.672-17.285 3.656-24.898 2.539-4.004 5.437-7.649 8.484-11.274.352-.418.703-.836 1.063-1.27 17.89-21.343 17.89-21.343 28.187-18.269M195 74.406c2.203 2.36 3.598 3.688 6.945 3.832.903-.011.903-.011 1.82-.027.606-.004 1.212-.012 1.837-.02.46-.007.921-.015 1.398-.027l-1.781-2.207c-.332-.41-.66-.82-1.004-1.242-1.664-1.824-2.563-1.817-5.09-1.953-2.668-.149-2.668-.149-4.125 1.644m0 0" style="stroke:none;fill-rule:nonzero;fill:#4ba79d;fill-opacity:1"/><path d="M88.5 14.281a103 103 0 0 1 3.75 3.758c1.516.656 3.012 1.148 4.598 1.598 1.925.902 2.62 1.804 3.652 3.664.586 4.664.234 9.234-.984 13.762-.7 2.953-.407 4.355 1.171 6.953 1.149 1.609 1.79 2.445 3.563 3.336 1.762.12 3.496.086 5.262.039 2.238-.04 2.238-.04 4.664.105 2.683.047 4.758-.082 7.324-.898 2.078-2.035 3.535-4.164 5.121-6.602A33.9 33.9 0 0 1 143.25 27.06c3.102-.528 3.992-.34 6.61 1.406 2.046 1.996 2.335 2.64 2.671 5.496-.086 6.586-3.015 13.797-6.695 19.16-6.406 10.297-11.848 23.313-11.54 35.52.048 8.808.048 8.808-2.905 12.074-1.641.75-1.641.75-3.516.75-2.883-1.156-4.266-3.285-5.625-6.012a206 206 0 0 1-.187-4.086c-.227-3.281-.227-3.281-2.11-5.875-3.91-1-6.617-.648-10.133 1.207-4.445 2.778-8.652 5.899-12.836 9.051-3.543 2.46-7.32 2.566-11.484 1.957-5.691-2.305-8.723-6.594-11.25-12.027A69 69 0 0 1 72 78.918a229 229 0 0 0-6.156 6.324c-9.063 9.582-19.203 18.281-32.918 18.73-.797.016-.797.016-1.614.028-.757.02-.757.02-1.53.035-4.13-.043-7.106-1.055-10.18-3.836-.36-.433-.715-.87-1.086-1.316-.368-.434-.739-.867-1.118-1.313-2.296-3.488-2.046-7.87-1.648-11.89 1.367-5.723 4.418-10.578 9-14.278 2.336-1.02 3.355-.968 6-.754 2.145 1.329 3.375 2.254 4.5 4.512.387 3.164-.203 5.11-1.594 7.89-1.226 2.552-1.457 3.114-.89 6.013.816 1.785.816 1.785 1.734 2.632 2.406.48 3.96.317 6.09-.937 4.976-3.738 10.074-8.324 12.66-14.094-.672-.281-.672-.281-1.36-.566-2.671-1.532-3.617-3.285-4.78-6.106-2.188-8.633-.672-17.285 3.656-24.898 2.539-4.004 5.437-7.649 8.484-11.274.352-.418.703-.836 1.063-1.27 17.89-21.343 17.89-21.343 28.187-18.269m0 0" style="stroke:none;fill-rule:nonzero;fill:#714a9d;fill-opacity:1"/><path d="M318 30.816h17.25c.574 2.434 1.145 4.868 1.734 7.375q.521 2.204 1.047 4.41c.156.665.317 1.333.48 2.02.5 2.031 1.051 4.047 1.614 6.063.762 2.773 1.457 5.55 2.094 8.351l.523 2.293q1.138 5.035 2.258 10.074c5.313-18.945 5.313-18.945 8.758-38.285.242-1.55.242-1.55.992-2.3a72 72 0 0 1 4.012-.075c.808.004 1.617.004 2.453.008 1.277.008 1.277.008 2.582.02l2.59.007q3.18.017 6.363.04l.047 2.562q.084 4.716.191 9.434.043 2.038.078 4.078.055 2.936.125 5.87l.024 1.833c.086 3.21.441 5.578 1.785 8.539.2 2.726.2 2.726.188 5.683.007 1.47.007 1.47.011 2.965-.191 2.516-.594 3.477-1.699 5.633a88 88 0 0 0-.469 5.45l-.281 5.073h-12V84.93h-9v3.007H339c-.496-1.242-.988-2.48-1.5-3.757-.469-.047-.941-.094-1.426-.14l-1.855-.192-1.848-.184c-1.621-.238-1.621-.238-3.121-.988v5.261h-12zm0 0" style="stroke:none;fill-rule:nonzero;fill:#6a4a9c;fill-opacity:1"/><path d="M339 29.313c.816.296 1.633.597 2.477.902 4.402 1.703 8.082 3.672 11.773 6.613-.453 4.774-1.223 9.332-2.3 14-.15.66-.298 1.317-.45 1.996q-.708 3.112-1.422 6.223-.482 2.127-.965 4.254c-.785 3.453-1.574 6.902-2.363 10.355-1.484-2.23-1.91-3.547-2.473-6.117-.175-.781-.351-1.562-.53-2.371l-.56-2.55a700 700 0 0 0-5.566-23.11l-.547-2.133c-.238-.926-.238-.926-.484-1.867-.34-1.688-.34-1.688-.34-4.692H318v50.356c-6.93.25-13.86.496-21 .75l-1.895-5.258c-.214-.594-.43-1.187-.652-1.805q-1.622-4.5-3.238-9a1609 1609 0 0 0-6.14-16.867l-.962-2.601a622 622 0 0 0-1.773-4.739c-.387-1.05-.387-1.05-.781-2.125-.223-.597-.45-1.195-.68-1.812-.43-1.863-.332-2.88.371-4.645 1.48-.847 1.48-.847 3.469-1.504l2.238-.742c16.305-4.875 35.691-8.039 52.043-1.512m0 0" style="stroke:none;fill-rule:nonzero;fill:#28979b;fill-opacity:1"/><path d="M264.75 30.816h15l2.21 6.739c2.79 8.425 5.774 16.777 8.802 25.12q1.293 3.565 2.582 7.134.824 2.286 1.656 4.574c.254.707.508 1.41.77 2.133 1.39 3.832 1.39 3.832 2.902 7.617.578 1.547.578 1.547.578 3.805h-13.5c-1.133-3.973-2.105-7.993-3-12.028-6.93.25-13.86.496-21 .754-.988 3.223-1.98 6.445-3 9.77-.75.75-.75.75-3.285.824-1.047-.004-2.09-.016-3.137-.028-.531 0-1.066-.003-1.617-.007q-1.98-.017-3.961-.04c.504-3.851 1.605-7.308 2.879-10.956.207-.614.418-1.227.633-1.856q1.006-2.917 2.02-5.836 1.001-2.906 2-5.812c.413-1.2.831-2.403 1.245-3.602 2.293-6.625 4.446-13.262 6.368-20.008.23-.8.23-.8.468-1.617.133-.473.27-.945.407-1.43.574-1.78 1.289-3.515 1.98-5.25m0 0" style="stroke:none;fill-rule:nonzero;fill:#6e499c;fill-opacity:1"/><path d="M219 33.07c3.121 2.774 6.5 6.282 6.895 10.63q-.073 2.197-.145 4.402H214.5c-.441-1.23-.441-1.23-.89-2.489-1.157-2.718-2.376-3.793-5.11-5.027-3.348-1.117-7.11-1.613-10.414-.106-1.383.926-2.656 1.93-3.836 3.114-.11 2.527-.055 4.347.75 6.761a56 56 0 0 0 5.672 1.41c4.586 1 9.105 2.098 13.594 3.477 1.418.43 1.418.43 2.867.867 4.758 1.84 7.613 4.067 10.117 8.528 1.371 4.441 1.52 9.379-.375 13.668-2.719 4.777-7.305 8.394-12.375 10.382-9.543 1.922-17.457.72-26.102-3.37-3.18-2.196-4.27-5.59-5.539-9.126l-.78-2.14c-.579-1.899-.579-1.899-.579-4.153h12v3.758l2.25.75 2.25 2.258c2.516.84 4.766 1.078 7.406 1.313 1.367.136 1.367.136 2.762.27 2.848-.09 4.102-.602 6.332-2.337 1.168-2.344 1.02-4.187.75-6.762-2.836-2.222-5.977-2.941-9.422-3.714-16.777-4.024-16.777-4.024-22.031-10.989-1.543-5.004-1.785-10.808.328-15.691 2.59-4.328 7.238-7.527 11.988-9.082 7.946-1.512 15.934-1.024 22.887 3.398m0 0" style="stroke:none;fill-rule:nonzero;fill:#6d4a9c;fill-opacity:1"/><path d="M88.5 14.281c2.16 1.703 3.445 2.887 4.36 5.496l.14 1.266-2.035 1.27c-10.184 6.84-16.09 20.554-21.828 30.953-.242.445-.489.886-.742 1.343q-1.8 3.264-3.575 6.54c-3.082 5.644-6.43 10.976-10.07 16.265-3.305-1.21-4.812-2.25-6.75-5.262-2.785-6.558-2.355-14.882-.027-21.527 2.765-6.309 6.875-11.566 11.277-16.805.352-.418.703-.836 1.063-1.27C78.16 11.259 78.16 11.259 88.5 14.282m0 0" style="stroke:none;fill-rule:nonzero;fill:#76c3a1;fill-opacity:1"/><path d="M83.25 60.129c2.57 1.2 3.5 1.793 4.5 4.508.188.867.371 1.738.563 2.629 1.445 6.004 4.25 12.445 9.3 16.214 2.48 1.247 4.719 1.434 7.387.7 5.078-2.235 7.523-5.606 10.64-10.102.903-1.266 1.801-2.535 2.704-3.8.625-.883.625-.883 1.258-1.786 1.32-1.84 2.707-3.613 4.148-5.36l2.25.755c-.957 7.77-1.953 15.535-3 23.297-.57-.23-1.14-.465-1.727-.707-3.101-1.22-5.64-2.067-8.933-1.02-4.52 2.086-8.344 4.996-12.176 8.133-4.102 3.324-7.453 4.582-12.695 4.441-4.344-.715-7.406-3.133-10.059-6.57-2.781-4.398-5.625-9.418-5.258-14.746.688-2.649 1.703-4.184 3.364-6.348l1.625-2.144c.53-.688 1.062-1.375 1.609-2.082q1.313-1.759 2.625-3.524.938-1.247 1.875-2.488m0 0" style="stroke:none;fill-rule:nonzero;fill:#6ebba0;fill-opacity:1"/><path d="M97.5 40.586H99c.914 1.289.914 1.289 1.875 2.96 1.262 2.34 1.262 2.34 3.375 3.806 1.25.062 2.504.078 3.754.07.742 0 1.48-.004 2.242-.004 1.164-.012 1.164-.012 2.348-.02l2.363-.011q2.9-.012 5.793-.035c-.574 3.546-1.969 5.773-4.172 8.546-.336.43-.676.86-1.023 1.301-3.399 4.239-6.563 8.094-11.82 9.88-2.485-.188-2.485-.188-4.594-1.74-3.082-4.144-3.383-8.07-3.329-13.058q-.01-.813-.015-1.648c.012-3.621.566-6.613 1.703-10.047m0 0" style="stroke:none;fill-rule:nonzero;fill:#6bbaa1;fill-opacity:1"/><path d="M329.25 44.344c1.39 2.093 1.832 3.183 2.36 5.554.148.668.3 1.332.452 2.016.157.715.313 1.434.473 2.172a1006.445 1006.445 0 0 1 1.531 6.926c.524 2.39 1.059 4.777 1.59 7.164q.505 2.28 1.004 4.558l.485 2.16c.144.672.293 1.34.44 2.032l.392 1.773c.293 1.852.32 3.606.273 5.48a577 577 0 0 1-3.656-.331c-.68-.059-1.356-.121-2.059-.184-1.785-.238-1.785-.238-3.285-.988zm0 0" style="stroke:none;fill-rule:nonzero;fill:#25939b;fill-opacity:1"/><path d="M360 45.848h.75V84.93h-9c.809-6.766 2.074-13.172 3.773-19.758 1.653-6.406 3.082-12.856 4.477-19.324m0 0" style="stroke:none;fill-rule:nonzero;fill:#1e919b;fill-opacity:1"/><path d="M271.5 45.094h1.5c2.234 6.972 4.313 13.918 6 21.047h-13.5c.496-3.473.883-6.04 1.973-9.227l.71-2.11.739-2.144.75-2.21q.908-2.679 1.828-5.356m0 0" style="stroke:none;fill-rule:nonzero;fill:#3a969c;fill-opacity:1"/><path d="M85.5 75.91c2.777 1.547 3.586 2.488 4.547 5.543-.059 3.45-.645 4.77-3.047 7.234-2.05.805-3.812 1.028-6 .754-2.145-1.328-3.375-2.254-4.5-4.511-.324-2.91-.238-4.153 1.406-6.625 2.477-2.555 4.078-2.739 7.594-2.395m0 0" style="stroke:none;fill-rule:nonzero;fill:#ee7143;fill-opacity:1"/><path d="M138.75 35.652c2.883.543 4.063 1.211 6 3.43 1.11 3.102 1.09 5.273-.281 8.27-2.48 1.894-4.063 2.007-7.121 1.808-1.598-.308-1.598-.308-3.52-1.433-1.508-2.63-1.738-4.98-1.078-7.891 1.832-2.594 2.871-3.594 6-4.184m0 0" style="stroke:none;fill-rule:nonzero;fill:#5dbbc1;fill-opacity:1"/><path d="M140.25 43.594h4.5c-.562 3.57-.562 3.57-2.25 5.258-2.277.375-4.473.363-6.75 0-1.547-1.5-1.547-1.5-2.25-3.004 2.25-1.504 2.25-1.504 4.5-1.504v1.504h2.25zm0 0" style="stroke:none;fill-rule:nonzero;fill:#33b1d0;fill-opacity:1"/><path d="M89.25 80.422H90c-.602 6.25-.602 6.25-3 8.266-2.027.472-3.906.613-6 .753l1.5-1.504V85.68l.75-.75c-.496-.246-.988-.496-1.5-.75v-2.258h3.75v2.258c1.238-.25 2.477-.496 3.75-.754zm0 0" style="stroke:none;fill-rule:nonzero;fill:#e08b86;fill-opacity:1"/><path d="M372.75 59.375c2.7 2.703 2.41 5.746 2.438 9.348l.058 3.004c-.246 2.68-.246 2.68-2.496 5.687zm0 0" style="stroke:none;fill-rule:nonzero;fill:#18909a;fill-opacity:1"/><path d="M76.5 80.422c.496.992.988 1.984 1.5 3.004 1.238-.496 2.477-.992 3.75-1.504v2.258c.742.246 1.484.496 2.25.75l-1.5 1.504v2.254c-2.23-.243-3.445-.465-5.11-2.02-1.12-2.188-1.054-3.82-.89-6.246m0 0" style="stroke:none;fill-rule:nonzero;fill:#ee7f6c;fill-opacity:1"/><path d="M165 99.96h3v7.517c-1.238-.247-2.477-.497-3.75-.75-.074-4.625-.074-4.625 0-6.012.246-.25.496-.496.75-.754m0 0" style="stroke:none;fill-rule:nonzero;fill:#914a9e;fill-opacity:1"/><path d="M165 23.3h3v7.516c-1.238-.25-2.477-.496-3.75-.753-.074-4.622-.074-4.622 0-6.012zM165 10.523h3v7.516c-1.238-.25-2.477-.496-3.75-.754-.074-4.62-.074-4.62 0-6.012zm0 0" style="stroke:none;fill-rule:nonzero;fill:#924a9e;fill-opacity:1"/><path d="M60.75 114.992H69V118h-8.25zm0 0" style="stroke:none;fill-rule:nonzero;fill:#63469b;fill-opacity:1"/><path d="M60.75 0H69v3.008h-8.25zm0 0" style="stroke:none;fill-rule:nonzero;fill:#64459b;fill-opacity:1"/><path d="M48 0h8.25v3.008H48zm0 0" style="stroke:none;fill-rule:nonzero;fill:#5c459a;fill-opacity:1"/><path d="M86.25 114.992h7.5c.246.992.496 1.985.75 3.008h-8.25zm0 0" style="stroke:none;fill-rule:nonzero;fill:#74489c;fill-opacity:1"/><path d="M73.5 114.992H81c.246.992.496 1.985.75 3.008H73.5zm0 0" style="stroke:none;fill-rule:nonzero;fill:#6c489c;fill-opacity:1"/><path d="M48.75 114.992h7.5V118H48c.246-.992.496-1.984.75-3.008m0 0" style="stroke:none;fill-rule:nonzero;fill:#59459b;fill-opacity:1"/><path d="M165 112.738h3V118h-5.25v-3.008h1.5zm0 0" style="stroke:none;fill-rule:nonzero;fill:#964d9e;fill-opacity:1"/><path d="M165 36.078h3v7.516h-3a486 486 0 0 1-.422-3.336c-.078-.621-.156-1.238-.238-1.875-.028-.516-.059-1.028-.09-1.555.246-.25.496-.496.75-.75m0 0" style="stroke:none;fill-rule:nonzero;fill:#8c639f;fill-opacity:1"/><path d="M162.75 0H168v5.262c-1.238-.25-2.477-.496-3.75-.754v-1.5h-1.5zm0 0" style="stroke:none;fill-rule:nonzero;fill:#964d9e;fill-opacity:1"/><path d="M86.25 0h7.5v3.008h-7.5zm0 0" style="stroke:none;fill-rule:nonzero;fill:#75489c;fill-opacity:1"/><path d="M73.5 0H81v3.008h-7.5zm0 0" style="stroke:none;fill-rule:nonzero;fill:#6e489c;fill-opacity:1"/><path d="M150 114.992h7.5V118H150zm0 0" style="stroke:none;fill-rule:nonzero;fill:#954d9d;fill-opacity:1"/><path d="M137.25 114.992h7.5V118h-7.5zm0 0" style="stroke:none;fill-rule:nonzero;fill:#8f4c9d;fill-opacity:1"/><path d="M124.5 114.992h7.5V118h-7.5zm0 0" style="stroke:none;fill-rule:nonzero;fill:#894b9d;fill-opacity:1"/><path d="M111.75 114.992h7.5V118h-7.5zm0 0" style="stroke:none;fill-rule:nonzero;fill:#834a9d;fill-opacity:1"/><path d="M99 114.992h7.5V118H99zm0 0" style="stroke:none;fill-rule:nonzero;fill:#7c499c;fill-opacity:1"/><path d="M36 114.992h7.5V118H36zm0 0" style="stroke:none;fill-rule:nonzero;fill:#50449b;fill-opacity:1"/><path d="M23.25 114.992h7.5V118h-7.5zm0 0" style="stroke:none;fill-rule:nonzero;fill:#46439a;fill-opacity:1"/><path d="M10.5 114.992H18V118h-7.5zm0 0" style="stroke:none;fill-rule:nonzero;fill:#38429a;fill-opacity:1"/><path d="M0 112.738h3v2.254h2.25V118H0zm0 0" style="stroke:none;fill-rule:nonzero;fill:#2e429a;fill-opacity:1"/><path d="M0 99.96h3v7.517H0zm0 0" style="stroke:none;fill-rule:nonzero;fill:#2d429a;fill-opacity:1"/><path d="M165 87.184h3v7.515h-3zm0 0" style="stroke:none;fill-rule:nonzero;fill:#886f9f;fill-opacity:1"/><path d="M0 87.184h3v7.515H0zM0 74.406h3v7.516H0zm0 0" style="stroke:none;fill-rule:nonzero;fill:#2d429a;fill-opacity:1"/><path d="M165 61.629h3v7.52h-3zm0 0" style="stroke:none;fill-rule:nonzero;fill:#886f9f;fill-opacity:1"/><path d="M0 61.629h3v7.52H0zM0 48.852h3v7.52H0zM0 36.078h3v7.516H0zM0 23.3h3v7.516H0zM0 10.523h3v7.516H0zm0 0" style="stroke:none;fill-rule:nonzero;fill:#2d429a;fill-opacity:1"/><path d="M150 0h7.5v3.008H150zm0 0" style="stroke:none;fill-rule:nonzero;fill:#964d9e;fill-opacity:1"/><path d="M137.25 0h7.5v3.008h-7.5zm0 0" style="stroke:none;fill-rule:nonzero;fill:#904c9d;fill-opacity:1"/><path d="M124.5 0h7.5v3.008h-7.5zm0 0" style="stroke:none;fill-rule:nonzero;fill:#8b4b9d;fill-opacity:1"/><path d="M111.75 0h7.5v3.008h-7.5zm0 0" style="stroke:none;fill-rule:nonzero;fill:#844a9d;fill-opacity:1"/><path d="M99 0h7.5v3.008H99zm0 0" style="stroke:none;fill-rule:nonzero;fill:#7d4a9c;fill-opacity:1"/><path d="M36 0h7.5v3.008H36zm0 0" style="stroke:none;fill-rule:nonzero;fill:#53449b;fill-opacity:1"/><path d="M23.25 0h7.5v3.008h-7.5zm0 0" style="stroke:none;fill-rule:nonzero;fill:#48439b;fill-opacity:1"/><path d="M10.5 0H18v3.008h-7.5zm0 0" style="stroke:none;fill-rule:nonzero;fill:#3b429a;fill-opacity:1"/><path d="M0 0h5.25v3.008H3v2.254H0zm0 0" style="stroke:none;fill-rule:nonzero;fill:#2e429a;fill-opacity:1"/><path d="m87 77.414 2.25 1.504c.281 2.254.281 2.254 0 4.508L87 84.93c-.742-.246-1.484-.496-2.25-.75.246-.746.496-1.489.75-2.258h-3.75v-.75L87 79.668zm0 0" style="stroke:none;fill-rule:nonzero;fill:#ee7d66;fill-opacity:1"/><path d="M165 75.16h3v6.762h-3zm0 0" style="stroke:none;fill-rule:nonzero;fill:#8b6a9f;fill-opacity:1"/><path d="M165 49.605h3v6.766h-3zm0 0" style="stroke:none;fill-rule:nonzero;fill:#8b6b9f;fill-opacity:1"/><path d="M138 39.836h2.25v1.5h1.5v2.258h-1.5v2.254H138v-2.254h-1.5v-2.258h1.5zm0 0" style="stroke:none;fill-rule:nonzero;fill:#cce3e7;fill-opacity:1"/><path d="M81.75 81.922h3.75c.469 1.785.469 1.785.75 3.758l-1.5 1.504c-1.594-.282-1.594-.282-3-.75.496-.496.988-.993 1.5-1.504-.496-.246-.988-.496-1.5-.75zm0 0" style="stroke:none;fill-rule:nonzero;fill:#f1a096;fill-opacity:1"/><path d="M76.5 80.422c.496.992.988 1.984 1.5 3.004l3-.75c-.234 1.41-.234 1.41-.75 3.004L78 87.184c-1.719-2.582-1.633-3.746-1.5-6.762m0 0" style="stroke:none;fill-rule:nonzero;fill:#e77b57;fill-opacity:1"/></svg>