<?xml version="1.0" encoding="UTF-8"?>
<!DOCTYPE svg PUBLIC "-//W3C//DTD SVG 1.1//EN" "http://www.w3.org/Graphics/SVG/1.1/DTD/svg11.dtd">
<svg xmlns="http://www.w3.org/2000/svg" version="1.1" width="348px" height="280px" style="shape-rendering:geometricPrecision; text-rendering:geometricPrecision; image-rendering:optimizeQuality; fill-rule:evenodd; clip-rule:evenodd" xmlns:xlink="http://www.w3.org/1999/xlink">
<g><path style="opacity:1" fill="#f6f6f6" d="M -0.5,-0.5 C 109.5,-0.5 219.5,-0.5 329.5,-0.5C 329.5,4.5 329.5,9.5 329.5,14.5C 334.5,14.5 339.5,14.5 344.5,14.5C 344.5,19.5 344.5,24.5 344.5,29.5C 339.5,29.5 334.5,29.5 329.5,29.5C 329.5,34.5 329.5,39.5 329.5,44.5C 334.5,44.5 339.5,44.5 344.5,44.5C 344.5,49.5 344.5,54.5 344.5,59.5C 339.5,59.5 334.5,59.5 329.5,59.5C 329.5,64.5 329.5,69.5 329.5,74.5C 334.5,74.5 339.5,74.5 344.5,74.5C 344.5,79.5 344.5,84.5 344.5,89.5C 339.5,89.5 334.5,89.5 329.5,89.5C 329.5,94.5 329.5,99.5 329.5,104.5C 334.5,104.5 339.5,104.5 344.5,104.5C 344.5,109.5 344.5,114.5 344.5,119.5C 339.5,119.5 334.5,119.5 329.5,119.5C 329.5,124.5 329.5,129.5 329.5,134.5C 334.5,134.5 339.5,134.5 344.5,134.5C 344.5,139.5 344.5,144.5 344.5,149.5C 339.5,149.5 334.5,149.5 329.5,149.5C 329.5,154.5 329.5,159.5 329.5,164.5C 334.5,164.5 339.5,164.5 344.5,164.5C 344.5,169.5 344.5,174.5 344.5,179.5C 339.5,179.5 334.5,179.5 329.5,179.5C 329.5,184.5 329.5,189.5 329.5,194.5C 334.5,194.5 339.5,194.5 344.5,194.5C 344.5,199.5 344.5,204.5 344.5,209.5C 339.5,209.5 334.5,209.5 329.5,209.5C 329.5,214.5 329.5,219.5 329.5,224.5C 324.5,224.5 319.5,224.5 314.5,224.5C 314.5,219.5 314.5,214.5 314.5,209.5C 309.5,209.5 304.5,209.5 299.5,209.5C 299.5,204.5 299.5,199.5 299.5,194.5C 294.5,194.5 289.5,194.5 284.5,194.5C 284.5,189.5 284.5,184.5 284.5,179.5C 279.5,179.5 274.5,179.5 269.5,179.5C 269.5,174.5 269.5,169.5 269.5,164.5C 264.5,164.5 259.5,164.5 254.5,164.5C 254.5,159.5 254.5,154.5 254.5,149.5C 249.5,149.5 244.5,149.5 239.5,149.5C 234.5,149.5 229.5,149.5 224.5,149.5C 219.5,149.5 214.5,149.5 209.5,149.5C 209.5,154.5 209.5,159.5 209.5,164.5C 204.5,164.5 199.5,164.5 194.5,164.5C 194.5,159.5 194.5,154.5 194.5,149.5C 189.5,149.5 184.5,149.5 179.5,149.5C 179.5,154.167 179.5,158.833 179.5,163.5C 174.5,163.5 169.5,163.5 164.5,163.5C 164.784,161.585 164.451,159.919 163.5,158.5C 165.81,157.675 167.81,156.342 169.5,154.5C 171.404,154.262 172.738,153.262 173.5,151.5C 177.305,147.295 180.971,142.961 184.5,138.5C 187.203,136.819 189.869,135.153 192.5,133.5C 193.167,133.167 193.833,132.833 194.5,132.5C 196.117,133.038 197.784,133.371 199.5,133.5C 203.876,136.796 208.042,140.463 212,144.5C 210.564,137.762 208.064,131.429 204.5,125.5C 201.275,113.489 197.275,101.823 192.5,90.5C 192.5,89.8333 192.167,89.5 191.5,89.5C 190.928,84.6841 188.595,81.0174 184.5,78.5C 183.221,77.2848 182.221,77.6182 181.5,79.5C 180.833,79.5 180.167,79.5 179.5,79.5C 179.5,77.8333 179.5,76.1667 179.5,74.5C 174.5,74.5 169.5,74.5 164.5,74.5C 164.5,79.5 164.5,84.5 164.5,89.5C 159.5,89.5 154.5,89.5 149.5,89.5C 149.5,94.5 149.5,99.5 149.5,104.5C 144.5,104.5 139.5,104.5 134.5,104.5C 134.182,109.032 134.515,113.366 135.5,117.5C 133.819,119.008 131.819,120.008 129.5,120.5C 126.375,119.521 123.042,119.187 119.5,119.5C 119.5,124.5 119.5,129.5 119.5,134.5C 119.5,139.5 119.5,144.5 119.5,149.5C 114.5,149.5 109.5,149.5 104.5,149.5C 104.5,152.833 104.5,156.167 104.5,159.5C 106.548,159.16 107.548,159.493 107.5,160.5C 105.076,160.192 102.743,160.526 100.5,161.5C 101.628,162.262 102.795,162.929 104,163.5C 104.87,171.897 104.537,180.23 103,188.5C 102.329,189.252 101.496,189.586 100.5,189.5C 99.6236,189.369 98.9569,189.702 98.5,190.5C 101.785,191.324 105.118,191.824 108.5,192C 107.062,192.219 105.729,192.719 104.5,193.5C 109.456,194.494 114.456,194.827 119.5,194.5C 119.5,199.5 119.5,204.5 119.5,209.5C 124.5,209.5 129.5,209.5 134.5,209.5C 134.5,214.5 134.5,219.5 134.5,224.5C 139.5,224.5 144.5,224.5 149.5,224.5C 149.5,229.5 149.5,234.5 149.5,239.5C 154.5,239.5 159.5,239.5 164.5,239.5C 164.5,244.5 164.5,249.5 164.5,254.5C 159.5,254.5 154.5,254.5 149.5,254.5C 149.5,259.5 149.5,264.5 149.5,269.5C 144.5,269.5 139.5,269.5 134.5,269.5C 134.5,264.5 134.5,259.5 134.5,254.5C 129.5,254.5 124.5,254.5 119.5,254.5C 119.5,259.5 119.5,264.5 119.5,269.5C 114.5,269.5 109.5,269.5 104.5,269.5C 104.5,264.5 104.5,259.5 104.5,254.5C 99.5,254.5 94.5,254.5 89.5,254.5C 89.5,259.5 89.5,264.5 89.5,269.5C 84.5,269.5 79.5,269.5 74.5,269.5C 74.5,264.5 74.5,259.5 74.5,254.5C 69.5,254.5 64.5,254.5 59.5,254.5C 59.5,259.5 59.5,264.5 59.5,269.5C 54.5,269.5 49.5,269.5 44.5,269.5C 44.5,264.5 44.5,259.5 44.5,254.5C 39.5,254.5 34.5,254.5 29.5,254.5C 29.5,259.5 29.5,264.5 29.5,269.5C 24.5,269.5 19.5,269.5 14.5,269.5C 14.5,264.5 14.5,259.5 14.5,254.5C 9.5,254.5 4.5,254.5 -0.5,254.5C -0.5,169.5 -0.5,84.5 -0.5,-0.5 Z"/></g>
<g><path style="opacity:1" fill="#fcfcfc" d="M 329.5,-0.5 C 335.5,-0.5 341.5,-0.5 347.5,-0.5C 347.5,92.8333 347.5,186.167 347.5,279.5C 341.5,279.5 335.5,279.5 329.5,279.5C 329.5,276.167 329.5,272.833 329.5,269.5C 334.5,269.5 339.5,269.5 344.5,269.5C 344.5,264.5 344.5,259.5 344.5,254.5C 339.5,254.5 334.5,254.5 329.5,254.5C 329.5,249.5 329.5,244.5 329.5,239.5C 334.5,239.5 339.5,239.5 344.5,239.5C 344.5,234.5 344.5,229.5 344.5,224.5C 339.5,224.5 334.5,224.5 329.5,224.5C 329.5,219.5 329.5,214.5 329.5,209.5C 334.5,209.5 339.5,209.5 344.5,209.5C 344.5,204.5 344.5,199.5 344.5,194.5C 339.5,194.5 334.5,194.5 329.5,194.5C 329.5,189.5 329.5,184.5 329.5,179.5C 334.5,179.5 339.5,179.5 344.5,179.5C 344.5,174.5 344.5,169.5 344.5,164.5C 339.5,164.5 334.5,164.5 329.5,164.5C 329.5,159.5 329.5,154.5 329.5,149.5C 334.5,149.5 339.5,149.5 344.5,149.5C 344.5,144.5 344.5,139.5 344.5,134.5C 339.5,134.5 334.5,134.5 329.5,134.5C 329.5,129.5 329.5,124.5 329.5,119.5C 334.5,119.5 339.5,119.5 344.5,119.5C 344.5,114.5 344.5,109.5 344.5,104.5C 339.5,104.5 334.5,104.5 329.5,104.5C 329.5,99.5 329.5,94.5 329.5,89.5C 334.5,89.5 339.5,89.5 344.5,89.5C 344.5,84.5 344.5,79.5 344.5,74.5C 339.5,74.5 334.5,74.5 329.5,74.5C 329.5,69.5 329.5,64.5 329.5,59.5C 334.5,59.5 339.5,59.5 344.5,59.5C 344.5,54.5 344.5,49.5 344.5,44.5C 339.5,44.5 334.5,44.5 329.5,44.5C 329.5,39.5 329.5,34.5 329.5,29.5C 334.5,29.5 339.5,29.5 344.5,29.5C 344.5,24.5 344.5,19.5 344.5,14.5C 339.5,14.5 334.5,14.5 329.5,14.5C 329.5,9.5 329.5,4.5 329.5,-0.5 Z"/></g>
<g><path style="opacity:1" fill="#f8eb01" d="M 183.5,82.5 C 184.496,82.4142 185.329,82.7476 186,83.5C 186.567,86.1677 187.067,88.8344 187.5,91.5C 187.5,92.8333 187.5,94.1667 187.5,95.5C 187.5,95.8333 187.5,96.1667 187.5,96.5C 186.839,97.7175 186.172,99.0508 185.5,100.5C 185.167,100 184.833,99.5 184.5,99C 183.588,94.5536 183.255,90.0536 183.5,85.5C 183.5,84.5 183.5,83.5 183.5,82.5 Z"/></g>
<g><path style="opacity:1" fill="#0f0d0d" d="M 184.5,78.5 C 182.755,80.0326 181.755,82.0326 181.5,84.5C 180.883,84.6107 180.383,84.944 180,85.5C 176.448,95.995 172.615,106.328 168.5,116.5C 163.954,123.225 158.788,129.558 153,135.5C 152.517,136.448 152.351,137.448 152.5,138.5C 151.167,137.833 150.167,136.833 149.5,135.5C 157.54,127.464 163.54,118.131 167.5,107.5C 169.104,106.713 169.771,105.38 169.5,103.5C 174.055,95.872 178.055,87.872 181.5,79.5C 182.221,77.6182 183.221,77.2848 184.5,78.5 Z"/></g>
<g><path style="opacity:1" fill="#fcfcfc" d="M 179.5,79.5 C 175.865,87.2449 170.865,94.0783 164.5,100C 158.634,101.248 154.301,104.415 151.5,109.5C 150.599,110.29 149.932,111.29 149.5,112.5C 147.597,112.796 145.93,113.463 144.5,114.5C 141.426,115.302 138.426,116.302 135.5,117.5C 134.515,113.366 134.182,109.032 134.5,104.5C 139.5,104.5 144.5,104.5 149.5,104.5C 149.5,99.5 149.5,94.5 149.5,89.5C 154.5,89.5 159.5,89.5 164.5,89.5C 164.5,84.5 164.5,79.5 164.5,74.5C 169.5,74.5 174.5,74.5 179.5,74.5C 179.5,76.1667 179.5,77.8333 179.5,79.5 Z"/></g>
<g><path style="opacity:1" fill="#279892" d="M 179.5,79.5 C 180.167,79.5 180.833,79.5 181.5,79.5C 178.055,87.872 174.055,95.872 169.5,103.5C 169.44,102.957 169.107,102.624 168.5,102.5C 163.554,106.593 157.887,108.926 151.5,109.5C 154.301,104.415 158.634,101.248 164.5,100C 170.865,94.0783 175.865,87.2449 179.5,79.5 Z"/></g>
<g><path style="opacity:1" fill="#5b0000" d="M 181.5,84.5 C 180.537,88.1007 179.87,91.7674 179.5,95.5C 176.378,106.68 172.545,117.347 168,127.5C 166.088,129.657 164.421,131.991 163,134.5C 159.32,135.304 156.487,137.637 154.5,141.5C 154.5,141.167 154.5,140.833 154.5,140.5C 153.972,139.153 153.805,137.819 154,136.5C 154.333,136.833 154.667,137.167 155,137.5C 156.153,134.848 157.987,132.848 160.5,131.5C 162.825,128.173 165.158,124.839 167.5,121.5C 168.309,119.929 168.643,118.262 168.5,116.5C 172.615,106.328 176.448,95.995 180,85.5C 180.383,84.944 180.883,84.6107 181.5,84.5 Z"/></g>
<g><path style="opacity:1" fill="#fc6901" d="M 182.5,90.5 C 182.5,94.5 182.5,98.5 182.5,102.5C 183.187,115.565 183.854,127.565 184.5,138.5C 180.971,142.961 177.305,147.295 173.5,151.5C 168.965,148.773 163.965,147.773 158.5,148.5C 157.599,147.71 156.932,146.71 156.5,145.5C 156.833,145.5 157.167,145.5 157.5,145.5C 158.791,145.737 159.791,145.404 160.5,144.5C 167.057,144.077 173.057,141.577 178.5,137C 177.833,136.667 177.167,136.333 176.5,136C 177.667,135.5 178.5,134.667 179,133.5C 179,129.686 179.834,125.853 181.5,122C 181.258,114.937 181.258,107.77 181.5,100.5C 181.187,96.9581 181.521,93.6248 182.5,90.5 Z"/></g>
<g><path style="opacity:1" fill="#860101" d="M 179.5,95.5 C 178.575,105.695 176.242,115.195 172.5,124C 172.833,124.333 173.167,124.667 173.5,125C 170.113,129.293 167.113,133.293 164.5,137C 162.22,139.304 159.554,140.804 156.5,141.5C 156.5,142.5 156.5,143.5 156.5,144.5C 155.599,143.71 154.932,142.71 154.5,141.5C 156.487,137.637 159.32,135.304 163,134.5C 164.421,131.991 166.088,129.657 168,127.5C 172.545,117.347 176.378,106.68 179.5,95.5 Z"/></g>
<g><path style="opacity:1" fill="#ab0703" d="M 184.5,78.5 C 188.595,81.0174 190.928,84.6841 191.5,89.5C 189.981,86.9795 188.314,84.4795 186.5,82C 185.251,81.2599 184.251,81.4265 183.5,82.5C 183.5,83.5 183.5,84.5 183.5,85.5C 182.549,86.9187 182.216,88.5853 182.5,90.5C 181.521,93.6248 181.187,96.9581 181.5,100.5C 180.596,101.209 180.263,102.209 180.5,103.5C 178.884,113.651 176.217,123.318 172.5,132.5C 171.975,133.192 171.308,133.692 170.5,134C 170.833,134.333 171.167,134.667 171.5,135C 166.586,138.448 161.919,141.948 157.5,145.5C 157.167,145.5 156.833,145.5 156.5,145.5C 156.5,145.167 156.5,144.833 156.5,144.5C 156.5,143.5 156.5,142.5 156.5,141.5C 159.554,140.804 162.22,139.304 164.5,137C 167.113,133.293 170.113,129.293 173.5,125C 173.167,124.667 172.833,124.333 172.5,124C 176.242,115.195 178.575,105.695 179.5,95.5C 179.87,91.7674 180.537,88.1007 181.5,84.5C 181.755,82.0326 182.755,80.0326 184.5,78.5 Z"/></g>
<g><path style="opacity:1" fill="#fda103" d="M 187.5,95.5 C 188.437,102.024 188.771,108.524 188.5,115C 186.591,115.448 185.424,114.615 185,112.5C 183.957,109.243 183.457,105.91 183.5,102.5C 184.41,104.019 185.243,105.685 186,107.5C 187.337,103.974 187.837,100.308 187.5,96.5C 187.5,96.1667 187.5,95.8333 187.5,95.5 Z"/></g>
<g><path style="opacity:1" fill="#e11d00" d="M 183.5,82.5 C 184.251,81.4265 185.251,81.2599 186.5,82C 188.314,84.4795 189.981,86.9795 191.5,89.5C 192.167,89.5 192.5,89.8333 192.5,90.5C 192.612,94.3963 193.612,98.063 195.5,101.5C 193.303,103.815 193.136,106.148 195,108.5C 195.333,107.167 195.667,105.833 196,104.5C 196.063,108.454 195.896,112.454 195.5,116.5C 197.143,116.52 198.476,115.853 199.5,114.5C 200.607,118.516 202.274,122.182 204.5,125.5C 205.163,128.857 205.497,132.024 205.5,135C 203.65,134.405 201.65,133.905 199.5,133.5C 197.784,133.371 196.117,133.038 194.5,132.5C 194.953,131.542 195.619,130.708 196.5,130C 195.167,126.333 193.833,122.667 192.5,119C 192.833,118.667 193.167,118.333 193.5,118C 192.114,111.791 190.781,105.958 189.5,100.5C 189.785,97.1709 189.118,94.1709 187.5,91.5C 187.067,88.8344 186.567,86.1677 186,83.5C 185.329,82.7476 184.496,82.4142 183.5,82.5 Z"/></g>
<g><path style="opacity:1" fill="#fcc004" d="M 183.5,85.5 C 183.255,90.0536 183.588,94.5536 184.5,99C 184.833,99.5 185.167,100 185.5,100.5C 186.172,99.0508 186.839,97.7175 187.5,96.5C 187.837,100.308 187.337,103.974 186,107.5C 185.243,105.685 184.41,104.019 183.5,102.5C 183.167,102.5 182.833,102.5 182.5,102.5C 182.5,98.5 182.5,94.5 182.5,90.5C 182.216,88.5853 182.549,86.9187 183.5,85.5 Z"/></g>
<g><path style="opacity:1" fill="#f43d00" d="M 181.5,100.5 C 181.258,107.77 181.258,114.937 181.5,122C 179.834,125.853 179,129.686 179,133.5C 178.5,134.667 177.667,135.5 176.5,136C 177.167,136.333 177.833,136.667 178.5,137C 173.057,141.577 167.057,144.077 160.5,144.5C 164.075,142.713 167.741,140.879 171.5,139C 173.049,137.786 174.215,136.286 175,134.5C 178.702,124.834 180.535,114.501 180.5,103.5C 180.263,102.209 180.596,101.209 181.5,100.5 Z"/></g>
<g><path style="opacity:1" fill="#fd8203" d="M 187.5,91.5 C 189.118,94.1709 189.785,97.1709 189.5,100.5C 189.746,104.151 189.746,107.651 189.5,111C 190.167,113.667 190.833,116.333 191.5,119C 191.167,120 190.833,121 190.5,122C 193.167,122.667 193.167,123.333 190.5,124C 191.167,124.333 191.833,124.667 192.5,125C 192.167,126 191.833,127 191.5,128C 192.167,128.333 192.833,128.667 193.5,129C 192.614,130.217 191.614,131.551 190.5,133C 191.094,133.464 191.761,133.631 192.5,133.5C 189.869,135.153 187.203,136.819 184.5,138.5C 183.854,127.565 183.187,115.565 182.5,102.5C 182.833,102.5 183.167,102.5 183.5,102.5C 183.457,105.91 183.957,109.243 185,112.5C 185.424,114.615 186.591,115.448 188.5,115C 188.771,108.524 188.437,102.024 187.5,95.5C 187.5,94.1667 187.5,92.8333 187.5,91.5 Z"/></g>
<g><path style="opacity:1" fill="#fd6300" d="M 189.5,100.5 C 190.781,105.958 192.114,111.791 193.5,118C 193.167,118.333 192.833,118.667 192.5,119C 193.833,122.667 195.167,126.333 196.5,130C 195.619,130.708 194.953,131.542 194.5,132.5C 193.833,132.833 193.167,133.167 192.5,133.5C 191.761,133.631 191.094,133.464 190.5,133C 191.614,131.551 192.614,130.217 193.5,129C 192.833,128.667 192.167,128.333 191.5,128C 191.833,127 192.167,126 192.5,125C 191.833,124.667 191.167,124.333 190.5,124C 193.167,123.333 193.167,122.667 190.5,122C 190.833,121 191.167,120 191.5,119C 190.833,116.333 190.167,113.667 189.5,111C 189.746,107.651 189.746,104.151 189.5,100.5 Z"/></g>
<g><path style="opacity:1" fill="#c32112" d="M 192.5,90.5 C 197.275,101.823 201.275,113.489 204.5,125.5C 202.274,122.182 200.607,118.516 199.5,114.5C 198.476,115.853 197.143,116.52 195.5,116.5C 195.896,112.454 196.063,108.454 196,104.5C 195.667,105.833 195.333,107.167 195,108.5C 193.136,106.148 193.303,103.815 195.5,101.5C 193.612,98.063 192.612,94.3963 192.5,90.5 Z"/></g>
<g><path style="opacity:1" fill="#0b0d0c" d="M 169.5,103.5 C 168.326,104.514 167.66,105.847 167.5,107.5C 165.109,111.937 162.443,116.27 159.5,120.5C 157.21,119.533 155.21,118.2 153.5,116.5C 152.473,114.806 151.139,113.473 149.5,112.5C 149.932,111.29 150.599,110.29 151.5,109.5C 157.887,108.926 163.554,106.593 168.5,102.5C 169.107,102.624 169.44,102.957 169.5,103.5 Z"/></g>
<g><path style="opacity:1" fill="#158780" d="M 169.5,103.5 C 169.771,105.38 169.104,106.713 167.5,107.5C 167.66,105.847 168.326,104.514 169.5,103.5 Z"/></g>
<g><path style="opacity:1" fill="#d50a00" d="M 180.5,103.5 C 180.535,114.501 178.702,124.834 175,134.5C 174.215,136.286 173.049,137.786 171.5,139C 167.741,140.879 164.075,142.713 160.5,144.5C 159.791,145.404 158.791,145.737 157.5,145.5C 161.919,141.948 166.586,138.448 171.5,135C 171.167,134.667 170.833,134.333 170.5,134C 171.308,133.692 171.975,133.192 172.5,132.5C 176.217,123.318 178.884,113.651 180.5,103.5 Z"/></g>
<g><path style="opacity:1" fill="#2fbdb6" d="M 149.5,112.5 C 151.139,113.473 152.473,114.806 153.5,116.5C 152.784,116.783 151.951,117.116 151,117.5C 150.056,120.347 150.556,122.847 152.5,125C 151.624,126.585 150.291,127.585 148.5,128C 149.5,128.333 150.5,128.667 151.5,129C 149.689,131.051 147.356,133.218 144.5,135.5C 143.735,135.923 142.902,136.257 142,136.5C 140.18,135.021 138.347,133.687 136.5,132.5C 137.484,129.93 138.651,129.93 140,132.5C 140.511,130.122 141.178,127.788 142,125.5C 142.333,126.5 142.667,127.5 143,128.5C 143.272,125.568 144.438,123.068 146.5,121C 145.289,119.887 145.289,118.72 146.5,117.5C 145.807,116.482 145.141,115.482 144.5,114.5C 145.93,113.463 147.597,112.796 149.5,112.5 Z"/></g>
<g><path style="opacity:1" fill="#4bd9db" d="M 144.5,114.5 C 145.141,115.482 145.807,116.482 146.5,117.5C 145.289,118.72 145.289,119.887 146.5,121C 144.438,123.068 143.272,125.568 143,128.5C 142.667,127.5 142.333,126.5 142,125.5C 141.178,127.788 140.511,130.122 140,132.5C 138.651,129.93 137.484,129.93 136.5,132.5C 132.325,129.165 127.992,125.998 123.5,123C 125.407,121.878 127.407,121.045 129.5,120.5C 131.819,120.008 133.819,119.008 135.5,117.5C 138.426,116.302 141.426,115.302 144.5,114.5 Z"/></g>
<g><path style="opacity:1" fill="#199087" d="M 167.5,107.5 C 163.54,118.131 157.54,127.464 149.5,135.5C 147.833,135.5 146.167,135.5 144.5,135.5C 147.356,133.218 149.689,131.051 151.5,129C 150.5,128.667 149.5,128.333 148.5,128C 150.291,127.585 151.624,126.585 152.5,125C 150.556,122.847 150.056,120.347 151,117.5C 151.951,117.116 152.784,116.783 153.5,116.5C 155.21,118.2 157.21,119.533 159.5,120.5C 162.443,116.27 165.109,111.937 167.5,107.5 Z"/></g>
<g><path style="opacity:1" fill="#3a0202" d="M 168.5,116.5 C 168.643,118.262 168.309,119.929 167.5,121.5C 165.158,124.839 162.825,128.173 160.5,131.5C 157.987,132.848 156.153,134.848 155,137.5C 154.667,137.167 154.333,136.833 154,136.5C 153.805,137.819 153.972,139.153 154.5,140.5C 153.5,140.167 152.833,139.5 152.5,138.5C 152.351,137.448 152.517,136.448 153,135.5C 158.788,129.558 163.954,123.225 168.5,116.5 Z"/></g>
<g><path style="opacity:1" fill="#bd1b0e" d="M 204.5,125.5 C 208.064,131.429 210.564,137.762 212,144.5C 208.042,140.463 203.876,136.796 199.5,133.5C 201.65,133.905 203.65,134.405 205.5,135C 205.497,132.024 205.163,128.857 204.5,125.5 Z"/></g>
<g><path style="opacity:1" fill="#fea102" d="M 158.5,148.5 C 163.965,147.773 168.965,148.773 173.5,151.5C 172.738,153.262 171.404,154.262 169.5,154.5C 167.104,150.738 163.771,149.405 159.5,150.5C 158.662,150.158 158.328,149.492 158.5,148.5 Z"/></g>
<g><path style="opacity:1" fill="#fcfcfb" d="M 129.5,120.5 C 127.407,121.045 125.407,121.878 123.5,123C 127.992,125.998 132.325,129.165 136.5,132.5C 138.347,133.687 140.18,135.021 142,136.5C 142.902,136.257 143.735,135.923 144.5,135.5C 146.167,135.5 147.833,135.5 149.5,135.5C 150.167,136.833 151.167,137.833 152.5,138.5C 152.833,139.5 153.5,140.167 154.5,140.5C 154.5,140.833 154.5,141.167 154.5,141.5C 154.932,142.71 155.599,143.71 156.5,144.5C 156.5,144.833 156.5,145.167 156.5,145.5C 156.932,146.71 157.599,147.71 158.5,148.5C 158.328,149.492 158.662,150.158 159.5,150.5C 159.896,153.721 161.229,156.388 163.5,158.5C 164.451,159.919 164.784,161.585 164.5,163.5C 169.5,163.5 174.5,163.5 179.5,163.5C 179.5,158.833 179.5,154.167 179.5,149.5C 184.5,149.5 189.5,149.5 194.5,149.5C 194.5,154.5 194.5,159.5 194.5,164.5C 183.5,164.5 172.5,164.5 161.5,164.5C 161.167,164.5 160.833,164.5 160.5,164.5C 159.539,166.265 159.205,168.265 159.5,170.5C 158.487,169.341 158.153,167.341 158.5,164.5C 156.114,164.259 154.114,164.925 152.5,166.5C 151.883,166.389 151.383,166.056 151,165.5C 150.59,166.901 150.09,168.234 149.5,169.5C 147.305,174.085 145.305,178.751 143.5,183.5C 142.347,182.687 142.347,181.687 143.5,180.5C 140.572,179.516 137.572,179.183 134.5,179.5C 134.81,182.713 134.477,185.713 133.5,188.5C 133.302,180.466 133.635,172.466 134.5,164.5C 139.5,164.5 144.5,164.5 149.5,164.5C 149.5,159.5 149.5,154.5 149.5,149.5C 144.5,149.5 139.5,149.5 134.5,149.5C 134.5,144.5 134.5,139.5 134.5,134.5C 129.5,134.5 124.5,134.5 119.5,134.5C 119.5,129.5 119.5,124.5 119.5,119.5C 123.042,119.187 126.375,119.521 129.5,120.5 Z"/></g>
<g><path style="opacity:1" fill="#fcc304" d="M 169.5,154.5 C 167.81,156.342 165.81,157.675 163.5,158.5C 161.229,156.388 159.896,153.721 159.5,150.5C 163.771,149.405 167.104,150.738 169.5,154.5 Z"/></g>
<g><path style="opacity:1" fill="#191b1a" d="M 107.5,160.5 C 110.558,168.283 113.892,175.95 117.5,183.5C 117.842,184.338 118.508,184.672 119.5,184.5C 119.205,186.423 118.372,188.09 117,189.5C 113.519,182.044 109.852,174.711 106,167.5C 105.333,174.5 105.333,181.5 106,188.5C 106.5,189 107,189.5 107.5,190C 104.961,190.796 102.628,190.629 100.5,189.5C 101.496,189.586 102.329,189.252 103,188.5C 104.537,180.23 104.87,171.897 104,163.5C 102.795,162.929 101.628,162.262 100.5,161.5C 102.743,160.526 105.076,160.192 107.5,160.5 Z"/></g>
<g><path style="opacity:1" fill="#080707" d="M 129.5,161.5 C 131.415,161.216 133.081,161.549 134.5,162.5C 133.883,162.611 133.383,162.944 133,163.5C 132.177,172.01 132.343,180.344 133.5,188.5C 133.611,189.117 133.944,189.617 134.5,190C 132.167,190.667 129.833,190.667 127.5,190C 128,189.5 128.5,189 129,188.5C 129.5,181.174 129.666,173.841 129.5,166.5C 129.5,165.833 129.167,165.5 128.5,165.5C 128.833,164.167 129.167,162.833 129.5,161.5 Z"/></g>
<g><path style="opacity:1" fill="#f1f1f1" d="M 119.5,134.5 C 124.5,134.5 129.5,134.5 134.5,134.5C 134.5,139.5 134.5,144.5 134.5,149.5C 139.5,149.5 144.5,149.5 149.5,149.5C 149.5,154.5 149.5,159.5 149.5,164.5C 144.5,164.5 139.5,164.5 134.5,164.5C 133.635,172.466 133.302,180.466 133.5,188.5C 132.343,180.344 132.177,172.01 133,163.5C 133.383,162.944 133.883,162.611 134.5,162.5C 135.376,162.631 136.043,162.298 136.5,161.5C 134.027,160.203 131.693,160.203 129.5,161.5C 129.167,162.833 128.833,164.167 128.5,165.5C 125.289,170.915 122.289,176.582 119.5,182.5C 119.043,183.298 118.376,183.631 117.5,183.5C 113.892,175.95 110.558,168.283 107.5,160.5C 107.548,159.493 106.548,159.16 104.5,159.5C 104.5,156.167 104.5,152.833 104.5,149.5C 109.5,149.5 114.5,149.5 119.5,149.5C 119.5,144.5 119.5,139.5 119.5,134.5 Z"/></g>
<g><path style="opacity:1" fill="#5f5f5f" d="M 129.5,161.5 C 131.693,160.203 134.027,160.203 136.5,161.5C 136.043,162.298 135.376,162.631 134.5,162.5C 133.081,161.549 131.415,161.216 129.5,161.5 Z"/></g>
<g><path style="opacity:1" fill="#fdfdfd" d="M 224.5,149.5 C 224.5,154.5 224.5,159.5 224.5,164.5C 221.833,164.5 219.167,164.5 216.5,164.5C 216.737,165.791 216.404,166.791 215.5,167.5C 215.217,166.711 214.717,166.044 214,165.5C 213.209,166.745 212.709,168.078 212.5,169.5C 210.323,174.013 208.323,178.68 206.5,183.5C 205.347,182.687 205.347,181.687 206.5,180.5C 202.555,179.509 198.555,179.176 194.5,179.5C 194.5,174.5 194.5,169.5 194.5,164.5C 199.5,164.5 204.5,164.5 209.5,164.5C 209.5,159.5 209.5,154.5 209.5,149.5C 214.5,149.5 219.5,149.5 224.5,149.5 Z"/></g>
<g><path style="opacity:1" fill="#1a1a1a" d="M 160.5,164.5 C 160.833,164.5 161.167,164.5 161.5,164.5C 167.979,165.491 174.646,165.824 181.5,165.5C 181.784,167.415 181.451,169.081 180.5,170.5C 180.489,168.983 179.823,167.816 178.5,167C 176.527,166.505 174.527,166.338 172.5,166.5C 172.185,174.42 172.518,182.253 173.5,190C 171.5,190.667 169.5,190.667 167.5,190C 169.447,182.442 170.114,174.609 169.5,166.5C 167.143,166.337 164.81,166.503 162.5,167C 161.944,167.383 161.611,167.883 161.5,168.5C 160.566,167.432 160.232,166.099 160.5,164.5 Z"/></g>
<g><path style="opacity:1" fill="#0e1110" d="M 185.5,189.5 C 186.479,186.375 186.813,183.042 186.5,179.5C 186.666,175.486 186.499,171.486 186,167.5C 185.5,167 185,166.5 184.5,166C 186.579,165.192 188.579,165.359 190.5,166.5C 189.179,174.363 189.179,182.197 190.5,190C 188.613,190.78 186.946,190.613 185.5,189.5 Z"/></g>
<g><path style="opacity:1" fill="#1a1a1a" d="M 215.5,167.5 C 218.167,174.5 220.833,181.5 223.5,188.5C 223.918,189.222 224.584,189.722 225.5,190C 223.5,190.667 221.5,190.667 219.5,190C 220.029,187.044 219.363,184.211 217.5,181.5C 217.167,180.833 216.833,180.167 216.5,179.5C 215.917,176.053 214.584,173.053 212.5,170.5C 212.5,170.167 212.5,169.833 212.5,169.5C 212.709,168.078 213.209,166.745 214,165.5C 214.717,166.044 215.217,166.711 215.5,167.5 Z"/></g>
<g><path style="opacity:1" fill="#141515" d="M 152.5,166.5 C 154.047,171.928 155.88,177.261 158,182.5C 159.123,185.249 160.623,187.749 162.5,190C 160.5,190.667 158.5,190.667 156.5,190C 156.957,189.586 157.291,189.086 157.5,188.5C 156.67,185.984 155.67,183.65 154.5,181.5C 154.167,180.833 153.833,180.167 153.5,179.5C 153.208,175.934 151.874,172.934 149.5,170.5C 149.5,170.167 149.5,169.833 149.5,169.5C 150.09,168.234 150.59,166.901 151,165.5C 151.383,166.056 151.883,166.389 152.5,166.5 Z"/></g>
<g><path style="opacity:1" fill="#f2f2f2" d="M 129.5,166.5 C 129.666,173.841 129.5,181.174 129,188.5C 128.5,189 128,189.5 127.5,190C 129.833,190.667 132.167,190.667 134.5,190C 133.944,189.617 133.611,189.117 133.5,188.5C 134.477,185.713 134.81,182.713 134.5,179.5C 137.572,179.183 140.572,179.516 143.5,180.5C 142.347,181.687 142.347,182.687 143.5,183.5C 143.171,185.991 142.171,188.157 140.5,190C 141.793,190.49 143.127,190.657 144.5,190.5C 144.205,188.265 144.539,186.265 145.5,184.5C 145.435,184.938 145.601,185.272 146,185.5C 146.368,184.09 147.201,183.09 148.5,182.5C 149.491,186.445 149.824,190.445 149.5,194.5C 154.5,194.5 159.5,194.5 164.5,194.5C 164.5,199.5 164.5,204.5 164.5,209.5C 169.5,209.5 174.5,209.5 179.5,209.5C 179.5,214.5 179.5,219.5 179.5,224.5C 184.5,224.5 189.5,224.5 194.5,224.5C 194.5,229.5 194.5,234.5 194.5,239.5C 199.5,239.5 204.5,239.5 209.5,239.5C 209.5,244.5 209.5,249.5 209.5,254.5C 204.5,254.5 199.5,254.5 194.5,254.5C 194.5,259.5 194.5,264.5 194.5,269.5C 189.5,269.5 184.5,269.5 179.5,269.5C 179.5,264.5 179.5,259.5 179.5,254.5C 174.5,254.5 169.5,254.5 164.5,254.5C 164.5,249.5 164.5,244.5 164.5,239.5C 159.5,239.5 154.5,239.5 149.5,239.5C 149.5,234.5 149.5,229.5 149.5,224.5C 144.5,224.5 139.5,224.5 134.5,224.5C 134.5,219.5 134.5,214.5 134.5,209.5C 129.5,209.5 124.5,209.5 119.5,209.5C 119.5,204.5 119.5,199.5 119.5,194.5C 114.456,194.827 109.456,194.494 104.5,193.5C 105.729,192.719 107.062,192.219 108.5,192C 105.118,191.824 101.785,191.324 98.5,190.5C 98.9569,189.702 99.6236,189.369 100.5,189.5C 102.628,190.629 104.961,190.796 107.5,190C 107,189.5 106.5,189 106,188.5C 105.333,181.5 105.333,174.5 106,167.5C 109.852,174.711 113.519,182.044 117,189.5C 118.372,188.09 119.205,186.423 119.5,184.5C 122.833,178.5 126.167,172.5 129.5,166.5 Z"/></g>
<g><path style="opacity:1" fill="#7c7c7c" d="M 160.5,164.5 C 160.232,166.099 160.566,167.432 161.5,168.5C 161.5,169.833 160.833,170.5 159.5,170.5C 159.205,168.265 159.539,166.265 160.5,164.5 Z"/></g>
<g><path style="opacity:1" fill="#efefef" d="M 149.5,170.5 C 151.874,172.934 153.208,175.934 153.5,179.5C 151.143,179.663 148.81,179.497 146.5,179C 148.196,176.413 149.196,173.579 149.5,170.5 Z"/></g>
<g><path style="opacity:1" fill="#eff0f0" d="M 212.5,170.5 C 214.584,173.053 215.917,176.053 216.5,179.5C 214.143,179.663 211.81,179.497 209.5,179C 210.798,176.273 211.798,173.44 212.5,170.5 Z"/></g>
<g><path style="opacity:1" fill="#191b1a" d="M 240.5,165.5 C 245.254,166.618 246.754,169.618 245,174.5C 243.745,175.211 242.579,176.044 241.5,177C 246.71,178.211 248.544,181.377 247,186.5C 245.362,188.734 243.195,190.067 240.5,190.5C 239.761,190.631 239.094,190.464 238.5,190C 245.43,186.959 246.097,182.959 240.5,178C 238.527,177.505 236.527,177.338 234.5,177.5C 233.945,181.997 234.611,186.164 236.5,190C 234.866,190.494 233.199,190.66 231.5,190.5C 230.761,190.631 230.094,190.464 229.5,190C 230.792,186.429 231.458,182.595 231.5,178.5C 231.333,174.833 231.167,171.167 231,167.5C 230.5,167 230,166.5 229.5,166C 233.152,165.501 236.818,165.335 240.5,165.5 Z"/></g>
<g><path style="opacity:1" fill="#f1f1f1" d="M 234.5,166.5 C 243.121,165.932 245.121,169.099 240.5,176C 238.527,176.495 236.527,176.662 234.5,176.5C 234.5,173.167 234.5,169.833 234.5,166.5 Z"/></g>
<g><path style="opacity:1" fill="#454848" d="M 128.5,165.5 C 129.167,165.5 129.5,165.833 129.5,166.5C 126.167,172.5 122.833,178.5 119.5,184.5C 118.508,184.672 117.842,184.338 117.5,183.5C 118.376,183.631 119.043,183.298 119.5,182.5C 122.289,176.582 125.289,170.915 128.5,165.5 Z"/></g>
<g><path style="opacity:1" fill="#eff0f0" d="M 224.5,149.5 C 229.5,149.5 234.5,149.5 239.5,149.5C 239.5,154.167 239.5,158.833 239.5,163.5C 236.15,163.335 232.817,163.502 229.5,164C 233.356,164.177 237.023,164.677 240.5,165.5C 236.818,165.335 233.152,165.501 229.5,166C 230,166.5 230.5,167 231,167.5C 231.167,171.167 231.333,174.833 231.5,178.5C 231.458,182.595 230.792,186.429 229.5,190C 230.094,190.464 230.761,190.631 231.5,190.5C 228.503,193.506 226.837,192.839 226.5,188.5C 225.5,188.5 224.5,188.5 223.5,188.5C 220.833,181.5 218.167,174.5 215.5,167.5C 216.404,166.791 216.737,165.791 216.5,164.5C 219.167,164.5 221.833,164.5 224.5,164.5C 224.5,159.5 224.5,154.5 224.5,149.5 Z"/></g>
<g><path style="opacity:1" fill="#f8f8f8" d="M 239.5,149.5 C 244.5,149.5 249.5,149.5 254.5,149.5C 254.5,154.5 254.5,159.5 254.5,164.5C 259.5,164.5 264.5,164.5 269.5,164.5C 269.5,169.5 269.5,174.5 269.5,179.5C 274.5,179.5 279.5,179.5 284.5,179.5C 284.5,184.5 284.5,189.5 284.5,194.5C 289.5,194.5 294.5,194.5 299.5,194.5C 299.5,199.5 299.5,204.5 299.5,209.5C 304.5,209.5 309.5,209.5 314.5,209.5C 314.5,214.5 314.5,219.5 314.5,224.5C 319.5,224.5 324.5,224.5 329.5,224.5C 334.5,224.5 339.5,224.5 344.5,224.5C 344.5,229.5 344.5,234.5 344.5,239.5C 339.5,239.5 334.5,239.5 329.5,239.5C 329.5,244.5 329.5,249.5 329.5,254.5C 334.5,254.5 339.5,254.5 344.5,254.5C 344.5,259.5 344.5,264.5 344.5,269.5C 339.5,269.5 334.5,269.5 329.5,269.5C 324.5,269.5 319.5,269.5 314.5,269.5C 314.5,264.5 314.5,259.5 314.5,254.5C 309.5,254.5 304.5,254.5 299.5,254.5C 299.5,249.5 299.5,244.5 299.5,239.5C 294.5,239.5 289.5,239.5 284.5,239.5C 284.5,234.5 284.5,229.5 284.5,224.5C 279.5,224.5 274.5,224.5 269.5,224.5C 269.5,219.5 269.5,214.5 269.5,209.5C 264.5,209.5 259.5,209.5 254.5,209.5C 254.5,204.5 254.5,199.5 254.5,194.5C 249.5,194.5 244.5,194.5 239.5,194.5C 238.411,192.883 236.744,192.05 234.5,192C 236.708,191.809 238.708,191.309 240.5,190.5C 243.195,190.067 245.362,188.734 247,186.5C 248.544,181.377 246.71,178.211 241.5,177C 242.579,176.044 243.745,175.211 245,174.5C 246.754,169.618 245.254,166.618 240.5,165.5C 237.023,164.677 233.356,164.177 229.5,164C 232.817,163.502 236.15,163.335 239.5,163.5C 239.5,158.833 239.5,154.167 239.5,149.5 Z"/></g>
<g><path style="opacity:1" fill="#3b3d3d" d="M 149.5,169.5 C 149.5,169.833 149.5,170.167 149.5,170.5C 149.196,173.579 148.196,176.413 146.5,179C 148.81,179.497 151.143,179.663 153.5,179.5C 153.833,180.167 154.167,180.833 154.5,181.5C 151.5,181.5 148.5,181.5 145.5,181.5C 145.5,182.5 145.5,183.5 145.5,184.5C 144.539,186.265 144.205,188.265 144.5,190.5C 143.127,190.657 141.793,190.49 140.5,190C 142.171,188.157 143.171,185.991 143.5,183.5C 145.305,178.751 147.305,174.085 149.5,169.5 Z"/></g>
<g><path style="opacity:1" fill="#595a5a" d="M 212.5,169.5 C 212.5,169.833 212.5,170.167 212.5,170.5C 211.798,173.44 210.798,176.273 209.5,179C 211.81,179.497 214.143,179.663 216.5,179.5C 216.833,180.167 217.167,180.833 217.5,181.5C 214.5,181.5 211.5,181.5 208.5,181.5C 208.737,182.791 208.404,183.791 207.5,184.5C 207.5,183.833 207.167,183.5 206.5,183.5C 208.323,178.68 210.323,174.013 212.5,169.5 Z"/></g>
<g><path style="opacity:1" fill="#f7f8f8" d="M 159.5,170.5 C 160.833,170.5 161.5,169.833 161.5,168.5C 161.611,167.883 161.944,167.383 162.5,167C 164.81,166.503 167.143,166.337 169.5,166.5C 170.114,174.609 169.447,182.442 167.5,190C 169.5,190.667 171.5,190.667 173.5,190C 172.518,182.253 172.185,174.42 172.5,166.5C 174.527,166.338 176.527,166.505 178.5,167C 179.823,167.816 180.489,168.983 180.5,170.5C 179.597,173.391 179.264,176.391 179.5,179.5C 181.833,179.5 184.167,179.5 186.5,179.5C 186.813,183.042 186.479,186.375 185.5,189.5C 184.624,189.369 183.957,189.702 183.5,190.5C 189.138,191.33 194.804,191.83 200.5,192C 198.423,192.192 196.423,192.692 194.5,193.5C 199.456,194.494 204.456,194.827 209.5,194.5C 209.5,199.5 209.5,204.5 209.5,209.5C 214.5,209.5 219.5,209.5 224.5,209.5C 224.5,214.5 224.5,219.5 224.5,224.5C 229.5,224.5 234.5,224.5 239.5,224.5C 239.5,229.5 239.5,234.5 239.5,239.5C 244.5,239.5 249.5,239.5 254.5,239.5C 254.5,244.5 254.5,249.5 254.5,254.5C 249.5,254.5 244.5,254.5 239.5,254.5C 239.5,259.5 239.5,264.5 239.5,269.5C 234.5,269.5 229.5,269.5 224.5,269.5C 224.5,264.5 224.5,259.5 224.5,254.5C 219.5,254.5 214.5,254.5 209.5,254.5C 209.5,249.5 209.5,244.5 209.5,239.5C 204.5,239.5 199.5,239.5 194.5,239.5C 194.5,234.5 194.5,229.5 194.5,224.5C 189.5,224.5 184.5,224.5 179.5,224.5C 179.5,219.5 179.5,214.5 179.5,209.5C 174.5,209.5 169.5,209.5 164.5,209.5C 164.5,204.5 164.5,199.5 164.5,194.5C 159.5,194.5 154.5,194.5 149.5,194.5C 149.824,190.445 149.491,186.445 148.5,182.5C 147.201,183.09 146.368,184.09 146,185.5C 145.601,185.272 145.435,184.938 145.5,184.5C 145.5,183.5 145.5,182.5 145.5,181.5C 148.5,181.5 151.5,181.5 154.5,181.5C 155.67,183.65 156.67,185.984 157.5,188.5C 157.291,189.086 156.957,189.586 156.5,190C 158.5,190.667 160.5,190.667 162.5,190C 160.623,187.749 159.123,185.249 158,182.5C 155.88,177.261 154.047,171.928 152.5,166.5C 154.114,164.925 156.114,164.259 158.5,164.5C 158.153,167.341 158.487,169.341 159.5,170.5 Z"/></g>
<g><path style="opacity:1" fill="#ededed" d="M 161.5,164.5 C 172.5,164.5 183.5,164.5 194.5,164.5C 194.5,169.5 194.5,174.5 194.5,179.5C 198.555,179.176 202.555,179.509 206.5,180.5C 205.347,181.687 205.347,182.687 206.5,183.5C 205.914,185.84 204.914,188.007 203.5,190C 204.833,190.667 206.167,190.667 207.5,190C 206.464,188.224 206.464,186.391 207.5,184.5C 208.404,183.791 208.737,182.791 208.5,181.5C 211.5,181.5 214.5,181.5 217.5,181.5C 219.363,184.211 220.029,187.044 219.5,190C 221.5,190.667 223.5,190.667 225.5,190C 224.584,189.722 223.918,189.222 223.5,188.5C 224.5,188.5 225.5,188.5 226.5,188.5C 226.837,192.839 228.503,193.506 231.5,190.5C 233.199,190.66 234.866,190.494 236.5,190C 234.611,186.164 233.945,181.997 234.5,177.5C 236.527,177.338 238.527,177.505 240.5,178C 246.097,182.959 245.43,186.959 238.5,190C 239.094,190.464 239.761,190.631 240.5,190.5C 238.708,191.309 236.708,191.809 234.5,192C 236.744,192.05 238.411,192.883 239.5,194.5C 234.5,194.5 229.5,194.5 224.5,194.5C 224.5,199.5 224.5,204.5 224.5,209.5C 219.5,209.5 214.5,209.5 209.5,209.5C 209.5,204.5 209.5,199.5 209.5,194.5C 204.456,194.827 199.456,194.494 194.5,193.5C 196.423,192.692 198.423,192.192 200.5,192C 194.804,191.83 189.138,191.33 183.5,190.5C 183.957,189.702 184.624,189.369 185.5,189.5C 186.946,190.613 188.613,190.78 190.5,190C 189.179,182.197 189.179,174.363 190.5,166.5C 188.579,165.359 186.579,165.192 184.5,166C 185,166.5 185.5,167 186,167.5C 186.499,171.486 186.666,175.486 186.5,179.5C 184.167,179.5 181.833,179.5 179.5,179.5C 179.264,176.391 179.597,173.391 180.5,170.5C 181.451,169.081 181.784,167.415 181.5,165.5C 174.646,165.824 167.979,165.491 161.5,164.5 Z"/></g>
<g><path style="opacity:1" fill="#232424" d="M 200.5,185.5 C 201.914,189.119 200.581,190.619 196.5,190C 198.644,189.208 199.977,187.708 200.5,185.5 Z"/></g>
<g><path style="opacity:1" fill="#131514" d="M 206.5,183.5 C 207.167,183.5 207.5,183.833 207.5,184.5C 206.464,186.391 206.464,188.224 207.5,190C 206.167,190.667 204.833,190.667 203.5,190C 204.914,188.007 205.914,185.84 206.5,183.5 Z"/></g>
<g><path style="opacity:1" fill="#f3f3f3" d="M 239.5,194.5 C 244.5,194.5 249.5,194.5 254.5,194.5C 254.5,199.5 254.5,204.5 254.5,209.5C 259.5,209.5 264.5,209.5 269.5,209.5C 269.5,214.5 269.5,219.5 269.5,224.5C 274.5,224.5 279.5,224.5 284.5,224.5C 284.5,229.5 284.5,234.5 284.5,239.5C 289.5,239.5 294.5,239.5 299.5,239.5C 299.5,244.5 299.5,249.5 299.5,254.5C 294.5,254.5 289.5,254.5 284.5,254.5C 284.5,259.5 284.5,264.5 284.5,269.5C 279.5,269.5 274.5,269.5 269.5,269.5C 269.5,264.5 269.5,259.5 269.5,254.5C 264.5,254.5 259.5,254.5 254.5,254.5C 254.5,249.5 254.5,244.5 254.5,239.5C 249.5,239.5 244.5,239.5 239.5,239.5C 239.5,234.5 239.5,229.5 239.5,224.5C 234.5,224.5 229.5,224.5 224.5,224.5C 224.5,219.5 224.5,214.5 224.5,209.5C 224.5,204.5 224.5,199.5 224.5,194.5C 229.5,194.5 234.5,194.5 239.5,194.5 Z"/></g>
<g><path style="opacity:1" fill="#f4f4f4" d="M -0.5,254.5 C 4.5,254.5 9.5,254.5 14.5,254.5C 14.5,259.5 14.5,264.5 14.5,269.5C 19.5,269.5 24.5,269.5 29.5,269.5C 29.5,264.5 29.5,259.5 29.5,254.5C 34.5,254.5 39.5,254.5 44.5,254.5C 44.5,259.5 44.5,264.5 44.5,269.5C 49.5,269.5 54.5,269.5 59.5,269.5C 59.5,264.5 59.5,259.5 59.5,254.5C 64.5,254.5 69.5,254.5 74.5,254.5C 74.5,259.5 74.5,264.5 74.5,269.5C 79.5,269.5 84.5,269.5 89.5,269.5C 89.5,264.5 89.5,259.5 89.5,254.5C 94.5,254.5 99.5,254.5 104.5,254.5C 104.5,259.5 104.5,264.5 104.5,269.5C 109.5,269.5 114.5,269.5 119.5,269.5C 119.5,264.5 119.5,259.5 119.5,254.5C 124.5,254.5 129.5,254.5 134.5,254.5C 134.5,259.5 134.5,264.5 134.5,269.5C 139.5,269.5 144.5,269.5 149.5,269.5C 149.5,264.5 149.5,259.5 149.5,254.5C 154.5,254.5 159.5,254.5 164.5,254.5C 169.5,254.5 174.5,254.5 179.5,254.5C 179.5,259.5 179.5,264.5 179.5,269.5C 184.5,269.5 189.5,269.5 194.5,269.5C 194.5,264.5 194.5,259.5 194.5,254.5C 199.5,254.5 204.5,254.5 209.5,254.5C 214.5,254.5 219.5,254.5 224.5,254.5C 224.5,259.5 224.5,264.5 224.5,269.5C 229.5,269.5 234.5,269.5 239.5,269.5C 239.5,264.5 239.5,259.5 239.5,254.5C 244.5,254.5 249.5,254.5 254.5,254.5C 259.5,254.5 264.5,254.5 269.5,254.5C 269.5,259.5 269.5,264.5 269.5,269.5C 274.5,269.5 279.5,269.5 284.5,269.5C 284.5,264.5 284.5,259.5 284.5,254.5C 289.5,254.5 294.5,254.5 299.5,254.5C 304.5,254.5 309.5,254.5 314.5,254.5C 314.5,259.5 314.5,264.5 314.5,269.5C 319.5,269.5 324.5,269.5 329.5,269.5C 329.5,272.833 329.5,276.167 329.5,279.5C 219.5,279.5 109.5,279.5 -0.5,279.5C -0.5,271.167 -0.5,262.833 -0.5,254.5 Z"/></g>
</svg>
