<?xml version="1.0" standalone="no"?>
<!DOCTYPE svg PUBLIC "-//W3C//DTD SVG 20010904//EN"
 "http://www.w3.org/TR/2001/REC-SVG-20010904/DTD/svg10.dtd">
<svg version="1.0" xmlns="http://www.w3.org/2000/svg"
 width="1281.000000pt" height="401.000000pt" viewBox="0 0 1281.000000 401.000000"
 preserveAspectRatio="xMidYMid meet">

<g transform="translate(0.000000,401.000000) scale(0.100000,-0.100000)"
fill="#000000" stroke="none">
<path d="M10 3925 l0 -75 35 0 c33 0 35 2 35 35 0 34 1 35 40 35 l40 0 0 40 0
40 -75 0 -75 0 0 -75z"/>
<path d="M380 3960 l0 -40 105 0 105 0 0 40 0 40 -105 0 -105 0 0 -40z"/>
<path d="M810 3960 l0 -41 108 3 107 3 0 35 0 35 -107 3 -108 3 0 -41z"/>
<path d="M1240 3960 l0 -40 110 0 110 0 0 40 0 40 -110 0 -110 0 0 -40z"/>
<path d="M1680 3960 l0 -40 105 0 105 0 0 40 0 40 -105 0 -105 0 0 -40z"/>
<path d="M2110 3960 l0 -40 105 0 105 0 0 40 0 40 -105 0 -105 0 0 -40z"/>
<path d="M2540 3960 l0 -30 110 0 110 0 0 30 0 30 -110 0 -110 0 0 -30z"/>
<path d="M2980 3960 l0 -30 105 0 105 0 0 30 0 30 -105 0 -105 0 0 -30z"/>
<path d="M3410 3960 l0 -30 105 0 105 0 0 30 0 30 -105 0 -105 0 0 -30z"/>
<path d="M3840 3960 l0 -30 105 0 105 0 0 30 0 30 -105 0 -105 0 0 -30z"/>
<path d="M4280 3960 l0 -30 105 0 105 0 0 30 0 30 -105 0 -105 0 0 -30z"/>
<path d="M4710 3960 l0 -30 105 0 105 0 0 30 0 30 -105 0 -105 0 0 -30z"/>
<path d="M5140 3960 l0 -30 105 0 105 0 0 30 0 30 -105 0 -105 0 0 -30z"/>
<path d="M5580 3960 c0 -28 3 -30 35 -30 34 0 35 -1 35 -40 0 -39 1 -40 35
-40 l35 0 0 70 0 70 -70 0 -70 0 0 -30z"/>
<path d="M10 3520 l0 -110 35 0 35 0 0 110 0 110 -35 0 -35 0 0 -110z"/>
<path d="M5650 3525 l0 -105 35 0 35 0 0 105 0 105 -35 0 -35 0 0 -105z"/>
<path d="M3141 3289 c-98 -56 -276 -256 -427 -479 -104 -153 -200 -316 -389
-660 -359 -652 -512 -878 -746 -1105 -204 -198 -314 -244 -421 -176 -59 37
-88 96 -88 176 0 51 8 75 53 170 44 92 52 119 52 165 -1 92 -61 176 -145 201
-80 24 -198 -39 -292 -155 -189 -235 -228 -561 -89 -746 94 -125 222 -180 419
-180 223 0 459 80 697 237 303 200 667 602 954 1057 100 158 128 184 171 163
33 -17 68 -71 84 -131 56 -202 71 -250 101 -319 50 -116 92 -182 165 -257 89
-91 159 -124 260 -125 170 0 275 99 599 570 126 182 152 203 187 150 12 -18
15 -37 10 -68 -76 -531 -98 -728 -94 -857 3 -119 7 -141 29 -190 63 -135 173
-175 252 -92 47 49 58 101 68 307 18 403 68 568 348 1134 107 217 189 395 209
456 98 304 80 468 -57 514 -174 58 -509 -150 -738 -459 -39 -52 -147 -203
-241 -335 -242 -342 -322 -430 -438 -489 -59 -30 -138 -35 -183 -12 -133 69
-217 334 -182 577 7 46 39 190 72 319 32 129 63 273 68 320 18 163 -18 298
-89 335 -49 25 -118 19 -179 -16z m1675 -524 c122 -36 188 -183 135 -301 -39
-85 -150 -146 -239 -129 -55 10 -115 48 -147 96 -41 58 -47 157 -15 224 24 50
70 90 127 111 50 17 79 17 139 -1z"/>
<path d="M10 3090 l0 -110 35 0 35 0 0 110 0 110 -35 0 -35 0 0 -110z"/>
<path d="M5650 3085 l0 -105 35 0 35 0 0 105 0 105 -35 0 -35 0 0 -105z"/>
<path d="M6815 2999 c-267 -36 -460 -174 -537 -384 -26 -72 -37 -263 -19 -345
17 -81 60 -160 116 -217 91 -90 221 -142 536 -212 300 -67 384 -98 443 -160
23 -24 30 -42 34 -85 7 -81 -5 -122 -45 -167 -66 -73 -173 -109 -328 -109
-247 0 -382 88 -411 268 l-7 42 -193 0 -193 0 6 -58 c20 -219 130 -381 325
-477 142 -69 222 -87 423 -92 328 -9 530 59 679 229 171 196 181 530 20 708
-90 100 -197 144 -550 231 -333 81 -395 102 -443 147 -44 42 -65 100 -55 153
26 135 140 203 339 203 204 0 332 -76 366 -219 6 -27 13 -56 15 -63 3 -10 46
-12 191 -10 l188 3 -3 50 c-17 266 -202 469 -498 546 -92 24 -292 33 -399 18z"/>
<path d="M10866 2953 c-8 -8 -8 -1518 1 -1741 l6 -172 181 2 181 3 3 780 3
780 154 -680 c84 -374 164 -725 177 -780 l23 -100 48 0 c26 1 112 2 192 3
l144 2 10 38 c19 71 341 1503 341 1517 0 8 3 16 8 18 4 3 6 -350 4 -784 l-2
-789 185 0 185 0 0 950 0 950 -287 -2 -287 -3 -170 -739 c-112 -485 -173 -732
-178 -720 -4 11 -82 343 -173 738 -91 396 -167 721 -168 722 -7 5 -575 12
-581 7z"/>
<path d="M9069 2923 c-46 -119 -669 -1865 -669 -1874 0 -6 83 -8 207 -7 l207
3 67 195 67 195 350 3 350 2 11 -32 c5 -18 33 -106 61 -195 l51 -163 216 0
c168 0 214 3 210 13 -2 6 -104 296 -227 642 -214 608 -421 1191 -435 1228 -7
15 -27 17 -231 17 l-224 0 -11 -27z m349 -780 c62 -197 113 -361 112 -365 0
-9 -470 -11 -470 -2 0 15 235 724 240 724 3 0 56 -161 118 -357z"/>
<path d="M10 2650 l0 -110 35 0 35 0 0 110 0 110 -35 0 -35 0 0 -110z"/>
<path d="M5650 2655 l0 -105 35 0 35 0 0 105 0 105 -35 0 -35 0 0 -105z"/>
<path d="M10 2220 l0 -110 35 0 35 0 0 110 0 110 -35 0 -35 0 0 -110z"/>
<path d="M5650 2215 l0 -105 35 0 35 0 0 105 0 105 -35 0 -35 0 0 -105z"/>
<path d="M10 1785 l0 -105 35 0 35 0 0 105 0 105 -35 0 -35 0 0 -105z"/>
<path d="M5650 1785 l0 -105 35 0 35 0 0 105 0 105 -35 0 -35 0 0 -105z"/>
<path d="M10 1350 l0 -110 35 0 35 0 0 110 0 110 -35 0 -35 0 0 -110z"/>
<path d="M5650 1350 l0 -110 35 0 35 0 0 110 0 110 -35 0 -35 0 0 -110z"/>
<path d="M10 915 l0 -105 35 0 35 0 0 105 0 105 -35 0 -35 0 0 -105z"/>
<path d="M5650 915 l0 -105 35 0 35 0 0 105 0 105 -35 0 -35 0 0 -105z"/>
<path d="M10 480 l0 -110 35 0 35 0 0 110 0 110 -35 0 -35 0 0 -110z"/>
<path d="M5650 480 l0 -110 35 0 35 0 0 110 0 110 -35 0 -35 0 0 -110z"/>
<path d="M10 80 l0 -70 75 0 75 0 0 35 c0 34 -1 35 -40 35 -39 0 -40 1 -40 35
0 33 -2 35 -35 35 l-35 0 0 -70z"/>
<path d="M5650 115 c0 -33 -2 -35 -35 -35 -33 0 -35 -2 -35 -35 l0 -35 70 0
70 0 0 70 0 70 -35 0 c-33 0 -35 -2 -35 -35z"/>
<path d="M380 45 l0 -35 105 0 105 0 0 35 0 35 -105 0 -105 0 0 -35z"/>
<path d="M810 45 l0 -35 110 0 110 0 0 35 0 35 -110 0 -110 0 0 -35z"/>
<path d="M1240 45 l0 -35 110 0 110 0 0 35 0 35 -110 0 -110 0 0 -35z"/>
<path d="M1680 45 l0 -35 105 0 105 0 0 35 0 35 -105 0 -105 0 0 -35z"/>
<path d="M2110 45 l0 -35 105 0 105 0 0 35 0 35 -105 0 -105 0 0 -35z"/>
<path d="M2540 45 l0 -35 110 0 110 0 0 35 0 35 -110 0 -110 0 0 -35z"/>
<path d="M2980 45 l0 -35 105 0 105 0 0 35 0 35 -105 0 -105 0 0 -35z"/>
<path d="M3410 45 l0 -35 105 0 105 0 0 35 0 35 -105 0 -105 0 0 -35z"/>
<path d="M3840 45 l0 -35 105 0 105 0 0 35 0 35 -105 0 -105 0 0 -35z"/>
<path d="M4280 45 l0 -35 105 0 105 0 0 35 0 35 -105 0 -105 0 0 -35z"/>
<path d="M4710 45 l0 -35 105 0 105 0 0 35 0 35 -105 0 -105 0 0 -35z"/>
<path d="M5140 45 l0 -35 105 0 105 0 0 35 0 35 -105 0 -105 0 0 -35z"/>
</g>
</svg>
