<?xml version="1.0" standalone="no"?>
<!DOCTYPE svg PUBLIC "-//W3C//DTD SVG 20010904//EN"
 "http://www.w3.org/TR/2001/REC-SVG-20010904/DTD/svg10.dtd">
<svg version="1.0" xmlns="http://www.w3.org/2000/svg"
 width="1182.000000pt" height="725.000000pt" viewBox="0 0 1182.000000 725.000000"
 preserveAspectRatio="xMidYMid meet">

<g transform="translate(0.000000,725.000000) scale(0.100000,-0.100000)"
fill="#000000" stroke="none">
<path d="M0 3625 l0 -3625 5910 0 5910 0 0 3625 0 3625 -5910 0 -5910 0 0
-3625z m11810 3460 l0 -155 -5900 0 -5900 0 0 155 0 155 5900 0 5900 0 0 -155z
m-11570 -480 l0 -55 -55 0 -55 0 0 55 0 55 55 0 55 0 0 -55z m94 3 l19 -53 20
53 c11 28 23 52 28 52 8 0 -28 -98 -42 -114 -5 -5 -20 16 -34 48 -28 62 -28
66 -17 66 4 0 16 -24 26 -52z m383 -40 c-2 -18 -4 -4 -4 32 0 36 2 50 4 33 2
-18 2 -48 0 -65z m347 86 c9 -3 16 -11 16 -17 0 -7 -4 -7 -12 1 -35 35 -82
-14 -60 -63 13 -28 49 -34 58 -10 4 8 10 15 15 15 18 0 -5 -31 -28 -36 -50
-13 -84 57 -46 98 17 19 31 22 57 12z m53 -86 c-2 -18 -4 -4 -4 32 0 36 2 50
4 33 2 -18 2 -48 0 -65z m363 49 l25 -42 3 43 c5 64 22 50 22 -18 0 -33 -4
-60 -10 -60 -5 0 -22 21 -37 48 l-28 47 -6 -50 -6 -50 -1 63 c-1 34 1 62 6 62
4 0 18 -19 32 -43z m-1053 -54 c-2 -16 -4 -5 -4 22 0 28 2 40 4 28 2 -13 2
-35 0 -50z m78 57 c4 -7 -2 -9 -19 -4 -34 8 -35 -13 0 -26 16 -7 24 -16 22
-27 -4 -21 -35 -30 -51 -14 -7 7 -4 8 10 5 31 -8 38 14 9 26 -25 9 -34 29 -19
43 10 11 41 8 48 -3z m55 -65 c10 0 16 12 18 38 4 52 22 47 22 -7 0 -44 0 -44
-32 -43 -32 2 -33 4 -34 47 l-2 45 7 -40 c4 -26 11 -40 21 -40z m124 59 c3 -9
6 -28 6 -44 0 -26 -3 -28 -32 -27 -25 2 -34 7 -36 23 -2 16 4 23 22 28 15 3
26 11 26 16 0 14 -24 12 -38 -2 -7 -7 -12 -8 -12 -2 0 28 54 34 64 8z m76 -29
c0 -25 -4 -45 -10 -45 -5 0 -10 20 -10 45 0 25 5 45 10 45 6 0 10 -20 10 -45z
m80 39 c0 -3 -12 -20 -26 -39 l-25 -34 28 -4 c23 -3 22 -4 -9 -6 -21 0 -38 0
-38 2 0 2 11 19 25 38 l26 34 -23 7 c-19 5 -18 6 10 7 17 1 32 -2 32 -5z m78
-6 c21 -21 13 -38 -18 -38 -16 0 -30 -5 -30 -10 0 -18 29 -23 48 -9 15 13 16
12 3 -4 -22 -27 -55 -18 -59 16 -2 16 -1 35 2 43 7 17 38 18 54 2z m290 -34
c3 -40 3 -41 -30 -40 -47 1 -51 32 -6 50 27 12 30 16 15 21 -9 4 -25 1 -35 -6
-15 -13 -16 -12 -3 4 8 10 24 17 35 15 17 -2 22 -11 24 -44z m77 36 c4 -7 -2
-9 -19 -4 -34 8 -35 -13 0 -26 16 -7 24 -16 22 -27 -4 -20 -35 -30 -50 -15 -6
6 0 8 16 5 34 -7 34 14 1 27 -24 9 -32 29 -18 43 10 11 41 8 48 -3z m80 0 c4
-7 -2 -9 -19 -4 -34 8 -35 -13 0 -26 16 -7 24 -16 22 -27 -4 -20 -35 -30 -50
-15 -6 6 0 8 16 5 34 -7 34 14 1 27 -24 9 -32 29 -18 43 10 11 41 8 48 -3z
m253 -36 c3 -40 3 -41 -30 -40 -26 1 -34 6 -36 22 -2 16 4 23 22 28 15 3 26
11 26 16 0 14 -24 12 -38 -2 -7 -7 -12 -8 -12 -2 0 18 13 25 40 22 22 -3 25
-9 28 -44z m128 -4 l1 -45 -4 43 c-3 34 -8 43 -21 40 -11 -2 -19 -17 -23 -43
l-6 -40 -2 43 c-1 46 -27 60 -35 20 -3 -13 -7 -32 -9 -43 -3 -11 -5 1 -6 26
l-1 46 53 -1 52 -1 1 -45z m92 23 c3 -18 -2 -22 -27 -25 -24 -2 -29 -6 -21
-18 8 -13 13 -13 31 -2 18 11 20 11 17 0 -12 -35 -68 -13 -68 26 0 46 62 64
68 19z m6502 -2603 l0 -2430 -4110 0 -4110 0 0 2430 0 2430 4110 0 4110 0 0
-2430z m3360 -620 l0 -3050 -1650 0 -1650 0 0 3050 0 3050 1650 0 1650 0 0
-3050z m-11380 -1985 l0 -115 -90 0 -90 0 0 115 0 115 90 0 90 0 0 -115z
m8020 0 l0 -115 -800 0 -800 0 0 115 0 115 800 0 800 0 0 -115z m-8213 -22
c-2 -16 -4 -3 -4 27 0 30 2 43 4 28 2 -16 2 -40 0 -55z m6553 27 l0 -50 -3175
0 -3175 0 0 50 0 50 3175 0 3175 0 0 -50z m-6360 -295 l0 -115 -90 0 -90 0 0
115 0 115 90 0 90 0 0 -115z m8020 0 l0 -115 -800 0 -800 0 0 115 0 115 800 0
800 0 0 -115z m-8213 -22 c-2 -16 -4 -3 -4 27 0 30 2 43 4 28 2 -16 2 -40 0
-55z m6553 27 l0 -50 -3175 0 -3175 0 0 50 0 50 3175 0 3175 0 0 -50z m-4560
-480 l0 -300 -1000 0 -1000 0 0 300 0 300 1000 0 1000 0 0 -300z m6220 0 l0
-300 -3080 0 -3080 0 0 300 0 300 3080 0 3080 0 0 -300z"/>
<path d="M453 7100 c0 -30 2 -43 4 -27 2 15 2 39 0 55 -2 15 -4 2 -4 -28z"/>
<path d="M672 7102 c-2 -50 0 -53 20 -50 12 2 23 9 24 16 1 7 0 8 -3 2 -2 -5
-11 -10 -18 -10 -9 0 -15 16 -18 48 l-3 47 -2 -53z"/>
<path d="M803 7100 c0 -30 2 -43 4 -27 2 15 2 39 0 55 -2 15 -4 2 -4 -28z"/>
<path d="M11070 7100 l0 -50 50 0 50 0 0 50 0 50 -50 0 -50 0 0 -50z m90 0 l0
-40 -40 0 -40 0 0 40 0 40 40 0 40 0 0 -40z"/>
<path d="M11549 7128 l24 -28 -24 -27 -24 -28 28 24 27 24 28 -24 27 -24 -24
28 -24 27 24 28 24 27 -27 -24 -28 -24 -27 24 -28 24 24 -27z"/>
<path d="M315 7113 c8 -18 15 -40 16 -50 0 -12 3 -9 8 8 5 14 14 36 20 50 l12
24 -19 -23 -18 -24 -17 24 c-17 22 -17 22 -2 -9z"/>
<path d="M552 7098 c-2 -46 -1 -48 26 -47 22 1 23 2 5 6 -18 3 -23 13 -26 46
l-4 42 -1 -47z"/>
<path d="M385 7109 c-4 -6 -4 -13 -1 -16 3 -4 6 -1 6 6 0 8 8 11 20 8 11 -3
18 -1 14 4 -7 12 -31 11 -39 -2z"/>
<path d="M485 7109 c-4 -6 -4 -13 -1 -16 3 -4 6 -1 6 6 0 8 8 11 20 8 11 -3
18 -1 14 4 -7 12 -31 11 -39 -2z"/>
<path d="M630 7111 c13 -9 12 -12 -5 -26 -16 -12 -17 -14 -2 -9 9 3 17 1 17
-4 0 -6 -8 -13 -17 -15 -13 -3 -12 -5 5 -6 20 -1 23 3 20 31 -2 17 -10 33 -18
35 -13 4 -13 3 0 -6z"/>
<path d="M690 7116 c0 -2 7 -7 16 -10 8 -3 12 -2 9 4 -6 10 -25 14 -25 6z"/>
<path d="M747 7113 c-17 -16 -6 -33 21 -32 23 2 24 2 5 6 -13 2 -23 9 -23 15
0 5 7 8 15 4 8 -3 15 -1 15 4 0 11 -23 13 -33 3z"/>
<path d="M10643 7093 c15 -2 39 -2 55 0 15 2 2 4 -28 4 -30 0 -43 -2 -27 -4z"/>
<path d="M380 7072 c0 -18 29 -27 43 -13 9 9 8 11 -7 5 -11 -4 -21 -2 -27 7
-6 10 -9 11 -9 1z"/>
<path d="M480 7072 c0 -18 29 -27 43 -13 9 9 8 11 -7 5 -11 -4 -21 -2 -27 7
-6 10 -9 11 -9 1z"/>
<path d="M748 7058 c5 -5 16 -8 23 -6 8 3 3 7 -10 11 -17 4 -21 3 -13 -5z"/>
<path d="M648 6582 c-22 -4 -24 -32 -3 -32 9 0 18 7 22 15 7 19 3 22 -19 17z"/>
<path d="M877 6613 c-14 -13 -6 -23 18 -23 18 0 23 4 19 15 -6 16 -26 20 -37
8z"/>
<path d="M1168 6583 c-22 -6 -23 -22 -2 -30 15 -5 33 11 34 30 0 7 -4 7 -32 0z"/>
<path d="M1578 6582 c-22 -4 -24 -32 -3 -32 9 0 18 7 22 15 7 19 3 22 -19 17z"/>
<path d="M1787 6605 c-5 -11 0 -15 19 -15 16 0 24 5 22 13 -7 18 -35 20 -41 2z"/>
<path d="M140 4000 l0 -2410 4090 0 4090 0 0 2410 0 2410 -4090 0 -4090 0 0
-2410z m2715 1745 c50 -49 17 -145 -49 -145 -65 0 -102 50 -85 114 17 59 90
76 134 31z m874 -1 c29 -37 27 -89 -4 -119 -19 -20 -34 -25 -75 -25 l-50 0 0
85 0 85 54 0 c47 0 57 -4 75 -26z m232 -14 c5 0 9 -7 9 -15 0 -8 -4 -15 -10
-15 -5 0 -10 -16 -10 -35 0 -19 5 -35 10 -35 6 0 10 -7 10 -16 0 -11 -8 -14
-27 -12 -26 3 -28 7 -31 51 -2 26 -7 47 -13 47 -17 0 -9 23 19 48 27 26 27 26
30 4 2 -12 8 -22 13 -22z m480 0 c5 0 9 -7 9 -15 0 -8 -4 -15 -10 -15 -5 0
-10 -16 -10 -35 0 -19 5 -35 10 -35 6 0 10 -7 10 -16 0 -11 -8 -14 -27 -12
-26 3 -28 7 -31 51 -2 26 -7 47 -13 47 -17 0 -9 23 19 48 27 26 27 26 30 4 2
-12 8 -22 13 -22z m219 18 c13 -15 20 -35 20 -63 0 -61 -26 -85 -95 -85 l-55
0 0 85 0 85 55 0 c43 0 58 -5 75 -22z m80 7 c0 -8 -7 -15 -15 -15 -8 0 -15 7
-15 15 0 8 7 15 15 15 8 0 15 -7 15 -15z m446 -25 c8 0 14 -7 14 -15 0 -8 -7
-15 -15 -15 -10 0 -15 -11 -15 -35 0 -24 5 -35 15 -35 8 0 15 -7 15 -16 0 -11
-8 -14 -27 -12 -26 3 -28 7 -31 51 -2 26 -7 47 -13 47 -15 0 -10 19 14 46 21
25 22 25 25 5 2 -12 10 -21 18 -21z m-2171 -23 c19 -28 19 -57 -1 -86 -13 -18
-23 -22 -45 -17 -27 5 -29 3 -29 -24 0 -20 -5 -30 -15 -30 -12 0 -15 17 -15
89 l0 88 45 1 c35 1 48 -3 60 -21z m129 7 c9 -8 16 -24 16 -35 0 -16 -7 -19
-41 -19 -28 0 -39 -4 -36 -12 2 -8 18 -12 40 -10 30 2 36 0 31 -13 -8 -21 -50
-30 -80 -16 -19 9 -24 18 -24 50 0 45 20 71 55 71 13 0 31 -7 39 -16z m134 10
c20 -4 22 -10 22 -64 0 -47 -3 -60 -15 -60 -11 0 -15 12 -15 45 0 33 -5 47
-16 52 -21 8 -34 -14 -34 -59 0 -27 -4 -38 -15 -38 -12 0 -15 14 -15 65 l0 64
33 -1 c17 0 42 -2 55 -4z m210 -6 c5 -7 12 -36 13 -65 l4 -51 -47 0 c-78 -1
-93 51 -19 72 17 5 31 13 31 18 0 14 -33 23 -38 10 -4 -13 -32 -17 -32 -4 0
29 68 44 88 20z m377 0 c2 -7 5 -36 8 -64 l4 -52 -51 2 c-50 1 -51 2 -51 31 0
24 5 31 33 39 17 5 32 12 32 17 0 16 -20 19 -39 7 -25 -15 -39 -4 -21 17 15
18 79 20 85 3z m213 0 c7 -7 12 -35 12 -64 l0 -51 -44 -1 c-72 -2 -93 53 -28
72 17 5 32 15 32 22 0 17 -27 19 -32 3 -2 -6 -12 -10 -23 -8 -18 4 -18 5 -1
22 20 20 66 23 84 5z m132 -3 c17 -21 4 -32 -20 -17 -23 14 -40 16 -40 4 0 -5
18 -16 40 -25 22 -8 40 -22 40 -30 0 -43 -73 -63 -106 -29 -17 16 -17 17 1 21
11 2 21 -2 23 -8 4 -13 42 -15 42 -2 0 5 -17 18 -37 28 -43 21 -50 35 -28 57
21 20 69 21 85 1z m134 -1 c9 -8 16 -24 16 -35 0 -16 -7 -19 -41 -19 -28 0
-39 -4 -36 -12 2 -8 18 -12 40 -10 30 2 36 0 31 -13 -8 -21 -50 -30 -80 -16
-19 9 -24 18 -24 50 0 45 20 71 55 71 13 0 31 -7 39 -16z m396 -49 c0 -51 -3
-65 -15 -65 -12 0 -15 14 -15 65 0 51 3 65 15 65 12 0 15 -14 15 -65z m110 51
c0 -7 -9 -16 -20 -19 -16 -4 -20 -14 -20 -51 0 -39 -3 -46 -20 -46 -18 0 -20
7 -20 65 l0 65 40 0 c27 0 40 -4 40 -14z m102 2 c9 -7 19 -23 23 -35 6 -22 3
-23 -39 -23 -37 0 -44 -3 -39 -16 4 -12 14 -14 39 -9 35 6 43 -2 22 -23 -17
-17 -58 -15 -80 5 -22 20 -23 70 -1 95 19 21 52 23 75 6z m143 -5 c16 -15 16
-17 0 -26 -12 -6 -20 -5 -25 3 -13 20 -40 3 -40 -25 0 -30 24 -43 46 -25 12
10 17 11 27 1 9 -10 8 -15 -7 -27 -47 -34 -100 -7 -100 51 0 58 60 88 99 48z
m224 -9 c12 -15 21 -32 21 -39 0 -23 -41 -65 -64 -65 -37 0 -66 28 -66 62 0
66 69 92 109 42z m156 13 c2 -6 10 -25 16 -42 l11 -30 15 43 c8 23 21 42 29
42 8 0 14 -4 14 -9 0 -15 -51 -145 -62 -158 -15 -18 -48 -16 -48 2 0 8 7 15
15 15 19 0 19 11 -1 75 -15 46 -19 51 -40 47 -20 -4 -25 -12 -30 -53 -4 -32
-11 -49 -20 -49 -10 0 -14 16 -14 64 l0 63 55 2 c36 0 57 -3 60 -12z m125
-102 c0 -8 -7 -15 -15 -15 -8 0 -15 7 -15 15 0 8 7 15 15 15 8 0 15 -7 15 -15z
m70 0 c0 -8 -7 -15 -15 -15 -8 0 -15 7 -15 15 0 8 7 15 15 15 8 0 15 -7 15
-15z m70 0 c0 -8 -9 -15 -20 -15 -11 0 -20 7 -20 15 0 8 9 15 20 15 11 0 20
-7 20 -15z m-2170 -265 c14 -14 20 -33 20 -65 0 -62 -24 -85 -90 -85 l-50 0 0
85 0 85 50 0 c37 0 55 -5 70 -20z m267 -32 l32 -53 1 53 c0 39 4 52 15 52 12
0 15 -16 15 -85 0 -74 -2 -85 -17 -85 -11 0 -30 21 -48 53 l-30 52 -3 -52 c-2
-38 -7 -53 -18 -53 -11 0 -14 17 -14 85 0 74 2 85 18 85 10 0 30 -21 49 -52z
m419 12 c8 0 14 -7 14 -15 0 -8 -7 -15 -15 -15 -10 0 -15 -11 -15 -35 0 -24 5
-35 15 -35 8 0 15 -7 15 -16 0 -11 -8 -14 -27 -12 -26 3 -28 7 -31 51 -2 26
-7 47 -13 47 -15 0 -10 19 14 46 21 25 22 25 25 5 2 -12 10 -21 18 -21z m134
-45 c0 -78 -2 -85 -20 -85 -18 0 -20 7 -20 85 0 78 2 85 20 85 18 0 20 -7 20
-85z m-730 30 c0 -8 -7 -15 -15 -15 -8 0 -15 7 -15 15 0 8 7 15 15 15 8 0 15
-7 15 -15z m374 -7 c26 -37 20 -48 -25 -48 -28 0 -39 -4 -36 -12 2 -8 17 -12
36 -10 33 2 39 -6 19 -26 -17 -17 -58 -15 -80 5 -39 35 -10 113 42 113 18 0
34 -8 44 -22z m81 5 c6 -17 7 -17 19 0 7 9 21 17 31 17 16 0 16 -2 1 -25 -21
-32 -20 -41 5 -76 l20 -29 -24 0 c-15 0 -28 8 -34 22 l-10 23 -12 -23 c-6 -12
-21 -22 -32 -22 -21 0 -21 0 1 35 20 32 20 36 6 57 -21 29 -20 38 3 38 10 0
22 -8 26 -17z m390 7 c3 -5 18 -3 34 3 44 16 61 -3 61 -69 0 -47 -2 -54 -20
-54 -17 0 -20 7 -20 50 0 36 -4 50 -14 50 -17 0 -26 -22 -26 -66 0 -23 -5 -34
-14 -34 -11 0 -16 14 -18 48 -2 34 -7 47 -18 47 -11 0 -16 -13 -18 -47 -3 -40
-6 -48 -23 -48 -17 0 -19 7 -19 64 l0 64 45 0 c25 0 47 -3 50 -8z m211 2 c7
-4 14 -32 15 -64 l4 -56 -47 0 c-78 -1 -93 51 -19 72 17 5 31 12 31 17 0 16
-20 19 -39 7 -25 -15 -39 -4 -21 17 13 16 57 20 76 7z m122 -4 c9 -9 12 -9 12
0 0 7 7 12 15 12 13 0 15 -14 13 -82 -3 -79 -4 -83 -29 -92 -32 -11 -75 -1
-83 19 -4 12 2 15 36 13 26 -2 42 2 45 10 4 9 -2 11 -21 6 -35 -9 -66 19 -66
59 0 52 48 85 78 55z m164 -5 c10 -9 18 -24 18 -35 0 -14 -8 -18 -41 -18 -28
0 -39 -4 -36 -12 2 -8 18 -12 43 -10 38 3 38 3 20 -17 -40 -44 -100 -17 -100
44 0 58 54 86 96 48z m-1342 -98 c0 -8 -7 -15 -15 -15 -8 0 -15 7 -15 15 0 8
7 15 15 15 8 0 15 -7 15 -15z m-120 -249 c0 -3 13 -41 30 -85 28 -76 28 -81
10 -81 -10 0 -22 9 -25 20 -5 15 -15 20 -40 20 -25 0 -35 -5 -40 -20 -4 -11
-15 -20 -27 -20 -15 0 -18 4 -13 18 4 9 16 42 26 72 11 30 21 61 24 68 4 11
55 18 55 8z m344 -12 c37 -36 6 -94 -51 -94 -30 0 -33 -3 -33 -30 0 -20 -5
-30 -15 -30 -12 0 -15 16 -15 85 l0 85 49 0 c32 0 55 -6 65 -16z m506 -69 c0
-78 -2 -85 -20 -85 -18 0 -20 7 -20 85 0 78 2 85 20 85 18 0 20 -7 20 -85z
m-730 30 c0 -8 -7 -15 -15 -15 -8 0 -15 7 -15 15 0 8 7 15 15 15 8 0 15 -7 15
-15z m344 0 c-3 -7 -14 -15 -25 -18 -15 -4 -19 -14 -19 -51 0 -39 -3 -46 -20
-46 -18 0 -20 7 -20 64 l0 64 44 0 c33 0 43 -3 40 -13z m110 -7 c26 -37 20
-48 -25 -48 -28 0 -39 -4 -36 -12 2 -8 17 -12 36 -10 33 2 39 -6 19 -26 -17
-17 -58 -15 -80 5 -39 35 -10 113 42 113 18 0 34 -8 44 -22z m72 -15 l16 -38
15 38 c8 20 21 37 29 37 18 0 18 -2 -7 -71 -28 -76 -48 -78 -73 -6 -10 28 -21
58 -23 65 -3 6 2 12 11 12 9 0 23 -17 32 -37z m329 27 c4 -6 14 -5 25 3 35 21
55 -2 58 -67 3 -51 1 -56 -18 -56 -17 0 -20 6 -20 51 0 66 -24 62 -28 -4 -3
-39 -6 -47 -23 -47 -16 0 -19 7 -19 51 0 43 -3 50 -17 47 -14 -2 -19 -15 -21
-51 -2 -33 -7 -47 -18 -47 -11 0 -14 15 -14 64 l0 63 45 1 c24 1 47 -3 50 -8z
m201 2 c7 -4 14 -32 15 -64 l4 -56 -47 0 c-78 -1 -93 51 -19 72 17 5 31 12 31
17 0 16 -20 19 -39 7 -25 -15 -39 -4 -21 17 13 16 57 20 76 7z m122 -4 c9 -9
12 -9 12 0 0 7 7 12 15 12 13 0 15 -14 13 -82 -3 -79 -4 -83 -29 -92 -32 -11
-75 -1 -83 19 -4 12 2 15 36 13 26 -2 42 2 45 10 4 9 -2 11 -21 6 -35 -9 -66
19 -66 59 0 52 48 85 78 55z m164 -5 c10 -9 18 -24 18 -35 0 -14 -8 -18 -41
-18 -28 0 -39 -4 -36 -12 2 -8 18 -12 43 -10 38 3 38 3 20 -17 -40 -44 -100
-17 -100 44 0 58 54 86 96 48z m-1342 -98 c0 -8 -7 -15 -15 -15 -8 0 -15 7
-15 15 0 8 7 15 15 15 8 0 15 -7 15 -15z m-68 -267 c26 -26 9 -37 -27 -18 -24
13 -60 7 -51 -9 3 -4 20 -11 37 -15 42 -8 59 -23 59 -52 0 -32 -26 -54 -66
-54 -33 0 -74 28 -74 50 0 16 37 11 44 -6 4 -10 15 -14 33 -12 40 4 35 30 -7
43 -50 14 -60 23 -60 50 0 46 74 61 112 23z m265 -30 l32 -53 1 53 c0 39 4 52
15 52 12 0 15 -16 15 -85 0 -74 -2 -85 -17 -85 -11 0 -30 21 -48 53 l-30 52
-3 -52 c-2 -38 -7 -53 -18 -53 -11 0 -14 17 -14 85 0 74 2 85 18 85 10 0 30
-21 49 -52z m419 12 c8 0 14 -7 14 -15 0 -8 -7 -15 -15 -15 -10 0 -15 -11 -15
-35 0 -24 5 -35 15 -35 8 0 15 -7 15 -16 0 -11 -8 -14 -27 -12 -26 3 -28 7
-31 51 -2 26 -7 47 -13 47 -15 0 -10 19 14 46 21 25 22 25 25 5 2 -12 10 -21
18 -21z m223 24 c21 -15 22 -18 7 -26 -11 -6 -22 -6 -31 2 -37 31 -82 -15 -68
-68 6 -26 47 -39 68 -22 9 8 20 8 31 2 15 -8 14 -11 -7 -26 -32 -22 -71 -20
-103 5 -21 16 -26 29 -26 64 0 35 5 48 26 64 32 25 71 27 103 5z m81 -69 c0
-69 -3 -85 -15 -85 -12 0 -15 16 -15 85 0 69 3 85 15 85 12 0 15 -16 15 -85z
m-900 30 c0 -8 -7 -15 -15 -15 -8 0 -15 7 -15 15 0 8 7 15 15 15 8 0 15 -7 15
-15z m374 -7 c26 -37 20 -48 -25 -48 -28 0 -39 -4 -36 -12 2 -8 17 -12 36 -10
33 2 39 -6 19 -26 -17 -17 -58 -15 -80 5 -39 35 -10 113 42 113 18 0 34 -8 44
-22z m81 5 c6 -17 7 -17 19 0 7 9 21 17 31 17 16 0 16 -2 1 -25 -21 -32 -20
-41 5 -76 l20 -29 -24 0 c-15 0 -28 8 -34 22 l-10 23 -12 -23 c-6 -12 -21 -22
-32 -22 -21 0 -21 0 1 35 20 32 20 36 6 57 -21 29 -20 38 3 38 10 0 22 -8 26
-17z m561 9 c7 -4 14 -32 15 -64 l4 -56 -47 0 c-78 -1 -93 51 -19 72 17 5 31
12 31 17 0 16 -20 19 -39 7 -25 -15 -39 -4 -21 17 13 16 57 20 76 7z m140 -9
c17 -17 17 -18 -1 -22 -11 -2 -21 2 -23 8 -5 14 -42 15 -42 1 0 -5 14 -13 32
-18 39 -10 57 -35 42 -59 -15 -24 -77 -29 -94 -8 -18 22 -4 31 25 15 19 -10
28 -11 37 -2 9 9 7 13 -8 17 -50 16 -64 26 -64 43 0 42 63 58 96 25z m134 2
c17 -21 4 -32 -20 -17 -23 14 -40 16 -40 3 0 -5 15 -15 34 -21 41 -13 52 -36
30 -61 -20 -23 -63 -25 -90 -5 -24 18 -10 34 16 18 11 -7 27 -12 36 -12 25 0
11 23 -22 33 -45 15 -54 35 -28 61 20 20 68 21 84 1z m-1290 -100 c0 -8 -7
-15 -15 -15 -8 0 -15 7 -15 15 0 8 7 15 15 15 8 0 15 -7 15 -15z m-199 -302
l12 -58 15 58 c12 48 18 57 36 57 18 0 25 -10 37 -57 l16 -58 12 58 c10 46 16
57 32 57 11 0 18 -3 16 -7 -2 -5 -12 -43 -21 -85 -14 -64 -21 -78 -37 -78 -15
0 -23 13 -36 62 l-17 62 -19 -62 c-13 -47 -22 -62 -36 -62 -15 0 -22 15 -35
68 -9 37 -19 75 -22 85 -4 12 0 17 15 17 16 0 22 -11 32 -57z m453 41 c37 -36
6 -94 -51 -94 -30 0 -33 -3 -33 -30 0 -20 -5 -30 -15 -30 -12 0 -15 16 -15 85
l0 85 49 0 c32 0 55 -6 65 -16z m595 0 c21 -15 22 -18 7 -26 -11 -6 -22 -6
-31 2 -37 31 -82 -15 -68 -68 6 -26 47 -39 68 -22 9 8 20 8 31 2 15 -8 14 -11
-7 -26 -32 -22 -71 -20 -103 5 -21 16 -26 29 -26 64 0 35 5 48 26 64 32 25 71
27 103 5z m81 -69 c0 -69 -3 -85 -15 -85 -12 0 -15 16 -15 85 0 69 3 85 15 85
12 0 15 -16 15 -85z m-900 30 c0 -8 -7 -15 -15 -15 -8 0 -15 7 -15 15 0 8 7
15 15 15 8 0 15 -7 15 -15z m344 0 c-3 -7 -14 -15 -25 -18 -15 -4 -19 -14 -19
-51 0 -39 -3 -46 -20 -46 -18 0 -20 7 -20 64 l0 64 44 0 c33 0 43 -3 40 -13z
m110 -7 c26 -37 20 -48 -25 -48 -28 0 -39 -4 -36 -12 2 -8 17 -12 36 -10 33 2
39 -6 19 -26 -17 -17 -58 -15 -80 5 -39 35 -10 113 42 113 18 0 34 -8 44 -22z
m72 -15 l16 -38 15 38 c8 20 21 37 29 37 18 0 18 -2 -7 -71 -28 -76 -48 -78
-73 -6 -10 28 -21 58 -23 65 -3 6 2 12 11 12 9 0 23 -17 32 -37z m490 29 c7
-4 14 -32 15 -64 l4 -56 -47 0 c-78 -1 -93 51 -19 72 17 5 31 12 31 17 0 16
-20 19 -39 7 -25 -15 -39 -4 -21 17 13 16 57 20 76 7z m140 -9 c17 -17 17 -18
-1 -22 -11 -2 -21 2 -23 8 -5 14 -42 15 -42 1 0 -5 14 -13 32 -18 39 -10 57
-35 42 -59 -15 -24 -77 -29 -94 -8 -18 22 -4 31 25 15 19 -10 28 -11 37 -2 9
9 7 13 -8 17 -50 16 -64 26 -64 43 0 42 63 58 96 25z m134 2 c17 -21 4 -32
-20 -17 -23 14 -40 16 -40 3 0 -5 15 -15 34 -21 41 -13 52 -36 30 -61 -20 -23
-63 -25 -90 -5 -24 18 -10 34 16 18 11 -7 27 -12 36 -12 25 0 11 23 -22 33
-45 15 -54 35 -28 61 20 20 68 21 84 1z m-1290 -100 c0 -8 -7 -15 -15 -15 -8
0 -15 7 -15 15 0 8 7 15 15 15 8 0 15 -7 15 -15z m-795 -305 c10 -33 22 -57
25 -53 4 4 15 32 25 61 12 38 22 52 36 52 17 0 17 -5 -11 -81 -17 -44 -30 -82
-30 -85 0 -2 -10 -4 -23 -4 -20 0 -26 10 -46 73 -13 39 -26 78 -28 85 -3 7 3
12 14 12 15 0 24 -13 38 -60z m292 5 c8 -27 18 -54 22 -58 4 -4 16 20 26 53
14 46 23 60 37 60 22 0 21 -2 -17 -105 -19 -49 -27 -60 -46 -60 -19 0 -26 12
-50 83 -28 82 -28 83 -7 80 16 -2 25 -16 35 -53z m153 40 c0 -8 -9 -15 -20
-15 -11 0 -20 7 -20 15 0 8 9 15 20 15 11 0 20 -7 20 -15z m480 -70 c0 -78 -2
-85 -20 -85 -18 0 -20 7 -20 85 0 78 2 85 20 85 18 0 20 -7 20 -85z m60 70 c0
-8 -7 -15 -15 -15 -8 0 -15 7 -15 15 0 8 7 15 15 15 8 0 15 -7 15 -15z m479
-1 c20 -15 21 -18 8 -26 -11 -5 -24 -4 -37 4 -31 20 -55 -1 -55 -47 0 -48 22
-65 60 -45 36 19 56 -1 24 -24 -56 -39 -129 0 -129 69 0 69 73 108 129 69z
m81 -69 c0 -69 -3 -85 -15 -85 -12 0 -15 16 -15 85 0 69 3 85 15 85 12 0 15
-16 15 -85z m575 32 l30 -52 3 53 c2 37 7 52 18 52 11 0 14 -17 14 -85 0 -77
-2 -85 -19 -85 -13 0 -30 18 -50 53 l-31 52 0 -52 c0 -40 -4 -53 -15 -53 -12
0 -15 16 -15 85 0 74 2 85 18 85 10 0 29 -21 47 -53z m-1975 -2 c0 -8 -7 -15
-15 -15 -8 0 -15 7 -15 15 0 8 7 15 15 15 8 0 15 -7 15 -15z m300 -50 c0 -58
-2 -65 -20 -65 -18 0 -20 7 -20 65 0 58 2 65 20 65 18 0 20 -7 20 -65z m120
50 c17 -21 4 -32 -20 -17 -23 14 -40 16 -40 3 0 -5 15 -15 34 -21 41 -13 52
-36 30 -61 -20 -23 -63 -25 -90 -5 -24 18 -10 34 16 18 11 -7 27 -12 36 -12
25 0 11 23 -22 33 -45 15 -54 35 -28 61 20 20 68 21 84 1z m80 -36 c0 -43 3
-50 18 -47 13 2 18 15 20 51 3 39 6 47 23 47 17 0 19 -7 19 -63 l0 -64 -50 -1
c-59 -1 -70 12 -70 82 0 39 3 46 20 46 17 0 20 -7 20 -51z m198 39 c5 -7 12
-36 13 -65 l4 -51 -47 0 c-28 -1 -51 5 -58 13 -18 22 -3 52 30 59 31 6 43 36
15 36 -8 0 -15 -4 -15 -10 0 -5 -7 -10 -15 -10 -18 0 -19 12 -3 28 16 16 63
15 76 0z m142 -53 c0 -51 -3 -65 -15 -65 -12 0 -15 14 -15 65 0 51 3 65 15 65
12 0 15 -14 15 -65z m130 48 c0 -9 -14 -32 -32 -50 l-32 -33 37 0 c26 0 37 -4
37 -15 0 -12 -13 -15 -60 -15 -37 0 -60 4 -60 11 0 6 14 29 31 50 l31 39 -26
0 c-16 0 -26 6 -26 15 0 11 12 15 50 15 40 0 50 -3 50 -17z m111 7 c11 -6 19
-21 19 -35 0 -23 -4 -25 -41 -25 -28 0 -39 -4 -36 -12 2 -8 18 -12 41 -10 39
3 48 -11 17 -28 -48 -25 -91 0 -91 52 0 55 44 83 91 58z m449 -9 c5 -11 10
-40 10 -64 l0 -45 -52 2 c-52 1 -53 2 -53 31 0 24 5 31 33 39 17 5 32 15 32
22 0 17 -22 18 -37 3 -6 -6 -17 -9 -23 -7 -9 3 -8 9 4 21 24 23 73 22 86 -2z
m130 4 c17 -21 4 -32 -20 -17 -23 14 -40 16 -40 3 0 -5 15 -15 34 -21 41 -13
52 -36 30 -61 -20 -23 -63 -25 -90 -5 -24 18 -10 34 16 18 11 -7 27 -12 36
-12 25 0 11 23 -22 33 -45 15 -54 35 -28 61 20 20 68 21 84 1z m130 0 c17 -21
4 -32 -20 -17 -23 14 -40 16 -40 4 0 -5 18 -16 40 -25 29 -11 40 -21 40 -36 0
-41 -74 -56 -105 -21 -18 19 -17 20 3 20 12 0 22 -4 22 -10 0 -5 9 -10 20 -10
32 0 23 25 -12 35 -36 11 -51 50 -26 66 21 14 64 10 78 -6z m380 -4 c5 -11 10
-40 10 -64 l0 -45 -52 2 c-52 1 -53 2 -53 31 0 24 5 31 33 39 17 5 32 15 32
22 0 17 -22 18 -37 3 -6 -6 -17 -9 -23 -7 -9 3 -8 9 4 21 24 23 73 22 86 -2z
m135 9 c4 -6 14 -5 25 3 35 21 55 -2 58 -67 3 -51 1 -56 -18 -56 -17 0 -20 6
-20 51 0 66 -24 62 -28 -4 -3 -39 -6 -47 -23 -47 -16 0 -19 7 -19 51 0 43 -3
50 -17 47 -14 -2 -19 -15 -21 -51 -2 -33 -7 -47 -18 -47 -11 0 -14 15 -14 64
l0 63 45 1 c24 1 47 -3 50 -8z m207 -7 c10 -9 18 -24 18 -35 0 -14 -8 -18 -41
-18 -28 0 -39 -4 -36 -12 2 -8 18 -12 43 -10 38 3 38 3 20 -17 -40 -44 -100
-17 -100 44 0 58 54 86 96 48z m-2512 -98 c0 -8 -7 -15 -15 -15 -8 0 -15 7
-15 15 0 8 7 15 15 15 8 0 15 -7 15 -15z m540 -265 c27 -27 35 -65 20 -101
-35 -84 -160 -56 -160 36 0 72 91 114 140 65z m335 -5 c52 -51 16 -145 -55
-145 -43 0 -65 14 -80 49 -36 89 69 163 135 96z m665 10 c0 -11 -11 -15 -40
-15 -33 0 -40 -3 -40 -20 0 -16 7 -20 35 -20 24 0 35 -5 35 -15 0 -10 -11 -15
-35 -15 -33 0 -35 -2 -35 -35 0 -28 -4 -35 -20 -35 -18 0 -20 7 -20 85 l0 85
60 0 c47 0 60 -3 60 -15z m60 0 c0 -8 -7 -15 -15 -15 -8 0 -15 7 -15 15 0 8 7
15 15 15 8 0 15 -7 15 -15z m70 -70 c0 -78 -2 -85 -20 -85 -18 0 -20 7 -20 85
0 78 2 85 20 85 18 0 20 -7 20 -85z m-1040 30 c0 -8 -7 -15 -15 -15 -8 0 -15
7 -15 15 0 8 7 15 15 15 8 0 15 -7 15 -15z m405 -8 c33 -47 4 -112 -46 -105
-26 4 -29 2 -29 -24 0 -18 -5 -28 -15 -28 -12 0 -15 17 -15 89 l0 88 45 1 c35
1 48 -3 60 -21z m127 6 c10 -9 18 -24 18 -35 0 -14 -8 -18 -41 -18 -28 0 -39
-4 -36 -12 2 -8 18 -12 43 -10 38 3 38 3 20 -17 -40 -44 -100 -17 -100 44 0
58 54 86 96 48z m145 5 c19 -15 18 -118 -1 -118 -11 0 -16 14 -18 48 -3 39 -6
47 -23 47 -17 0 -20 -8 -23 -47 -2 -34 -7 -48 -18 -48 -11 0 -14 15 -14 64 l0
64 42 0 c23 1 48 -4 55 -10z m293 -53 c0 -51 -3 -65 -15 -65 -12 0 -15 14 -15
65 0 51 3 65 15 65 12 0 15 -14 15 -65z m182 53 c9 -7 19 -23 23 -35 6 -22 3
-23 -39 -23 -37 0 -44 -3 -39 -16 4 -12 14 -14 39 -9 35 6 43 -2 22 -23 -17
-17 -58 -15 -80 5 -22 20 -23 70 -1 95 19 21 52 23 75 6z m138 -3 c17 -21 4
-32 -20 -17 -23 14 -40 16 -40 4 0 -5 18 -16 40 -25 22 -8 40 -22 40 -30 0
-43 -73 -63 -106 -29 -17 16 -17 17 1 21 11 2 21 -2 23 -8 4 -13 42 -15 42 -2
0 5 -17 18 -37 28 -43 21 -50 35 -28 57 21 20 69 21 85 1z m-1290 -100 c0 -8
-7 -15 -15 -15 -8 0 -15 7 -15 15 0 8 7 15 15 15 8 0 15 -7 15 -15z m-94 -139
c15 -12 17 -17 7 -27 -10 -10 -16 -10 -25 -1 -7 7 -21 12 -33 12 -41 0 -59
-46 -35 -91 12 -21 50 -25 68 -7 9 9 15 9 25 -1 28 -28 -58 -55 -102 -31 -25
13 -45 64 -37 95 15 58 85 85 132 51z m95 -26 c5 0 9 -7 9 -15 0 -8 -4 -15
-10 -15 -5 0 -10 -16 -10 -35 0 -24 5 -35 15 -35 8 0 15 -7 15 -16 0 -11 -8
-14 -27 -12 -26 3 -28 7 -31 51 -2 26 -7 47 -13 47 -5 0 -9 7 -9 15 0 8 5 15
10 15 6 0 10 6 10 14 0 22 25 25 28 4 2 -10 8 -18 13 -18z m159 -45 c0 -69 -3
-85 -15 -85 -12 0 -15 16 -15 85 0 69 3 85 15 85 12 0 15 -16 15 -85z m411 75
c10 -6 19 -17 19 -25 0 -17 -26 -20 -35 -5 -9 14 -58 13 -53 -2 2 -6 23 -18
46 -26 31 -10 44 -20 49 -40 12 -50 -65 -81 -115 -46 -24 17 -30 44 -8 44 7 0
19 -7 26 -15 16 -20 54 -16 58 6 2 10 -9 18 -34 25 -20 5 -43 18 -50 29 -30
46 40 85 97 55z m311 -7 c10 -9 18 -20 18 -25 0 -12 -27 -10 -49 4 -20 12 -56
4 -47 -11 3 -4 20 -11 37 -15 44 -8 59 -23 59 -57 0 -32 -23 -49 -67 -49 -34
0 -46 8 -62 38 -10 19 -9 22 8 22 10 0 22 -7 25 -16 7 -19 61 -15 61 5 0 7
-20 21 -45 30 -34 12 -46 22 -48 41 -7 45 70 69 110 33z m-772 -37 c0 -8 -9
-16 -20 -19 -16 -4 -20 -14 -20 -51 0 -39 -3 -46 -20 -46 -18 0 -20 7 -20 64
l0 64 40 0 c27 1 40 -4 40 -12z m220 -6 c0 -13 7 -20 20 -20 11 0 20 -7 20
-15 0 -8 -9 -15 -20 -15 -13 0 -20 -7 -20 -20 0 -11 -7 -20 -15 -20 -8 0 -15
9 -15 20 0 15 -7 20 -25 20 -16 0 -25 6 -25 15 0 9 9 15 25 15 18 0 25 5 25
20 0 11 7 20 15 20 8 0 15 -9 15 -20z m340 5 c0 -8 -9 -15 -20 -15 -11 0 -20
7 -20 15 0 8 9 15 20 15 11 0 20 -7 20 -15z m348 3 c5 -7 12 -36 13 -65 l4
-51 -47 0 c-78 -1 -93 51 -19 72 17 5 31 13 31 18 0 14 -33 23 -38 10 -4 -13
-32 -17 -32 -4 0 29 68 44 88 20z m82 -30 l13 -43 15 43 c11 27 22 42 34 42
16 0 15 -5 -6 -62 -17 -44 -29 -63 -41 -63 -12 0 -24 19 -41 63 -21 58 -22 62
-5 62 12 0 22 -13 31 -42z m182 30 c9 -7 19 -23 23 -35 6 -22 3 -23 -39 -23
-37 0 -44 -3 -39 -16 4 -12 14 -14 39 -9 35 6 43 -2 22 -23 -17 -17 -58 -15
-80 5 -22 20 -23 70 -1 95 19 21 52 23 75 6z m-612 -103 c0 -8 -9 -15 -20 -15
-11 0 -20 7 -20 15 0 8 9 15 20 15 11 0 20 -7 20 -15z m-1404 -259 c15 -12 17
-17 7 -27 -10 -10 -16 -10 -25 -1 -7 7 -21 12 -33 12 -41 0 -59 -46 -35 -91
12 -21 50 -25 68 -7 9 9 15 9 25 -1 28 -28 -58 -55 -102 -31 -25 13 -45 64
-37 95 15 58 85 85 132 51z m95 -26 c5 0 9 -7 9 -15 0 -8 -4 -15 -10 -15 -5 0
-10 -16 -10 -35 0 -24 5 -35 15 -35 8 0 15 -7 15 -16 0 -11 -8 -14 -27 -12
-26 3 -28 7 -31 51 -2 26 -7 47 -13 47 -5 0 -9 7 -9 15 0 8 5 15 10 15 6 0 10
6 10 14 0 22 25 25 28 4 2 -10 8 -18 13 -18z m159 -45 c0 -69 -3 -85 -15 -85
-12 0 -15 16 -15 85 0 69 3 85 15 85 12 0 15 -16 15 -85z m430 65 c14 -14 20
-33 20 -65 0 -62 -24 -85 -90 -85 l-50 0 0 85 0 85 50 0 c37 0 55 -5 70 -20z
m320 0 c14 -14 20 -33 20 -65 0 -62 -24 -85 -90 -85 l-50 0 0 85 0 85 50 0
c37 0 55 -5 70 -20z m220 -65 c0 -78 -2 -85 -20 -85 -18 0 -20 7 -20 85 0 78
2 85 20 85 18 0 20 -7 20 -85z m211 45 c5 0 9 -7 9 -15 0 -8 -4 -15 -10 -15
-5 0 -10 -16 -10 -35 0 -24 5 -35 15 -35 8 0 15 -7 15 -16 0 -11 -8 -14 -27
-12 -26 3 -28 7 -31 51 -2 26 -7 47 -13 47 -5 0 -9 7 -9 15 0 8 5 15 10 15 6
0 10 6 10 14 0 22 25 25 28 4 2 -10 8 -18 13 -18z m609 -45 c0 -69 -3 -85 -15
-85 -12 0 -15 16 -15 85 0 69 3 85 15 85 12 0 15 -16 15 -85z m-1840 31 c0 -8
-9 -16 -20 -19 -16 -4 -20 -14 -20 -51 0 -39 -3 -46 -20 -46 -18 0 -20 7 -20
64 l0 64 40 0 c27 1 40 -4 40 -12z m220 -6 c0 -13 7 -20 20 -20 11 0 20 -7 20
-15 0 -8 -9 -15 -20 -15 -13 0 -20 -7 -20 -20 0 -11 -7 -20 -15 -20 -8 0 -15
9 -15 20 0 15 -7 20 -25 20 -16 0 -25 6 -25 15 0 9 9 15 25 15 18 0 25 5 25
20 0 11 7 20 15 20 8 0 15 -9 15 -20z m350 5 c0 -8 -7 -15 -15 -15 -8 0 -15 7
-15 15 0 8 7 15 15 15 8 0 15 -7 15 -15z m362 3 c9 -7 19 -23 23 -35 6 -22 3
-23 -39 -23 -37 0 -44 -3 -39 -16 4 -12 14 -14 39 -9 35 6 43 -2 22 -23 -17
-17 -58 -15 -80 5 -22 20 -23 70 -1 95 19 21 52 23 75 6z m200 0 c9 -7 19 -23
23 -35 6 -22 3 -23 -39 -23 -37 0 -44 -3 -39 -16 4 -12 14 -14 39 -9 35 6 43
-2 22 -23 -17 -17 -58 -15 -80 5 -22 20 -23 70 -1 95 19 21 52 23 75 6z m220
-5 c10 -9 18 -24 18 -35 0 -14 -8 -18 -41 -18 -28 0 -39 -4 -36 -12 2 -8 18
-12 43 -10 38 3 38 3 20 -17 -40 -44 -100 -17 -100 44 0 58 54 86 96 48z m194
9 c7 -4 14 -32 15 -64 l4 -56 -47 0 c-78 -1 -93 51 -19 72 17 5 31 12 31 17 0
16 -20 19 -39 7 -25 -15 -39 -4 -21 17 13 16 57 20 76 7z m151 -4 c19 -15 18
-118 -1 -118 -11 0 -16 14 -18 48 -3 39 -6 47 -23 47 -17 0 -20 -8 -23 -47 -2
-34 -7 -48 -18 -48 -11 0 -14 15 -14 64 l0 64 42 0 c23 1 48 -4 55 -10z m268
2 c3 -5 19 -3 36 3 27 11 32 10 45 -7 8 -11 14 -41 14 -68 0 -41 -3 -48 -20
-48 -17 0 -20 7 -20 50 0 36 -4 50 -14 50 -17 0 -26 -22 -26 -66 0 -23 -5 -34
-14 -34 -11 0 -16 14 -18 48 -2 34 -7 47 -18 47 -11 0 -16 -13 -18 -47 -3 -40
-6 -48 -23 -48 -17 0 -19 7 -19 64 l0 64 45 0 c25 0 47 -3 50 -8z m213 -2 c7
-7 12 -35 12 -64 l0 -51 -44 -1 c-72 -2 -93 53 -28 72 17 5 32 15 32 22 0 17
-27 19 -32 3 -2 -6 -12 -10 -23 -8 -18 4 -18 5 -1 22 20 20 66 23 84 5z m162
-57 c0 -82 -17 -111 -64 -111 -31 0 -56 15 -56 33 0 5 18 6 40 2 31 -5 40 -4
40 7 0 10 -9 13 -28 10 -35 -5 -56 18 -56 63 0 49 17 64 75 63 l49 0 0 -67z
m112 57 c9 -7 19 -23 23 -35 6 -22 3 -23 -39 -23 -37 0 -44 -3 -39 -16 4 -12
14 -14 39 -9 35 6 43 -2 22 -23 -17 -17 -58 -15 -80 5 -22 20 -23 70 -1 95 19
21 52 23 75 6z m-1882 -103 c0 -8 -7 -15 -15 -15 -8 0 -15 7 -15 15 0 8 7 15
15 15 8 0 15 -7 15 -15z"/>
<path d="M2766 5724 c-32 -31 -10 -94 33 -94 26 0 41 20 41 55 0 51 -41 73
-74 39z"/>
<path d="M3640 5685 c0 -51 2 -55 23 -55 31 0 47 18 47 55 0 37 -16 55 -47 55
-21 0 -23 -4 -23 -55z"/>
<path d="M4570 5684 l0 -55 33 3 c29 3 32 6 35 41 4 45 -11 67 -44 67 -22 0
-24 -4 -24 -56z"/>
<path d="M2945 5690 c-12 -20 4 -62 23 -58 23 4 24 61 0 66 -9 2 -19 -2 -23
-8z"/>
<path d="M3085 5690 c-4 -6 5 -10 20 -10 15 0 24 4 20 10 -3 6 -12 10 -20 10
-8 0 -17 -4 -20 -10z"/>
<path d="M3443 5653 c-18 -7 -16 -33 2 -33 8 0 15 2 15 4 0 2 3 11 6 20 6 16
0 19 -23 9z"/>
<path d="M3818 5652 c-22 -4 -24 -32 -3 -32 9 0 18 7 22 15 7 19 3 22 -19 17z"/>
<path d="M4026 5647 c-14 -10 -16 -16 -7 -22 15 -9 35 8 30 24 -3 8 -10 7 -23
-2z"/>
<path d="M4285 5690 c-4 -6 5 -10 20 -10 15 0 24 4 20 10 -3 6 -12 10 -20 10
-8 0 -17 -4 -20 -10z"/>
<path d="M4895 5690 c-4 -6 5 -10 20 -10 15 0 24 4 20 10 -3 6 -12 10 -20 10
-8 0 -17 -4 -20 -10z"/>
<path d="M5250 5685 c-17 -21 -2 -50 26 -50 14 0 19 7 19 30 0 34 -24 45 -45
20z"/>
<path d="M3480 5284 l0 -55 32 3 c38 4 55 39 39 81 -8 21 -17 27 -41 27 -30 0
-30 0 -30 -56z"/>
<path d="M3970 5290 c0 -5 9 -10 20 -10 11 0 20 5 20 10 0 6 -9 10 -20 10 -11
0 -20 -4 -20 -10z"/>
<path d="M4678 5252 c-22 -4 -24 -32 -3 -32 9 0 18 7 22 15 7 19 3 22 -19 17z"/>
<path d="M4799 5284 c-9 -11 -10 -20 -2 -32 24 -38 62 -15 48 29 -8 23 -28 24
-46 3z"/>
<path d="M4945 5290 c-4 -6 5 -10 20 -10 15 0 24 4 20 10 -3 6 -12 10 -20 10
-8 0 -17 -4 -20 -10z"/>
<path d="M3502 4902 c-10 -30 -10 -32 14 -32 20 0 23 3 16 18 -5 9 -11 24 -14
32 -3 9 -9 2 -16 -18z"/>
<path d="M3800 4915 c0 -23 4 -26 28 -23 19 2 27 9 27 23 0 14 -8 21 -27 23
-24 3 -28 0 -28 -23z"/>
<path d="M4050 4890 c0 -5 9 -10 20 -10 11 0 20 5 20 10 0 6 -9 10 -20 10 -11
0 -20 -4 -20 -10z"/>
<path d="M4678 4852 c-22 -4 -24 -32 -3 -32 9 0 18 7 22 15 7 19 3 22 -19 17z"/>
<path d="M4799 4884 c-9 -11 -10 -20 -2 -32 24 -38 62 -15 48 29 -8 23 -28 24
-46 3z"/>
<path d="M4945 4890 c-4 -6 5 -10 20 -10 15 0 24 4 20 10 -3 6 -12 10 -20 10
-8 0 -17 -4 -20 -10z"/>
<path d="M3990 4490 c0 -5 9 -10 20 -10 11 0 20 5 20 10 0 6 -9 10 -20 10 -11
0 -20 -4 -20 -10z"/>
<path d="M4658 4452 c-22 -4 -24 -32 -3 -32 9 0 18 7 22 15 7 19 3 22 -19 17z"/>
<path d="M3850 4115 c0 -23 4 -26 28 -23 19 2 27 9 27 23 0 14 -8 21 -27 23
-24 3 -28 0 -28 -23z"/>
<path d="M4100 4090 c0 -5 9 -10 20 -10 11 0 20 5 20 10 0 6 -9 10 -20 10 -11
0 -20 -4 -20 -10z"/>
<path d="M4688 4052 c-22 -4 -24 -32 -3 -32 9 0 18 7 22 15 7 19 3 22 -19 17z"/>
<path d="M3706 3647 c-14 -10 -16 -16 -7 -22 15 -9 35 8 30 24 -3 8 -10 7 -23
-2z"/>
<path d="M4085 3690 c-4 -6 5 -10 20 -10 15 0 24 4 20 10 -3 6 -12 10 -20 10
-8 0 -17 -4 -20 -10z"/>
<path d="M4538 3652 c-20 -4 -23 -17 -7 -28 12 -7 33 10 28 23 -2 5 -12 7 -21
5z"/>
<path d="M5178 3652 c-20 -4 -23 -17 -7 -28 12 -7 33 10 28 23 -2 5 -12 7 -21
5z"/>
<path d="M5515 3690 c-4 -6 5 -10 20 -10 15 0 24 4 20 10 -3 6 -12 10 -20 10
-8 0 -17 -4 -20 -10z"/>
<path d="M3512 3328 c-17 -17 -15 -73 3 -88 23 -19 64 -4 71 26 14 55 -38 98
-74 62z"/>
<path d="M3846 3324 c-32 -31 -10 -94 33 -94 26 0 41 20 41 55 0 51 -41 73
-74 39z"/>
<path d="M4024 3286 c-10 -26 0 -51 21 -51 16 0 20 7 20 30 0 33 -30 49 -41
21z"/>
<path d="M4165 3290 c-4 -6 5 -10 20 -10 15 0 24 4 20 10 -3 6 -12 10 -20 10
-8 0 -17 -4 -20 -10z"/>
<path d="M4785 3290 c-4 -6 5 -10 20 -10 15 0 24 4 20 10 -3 6 -12 10 -20 10
-8 0 -17 -4 -20 -10z"/>
<path d="M4663 2973 c-18 -7 -16 -33 2 -33 8 0 15 2 15 4 0 2 3 11 6 20 6 16
0 19 -23 9z"/>
<path d="M4915 3010 c-4 -6 5 -10 20 -10 15 0 24 4 20 10 -3 6 -12 10 -20 10
-8 0 -17 -4 -20 -10z"/>
<path d="M3550 2604 l0 -55 32 3 c38 4 55 39 39 81 -8 21 -17 27 -41 27 -30 0
-30 0 -30 -56z"/>
<path d="M3870 2604 l0 -55 32 3 c38 4 55 39 39 81 -8 21 -17 27 -41 27 -30 0
-30 0 -30 -56z"/>
<path d="M4035 2610 c-4 -6 5 -10 20 -10 15 0 24 4 20 10 -3 6 -12 10 -20 10
-8 0 -17 -4 -20 -10z"/>
<path d="M4235 2610 c-4 -6 5 -10 20 -10 15 0 24 4 20 10 -3 6 -12 10 -20 10
-8 0 -17 -4 -20 -10z"/>
<path d="M4455 2610 c-4 -6 5 -10 20 -10 15 0 24 4 20 10 -3 6 -12 10 -20 10
-8 0 -17 -4 -20 -10z"/>
<path d="M4668 2572 c-22 -4 -24 -32 -3 -32 9 0 18 7 22 15 7 19 3 22 -19 17z"/>
<path d="M5286 2567 c-14 -10 -16 -16 -7 -22 15 -9 35 8 30 24 -3 8 -10 7 -23
-2z"/>
<path d="M5414 2606 c-10 -26 0 -51 21 -51 16 0 20 7 20 30 0 33 -30 49 -41
21z"/>
<path d="M5555 2610 c-4 -6 5 -10 20 -10 15 0 24 4 20 10 -3 6 -12 10 -20 10
-8 0 -17 -4 -20 -10z"/>
<path d="M8440 6270 l0 -120 480 0 480 0 0 120 0 120 -480 0 -480 0 0 -120z
m364 22 c-1 -7 -2 -25 -2 -42 -3 -48 -22 -34 -22 16 0 32 4 44 13 42 6 -3 12
-10 11 -16z m46 -29 l-1 -48 -19 24 c-11 13 -20 28 -20 35 0 6 7 2 15 -8 14
-19 15 -18 15 12 0 18 2 32 5 32 3 0 5 -21 5 -47z m70 -9 c0 -31 -3 -35 -22
-32 -29 4 -35 28 -9 35 23 6 28 19 9 26 -8 3 -6 6 5 6 13 1 17 -7 17 -35z
m108 -3 l-1 -36 -4 33 c-5 40 -23 42 -23 2 0 -16 -4 -30 -10 -30 -5 0 -10 14
-10 30 0 17 -4 30 -10 30 -5 0 -10 -13 -10 -30 0 -16 -4 -30 -10 -30 -5 0 -10
16 -10 35 0 34 0 34 45 33 l45 -1 -2 -36z m70 16 c3 -12 -3 -17 -20 -17 -23
-1 -23 -1 -3 -16 20 -16 20 -16 0 -12 -21 3 -31 29 -21 54 8 20 40 14 44 -9z"/>
<path d="M8890 6240 c0 -5 5 -10 10 -10 6 0 10 5 10 10 0 6 -4 10 -10 10 -5 0
-10 -4 -10 -10z"/>
<path d="M9065 6270 c-3 -5 1 -10 9 -10 9 0 16 5 16 10 0 6 -4 10 -9 10 -6 0
-13 -4 -16 -10z"/>
<path d="M9440 6270 l0 -120 1110 0 1110 0 0 120 0 120 -1110 0 -1110 0 0
-120z m1147 -27 c-2 -16 -4 -3 -4 27 0 30 2 43 4 28 2 -16 2 -40 0 -55z m-117
58 c-19 -5 -25 -13 -25 -36 0 -25 4 -30 23 -29 12 0 22 -3 22 -8 0 -18 -50 -7
-60 13 -15 27 11 69 43 68 21 -1 20 -1 -3 -8z m85 -46 c0 -23 -5 -31 -22 -33
-26 -4 -41 31 -22 54 20 24 44 13 44 -21z m110 14 c8 -26 -16 -54 -39 -46 -16
6 -22 48 -9 60 14 14 42 6 48 -14z m55 9 c0 -4 -4 -8 -9 -8 -5 0 -12 -12 -14
-27 -3 -24 -4 -22 -6 8 -1 26 3 36 14 36 8 0 15 -4 15 -9z"/>
<path d="M10513 6264 c-8 -21 13 -42 28 -27 13 13 5 43 -11 43 -6 0 -13 -7
-17 -16z"/>
<path d="M10623 6264 c-8 -22 15 -44 26 -25 10 16 4 41 -10 41 -5 0 -12 -7
-16 -16z"/>
<path d="M8420 3240 l0 -2890 1630 0 1630 0 0 2890 0 2890 -1630 0 -1630 0 0
-2890z"/>
<path d="M6760 1395 l0 -95 780 0 780 0 0 95 0 95 -780 0 -780 0 0 -95z m540
55 c12 -7 12 -12 2 -22 -9 -9 -12 -9 -12 1 0 7 -9 11 -22 9 -19 -2 -23 -9 -23
-38 0 -29 4 -36 23 -38 12 -2 22 1 22 7 0 6 5 11 10 11 16 0 11 -27 -6 -34
-41 -16 -74 8 -74 54 0 48 42 74 80 50z m264 -54 c2 -41 -1 -56 -11 -56 -8 0
-13 13 -13 34 0 19 -5 36 -12 38 -7 3 -5 11 7 26 11 12 21 20 23 17 2 -2 5
-29 6 -59z m300 31 c8 -6 7 -10 -1 -14 -15 -6 -18 -53 -3 -53 6 0 10 -5 10
-11 0 -6 -8 -9 -17 -7 -22 4 -36 74 -20 103 8 16 11 17 15 5 3 -8 10 -19 16
-23z m-453 -18 c15 -28 -3 -69 -30 -69 -23 0 -51 25 -51 45 0 20 28 45 50 45
11 0 24 -10 31 -21z m97 -26 c2 -26 -1 -43 -7 -43 -6 0 -11 16 -11 35 0 24 -5
35 -15 35 -10 0 -15 -11 -15 -35 0 -24 -5 -35 -15 -35 -11 0 -15 12 -15 45 l0
44 38 -2 c36 -2 37 -3 40 -44z m132 37 c0 -5 -7 -10 -15 -10 -10 0 -15 -11
-15 -35 0 -19 -4 -35 -10 -35 -5 0 -10 20 -10 45 0 41 2 45 25 45 14 0 25 -4
25 -10z m70 -36 l6 -41 -35 1 c-45 1 -56 31 -17 46 30 11 35 24 6 15 -11 -3
-20 -2 -20 3 0 15 13 23 35 20 15 -2 21 -13 25 -44z m88 27 c3 -9 -2 -11 -19
-7 -21 6 -21 5 4 -9 30 -17 33 -25 15 -43 -17 -17 -43 -15 -59 4 -12 15 -10
16 20 9 23 -5 31 -4 27 4 -4 6 -16 11 -27 11 -19 0 -27 29 -12 44 11 11 46 2
51 -13z"/>
<path d="M7357 1397 c-3 -8 -2 -20 3 -27 11 -18 42 -4 38 17 -4 22 -34 29 -41
10z"/>
<path d="M7665 1370 c-3 -5 1 -10 9 -10 9 0 16 5 16 10 0 6 -4 10 -9 10 -6 0
-13 -4 -16 -10z"/>
<path d="M6760 1105 l0 -95 780 0 780 0 0 95 0 95 -780 0 -780 0 0 -95z m695
5 c0 -46 -3 -55 -19 -58 -38 -8 -59 54 -35 99 6 13 18 19 32 17 20 -3 22 -9
22 -58z m93 -3 c-7 -31 -16 -57 -21 -57 -4 0 -6 8 -3 18 2 9 8 33 11 52 8 38
15 54 21 47 2 -2 -2 -29 -8 -60z m136 31 c22 -63 -41 -124 -64 -63 -9 23 -5
66 7 88 10 18 48 1 57 -25z"/>
<path d="M7414 1136 c-8 -22 -1 -59 14 -64 8 -2 12 9 12 37 0 40 -15 55 -26
27z"/>
<path d="M7640 1110 c0 -29 4 -40 13 -37 6 2 12 19 12 37 0 18 -6 35 -12 38
-9 2 -13 -9 -13 -38z"/>
<path d="M140 630 l0 -280 980 0 980 0 0 280 0 280 -980 0 -980 0 0 -280z
m680 28 c13 -25 13 -31 0 -55 -30 -54 -100 -34 -100 27 0 61 70 81 100 28z
m430 22 c0 -5 -11 -10 -25 -10 -16 0 -25 -6 -25 -15 0 -9 9 -15 25 -15 14 0
25 -4 25 -10 0 -5 -11 -10 -25 -10 -20 0 -25 -5 -25 -25 0 -16 -6 -25 -15 -25
-12 0 -15 13 -15 60 l0 60 40 0 c22 0 40 -4 40 -10z m40 0 c0 -5 -4 -10 -10
-10 -5 0 -10 5 -10 10 0 6 5 10 10 10 6 0 10 -4 10 -10z m50 -50 c0 -33 -4
-60 -10 -60 -6 0 -10 27 -10 60 0 33 4 60 10 60 6 0 10 -27 10 -60z m-419 8
c16 -30 -4 -72 -31 -65 -15 4 -20 0 -20 -14 0 -10 -4 -19 -10 -19 -6 0 -10 26
-10 58 0 59 0 59 30 60 21 0 33 -6 41 -20z m90 -5 c8 -21 5 -23 -22 -23 -18 0
-28 -4 -24 -10 4 -6 16 -8 27 -4 15 4 19 2 16 -7 -12 -36 -68 -15 -68 25 0 47
55 62 71 19z m97 -20 c4 -50 -15 -59 -20 -10 -2 20 -8 32 -18 32 -10 0 -16
-12 -18 -32 -5 -49 -22 -40 -22 11 l0 44 38 -1 c36 -2 37 -3 40 -44z m182 2
c0 -25 -4 -45 -10 -45 -5 0 -10 20 -10 45 0 25 5 45 10 45 6 0 10 -20 10 -45z
m128 33 c20 -20 14 -38 -13 -38 -14 0 -25 -5 -25 -11 0 -7 10 -9 27 -4 24 6
25 4 13 -10 -7 -9 -23 -15 -34 -13 -16 2 -22 11 -24 37 -5 45 28 67 56 39z
m93 -5 c13 -15 11 -16 -16 -10 l-30 7 28 -16 c37 -20 33 -49 -7 -49 -16 0 -31
6 -34 13 -3 9 3 11 22 6 33 -8 34 3 1 16 -24 9 -32 29 -18 43 12 12 40 7 54
-10z"/>
<path d="M744 656 c-11 -29 1 -61 23 -64 29 -4 48 30 33 58 -12 23 -48 27 -56
6z"/>
<path d="M870 615 c0 -26 24 -35 32 -12 7 18 -2 37 -18 37 -8 0 -14 -10 -14
-25z"/>
<path d="M968 633 c7 -3 16 -2 19 1 4 3 -2 6 -13 5 -11 0 -14 -3 -6 -6z"/>
<path d="M1388 633 c7 -3 16 -2 19 1 4 3 -2 6 -13 5 -11 0 -14 -3 -6 -6z"/>
<path d="M2200 630 l0 -280 3060 0 3060 0 0 280 0 280 -3060 0 -3060 0 0 -280z
m70 195 c0 -37 3 -45 19 -45 10 0 21 7 25 15 3 8 12 15 21 15 8 0 15 5 15 11
0 6 -9 8 -22 4 -18 -6 -20 -4 -12 5 22 22 49 7 52 -29 3 -24 0 -32 -10 -28 -7
2 -12 10 -10 16 1 6 -3 11 -9 11 -6 0 -9 -7 -5 -15 4 -12 -4 -15 -39 -15 l-45
0 0 50 c0 28 5 50 10 50 6 0 10 -20 10 -45z m280 0 c0 -37 3 -45 19 -45 10 0
21 7 25 15 3 8 12 15 21 15 8 0 15 5 15 11 0 6 -9 8 -22 4 -18 -6 -20 -4 -12
5 22 22 49 7 52 -29 3 -24 0 -32 -10 -28 -7 2 -12 10 -10 16 1 6 -3 11 -9 11
-6 0 -9 -7 -5 -15 4 -12 -4 -15 -39 -15 l-45 0 0 50 c0 28 5 50 10 50 6 0 10
-20 10 -45z m130 31 c0 -7 9 -16 21 -19 16 -4 20 -12 17 -34 -2 -22 -9 -29
-30 -31 -27 -3 -28 -2 -28 47 0 28 5 51 10 51 6 0 10 -6 10 -14z m150 -36 c0
-27 -4 -50 -10 -50 -5 0 -10 23 -10 50 0 28 5 50 10 50 6 0 10 -22 10 -50z
m140 -1 c0 -49 -1 -50 -27 -47 -22 2 -29 9 -31 31 -3 22 1 30 17 34 12 3 21
12 21 19 0 8 5 14 10 14 6 0 10 -23 10 -51z m80 1 c0 -27 -4 -50 -10 -50 -5 0
-10 23 -10 50 0 28 5 50 10 50 6 0 10 -22 10 -50z m-579 33 c5 -50 2 -82 -6
-80 -11 4 -23 56 -17 75 4 13 22 17 23 5z m939 -13 c0 -5 -4 -10 -10 -10 -5 0
-10 5 -10 10 0 6 5 10 10 10 6 0 10 -4 10 -10z m-974 -11 c4 -8 0 -9 -15 -4
-11 3 -21 2 -21 -3 0 -5 9 -12 21 -15 12 -3 19 -12 17 -19 -6 -18 -38 -23 -52
-8 -8 9 -6 11 12 5 13 -4 22 -2 22 4 0 6 -6 11 -14 11 -18 0 -29 16 -21 30 8
13 42 13 51 -1z m362 -11 c2 -13 -3 -18 -17 -18 -12 0 -21 -5 -21 -11 0 -6 9
-8 23 -4 17 6 19 4 11 -5 -27 -28 -65 7 -50 46 8 21 50 14 54 -8z m100 0 c2
-13 -3 -18 -17 -18 -12 0 -21 -5 -21 -11 0 -6 9 -8 23 -4 17 6 19 4 11 -5 -27
-28 -65 7 -50 46 8 21 50 14 54 -8z m260 -15 c2 -19 -1 -33 -7 -33 -6 0 -11
14 -11 30 0 17 -4 30 -10 30 -5 0 -10 -13 -10 -30 0 -16 -4 -30 -10 -30 -5 0
-10 14 -10 30 0 17 -4 30 -10 30 -5 0 -10 -13 -10 -30 0 -16 -4 -30 -10 -30
-5 0 -10 16 -10 35 l0 34 48 -2 c45 -2 47 -3 50 -34z m70 0 c3 -29 1 -32 -24
-30 -34 3 -44 26 -15 34 12 3 21 10 21 15 0 5 -10 6 -21 3 -15 -5 -19 -4 -14
5 4 6 17 10 28 8 17 -2 23 -11 25 -35z m70 -5 c-2 -32 -8 -44 -22 -46 -10 -2
-23 2 -30 8 -8 9 -6 11 12 5 12 -3 22 -2 22 3 0 5 -9 12 -20 15 -11 3 -20 14
-20 24 0 26 8 33 37 33 22 0 24 -3 21 -42z m70 20 c2 -13 -3 -18 -17 -18 -12
0 -21 -5 -21 -11 0 -6 9 -8 23 -4 17 6 19 4 11 -5 -27 -28 -65 7 -50 46 8 21
50 14 54 -8z m42 -28 c0 -5 -4 -10 -10 -10 -5 0 -10 5 -10 10 0 6 5 10 10 10
6 0 10 -4 10 -10z m-1085 -69 c3 -6 -7 -9 -22 -8 -24 2 -28 -2 -31 -27 -4 -35
9 -50 37 -41 14 4 21 15 21 31 0 13 5 24 10 24 6 0 10 -13 10 -30 0 -16 5 -30
10 -30 6 0 10 14 10 30 0 17 5 30 10 30 6 0 10 -15 10 -34 l0 -34 -57 0 c-32
0 -64 5 -70 10 -16 13 -17 60 -1 76 14 14 54 16 63 3z m405 -41 c0 -27 -4 -50
-10 -50 -5 0 -10 23 -10 50 0 28 5 50 10 50 6 0 10 -22 10 -50z m-79 33 c5
-50 2 -82 -6 -80 -11 4 -23 56 -17 75 4 13 22 17 23 5z m449 -13 c0 -5 -4 -10
-10 -10 -5 0 -10 5 -10 10 0 6 5 10 10 10 6 0 10 -4 10 -10z m-669 -13 c-6 -6
-11 -21 -11 -34 0 -13 -4 -23 -10 -23 -5 0 -10 15 -10 33 0 26 4 33 21 34 17
2 19 -1 10 -10z m117 -9 c2 -13 -3 -18 -17 -18 -12 0 -21 -5 -21 -11 0 -6 9
-8 23 -4 17 6 19 4 11 -5 -20 -20 -49 -8 -52 23 -4 33 -22 26 -22 -9 0 -13 -4
-24 -10 -24 -5 0 -10 15 -10 33 0 33 0 33 47 33 37 -1 48 -5 51 -18z m70 -15
c2 -19 -1 -33 -7 -33 -6 0 -11 14 -11 30 0 17 -4 30 -10 30 -5 0 -10 -13 -10
-30 0 -16 -4 -30 -10 -30 -5 0 -10 16 -10 36 0 33 2 35 28 32 22 -2 28 -8 30
-35z m290 1 c3 -30 2 -31 -37 -31 -38 0 -41 2 -41 29 0 15 -4 28 -10 28 -5 0
-10 -13 -10 -30 0 -16 -4 -30 -10 -30 -5 0 -10 14 -10 30 0 17 -4 30 -10 30
-5 0 -10 -13 -10 -30 0 -16 -4 -30 -10 -30 -5 0 -10 15 -10 34 l0 34 78 -1 77
-2 3 -31z m70 -6 c-2 -32 -8 -44 -22 -46 -10 -2 -23 2 -30 8 -8 9 -6 11 12 5
12 -3 22 -2 22 3 0 5 -9 12 -20 15 -11 3 -20 14 -20 24 0 26 8 33 37 33 22 0
24 -3 21 -42z m80 20 c2 -13 -3 -18 -17 -18 -12 0 -21 -5 -21 -11 0 -6 9 -8
23 -4 17 6 19 4 11 -5 -27 -28 -65 7 -50 46 8 21 50 14 54 -8z m42 -28 c0 -5
-4 -10 -10 -10 -5 0 -10 5 -10 10 0 6 5 10 10 10 6 0 10 -4 10 -10z"/>
<path d="M2680 805 c0 -14 5 -25 10 -25 6 0 10 11 10 25 0 14 -4 25 -10 25 -5
0 -10 -11 -10 -25z"/>
<path d="M2930 805 c0 -14 5 -25 10 -25 6 0 10 11 10 25 0 14 -4 25 -10 25 -5
0 -10 -11 -10 -25z"/>
<path d="M2760 820 c0 -5 5 -10 10 -10 6 0 10 5 10 10 0 6 -4 10 -10 10 -5 0
-10 -4 -10 -10z"/>
<path d="M2860 820 c0 -5 5 -10 10 -10 6 0 10 5 10 10 0 6 -4 10 -10 10 -5 0
-10 -4 -10 -10z"/>
<path d="M3190 789 c0 -5 5 -7 10 -4 6 3 10 8 10 11 0 2 -4 4 -10 4 -5 0 -10
-5 -10 -11z"/>
<path d="M3260 810 c0 -11 5 -20 10 -20 6 0 10 9 10 20 0 11 -4 20 -10 20 -5
0 -10 -9 -10 -20z"/>
<path d="M3330 820 c0 -5 5 -10 10 -10 6 0 10 5 10 10 0 6 -4 10 -10 10 -5 0
-10 -4 -10 -10z"/>
<path d="M2510 680 c0 -5 5 -10 10 -10 6 0 10 5 10 10 0 6 -4 10 -10 10 -5 0
-10 -4 -10 -10z"/>
<path d="M2863 683 c-21 -8 -15 -22 7 -16 11 3 20 9 20 14 0 10 -8 10 -27 2z"/>
<path d="M2870 649 c0 -5 5 -7 10 -4 6 3 10 8 10 11 0 2 -4 4 -10 4 -5 0 -10
-5 -10 -11z"/>
<path d="M2940 670 c0 -11 5 -20 10 -20 6 0 10 9 10 20 0 11 -4 20 -10 20 -5
0 -10 -9 -10 -20z"/>
<path d="M3020 680 c0 -5 5 -10 10 -10 6 0 10 5 10 10 0 6 -4 10 -10 10 -5 0
-10 -4 -10 -10z"/>
</g>
</svg>
