<svg version="1.1" id="Layer_1" xmlns="http://www.w3.org/2000/svg" xmlns:xlink="http://www.w3.org/1999/xlink" x="0px" y="0px"
	 width="100%" viewBox="0 0 500 500" enable-background="new 0 0 500 500" xml:space="preserve">
<path fill="#000000" opacity="1.000000" stroke="none" 
	d="
M269.000000,501.000000 
	C179.333359,501.000000 90.166710,501.000000 1.000048,501.000000 
	C1.000032,334.333405 1.000032,167.666794 1.000016,1.000137 
	C167.666565,1.000092 334.333130,1.000092 500.999756,1.000046 
	C500.999847,167.666519 500.999847,334.333038 500.999939,500.999786 
	C423.833344,501.000000 346.666656,501.000000 269.000000,501.000000 
M83.197540,79.949585 
	C80.931686,81.662407 78.089378,82.959045 76.500137,85.160347 
	C69.751877,94.507614 63.238602,104.033142 56.894463,113.661560 
	C46.986694,128.698425 36.786804,143.579132 27.690536,159.100266 
	C22.529907,167.905914 26.624201,181.287659 34.767509,186.855545 
	C57.549225,202.432236 80.606392,217.607529 103.646133,232.802841 
	C105.707726,234.162537 108.431465,234.518250 111.045601,235.996918 
	C117.384186,240.559036 124.806465,241.807281 132.238953,241.898911 
	C154.728928,242.176208 177.229691,242.286789 199.715729,241.880005 
	C211.257477,241.671219 221.240662,236.595810 227.798401,227.095917 
	C243.262924,204.693176 258.178986,181.910080 273.192963,159.198898 
	C280.444000,148.230453 277.215210,133.132675 266.227234,125.796928 
	C244.412338,111.232903 222.611496,96.646805 200.706268,82.219498 
	C192.146149,76.581612 182.776489,72.294777 172.427826,72.129349 
	C148.774185,71.751213 125.105606,71.750053 101.453804,72.182022 
	C94.999062,72.299911 88.270569,73.781067 83.197540,79.949585 
M141.076309,425.003357 
	C148.180649,427.001190 155.237320,430.493225 162.398117,430.721710 
	C185.518402,431.459412 208.683640,431.320770 231.817795,430.847900 
	C242.105606,430.637604 251.567215,426.464417 257.559753,417.848724 
	C273.280334,395.246582 288.497101,372.291534 303.752411,349.369141 
	C312.389008,336.391907 307.830963,321.109558 295.876831,313.391846 
	C273.997314,299.266205 252.483215,284.575775 230.741043,270.235626 
	C222.717377,264.943573 213.776917,261.321655 204.207504,261.148041 
	C180.405502,260.716309 156.587555,260.798615 132.782242,261.127014 
	C125.231216,261.231171 118.478592,264.511169 112.310097,270.170013 
	C110.229111,271.999908 107.643013,273.489441 106.145187,275.712311 
	C90.896263,298.342773 75.919983,321.157013 60.662270,343.781494 
	C53.215157,354.824249 58.140759,370.542236 66.931679,376.392822 
	C85.456161,388.721313 104.009178,401.007812 122.625038,413.197693 
	C128.578613,417.096161 134.766907,420.636200 141.076309,425.003357 
M286.276337,159.052475 
	C283.870239,161.258408 280.919373,163.096680 279.143555,165.727966 
	C263.894470,188.323013 249.056335,211.197311 233.663315,233.692505 
	C227.183838,243.161530 230.943314,260.135529 240.492538,266.308441 
	C260.261230,279.087524 279.557892,292.594696 299.223785,305.536346 
	C304.438110,308.967773 310.289001,311.431915 316.045593,314.996887 
	C322.773254,316.996613 329.452942,320.505127 336.237335,320.720795 
	C359.031616,321.445374 381.869598,321.313934 404.677704,320.855103 
	C415.172363,320.643982 424.530853,316.221252 430.813324,307.575653 
	C439.291992,295.907867 447.149719,283.782043 455.089630,271.731354 
	C463.393158,259.128845 471.897949,246.627930 479.512268,233.613098 
	C484.635101,224.856857 480.410126,211.038666 471.957947,205.379364 
	C448.792542,189.868607 425.660767,174.305664 402.369232,158.986115 
	C394.366394,153.722412 385.368713,150.261719 375.750854,150.115387 
	C352.938812,149.768295 330.115234,149.804794 307.302094,150.113953 
	C299.594971,150.218414 292.364929,152.695404 286.276337,159.052475 
z"/>
<path fill="#00A8F8" opacity="1.000000" stroke="none" 
	d="
M315.847595,314.340210 
	C310.289001,311.431915 304.438110,308.967773 299.223785,305.536346 
	C279.557892,292.594696 260.261230,279.087524 240.492538,266.308441 
	C230.943314,260.135529 227.183838,243.161530 233.663315,233.692505 
	C249.056335,211.197311 263.894470,188.323013 279.143555,165.727966 
	C280.919373,163.096680 283.870239,161.258408 286.964172,158.967560 
	C296.026245,156.048080 304.078979,156.295517 311.673950,161.304489 
	C313.703583,162.643051 315.821991,163.847031 318.056580,165.421875 
	C337.621063,178.800674 356.945282,191.996552 376.470917,204.887421 
	C386.362061,211.417557 390.763092,228.450256 382.961334,238.659973 
	C377.938110,245.233627 373.588867,252.324066 368.971161,259.205444 
	C358.286713,275.127411 347.622681,291.063080 336.632904,307.120605 
	C330.592743,312.786407 323.353607,313.948425 315.847595,314.340210 
M253.059265,229.636917 
	C250.999466,232.930161 248.972321,236.244385 246.873138,239.512314 
	C242.327164,246.589417 243.272491,251.452576 250.088150,256.016388 
	C270.740417,269.845306 291.384644,283.686249 312.032074,297.522400 
	C318.578979,301.909607 324.474945,300.592407 329.037659,293.803833 
	C342.994293,273.038818 356.973969,252.289307 370.948425,231.536301 
	C374.739014,225.907043 373.475433,219.793106 367.779358,215.953384 
	C364.137360,213.498291 360.595062,210.894638 356.940826,208.458450 
	C339.106720,196.569016 321.332245,184.586807 303.353943,172.918945 
	C297.544189,169.148438 292.731506,170.697968 288.864899,176.452591 
	C277.083435,193.986740 265.279053,211.505478 253.059265,229.636917 
z"/>
<path fill="#A8F800" opacity="1.000000" stroke="none" 
	d="
M140.847824,424.340210 
	C134.766907,420.636200 128.578613,417.096161 122.625038,413.197693 
	C104.009178,401.007812 85.456161,388.721313 66.931679,376.392822 
	C58.140759,370.542236 53.215157,354.824249 60.662270,343.781494 
	C75.919983,321.157013 90.896263,298.342773 106.145187,275.712311 
	C107.643013,273.489441 110.229111,271.999908 113.007637,270.050049 
	C120.295982,267.094482 127.032379,265.600616 133.815125,269.009033 
	C137.981110,271.102509 141.880432,273.726624 146.056427,276.421600 
	C165.385880,289.561859 184.579742,302.361298 203.722275,315.237061 
	C213.871597,322.063721 216.764359,337.412140 209.908478,347.577728 
	C200.183762,361.997131 190.359818,376.350281 180.725845,390.829926 
	C174.987930,399.453827 169.532684,408.265808 163.626297,417.118011 
	C156.666763,422.295746 149.115540,424.451385 140.847824,424.340210 
M137.029144,287.515442 
	C134.762650,285.929260 132.563065,284.235016 130.215073,282.780396 
	C125.927597,280.124176 118.946228,281.376282 116.244576,285.409027 
	C101.592369,307.280365 86.993378,329.187408 72.422096,351.112762 
	C69.603798,355.353455 70.988831,362.195618 75.192940,365.021393 
	C96.781517,379.531982 118.387253,394.017181 140.010406,408.476257 
	C144.242554,411.306183 151.230881,410.053589 153.993469,405.948425 
	C168.604736,384.236023 183.186264,362.503540 197.737686,340.750946 
	C200.957214,335.938171 199.860489,329.061249 195.370605,326.083618 
	C176.148529,313.335663 156.885620,300.649292 137.029144,287.515442 
z"/>
<path fill="#F8A800" opacity="1.000000" stroke="none" 
	d="
M110.847687,235.340240 
	C108.431465,234.518250 105.707726,234.162537 103.646133,232.802841 
	C80.606392,217.607529 57.549225,202.432236 34.767509,186.855545 
	C26.624201,181.287659 22.529907,167.905914 27.690536,159.100266 
	C36.786804,143.579132 46.986694,128.698425 56.894463,113.661560 
	C63.238602,104.033142 69.751877,94.507614 76.500137,85.160347 
	C78.089378,82.959045 80.931686,81.662407 83.922913,79.929863 
	C90.504784,78.436386 96.397583,76.821953 102.167961,80.076035 
	C106.138557,82.315163 109.993179,84.759933 114.072983,87.415741 
	C133.376083,100.523514 152.448746,113.414856 171.659882,126.096405 
	C181.164780,132.370728 185.605469,148.353561 178.722275,158.613632 
	C163.183868,181.775208 147.547119,204.870789 131.632904,228.120636 
	C125.592766,233.786438 118.353661,234.948395 110.847687,235.340240 
M126.060173,211.627029 
	C139.647018,191.574799 153.279785,171.553406 166.782974,151.445007 
	C169.567703,147.298096 167.967834,140.217148 163.751892,137.368896 
	C142.479675,122.997612 121.179893,108.666740 99.834373,94.404610 
	C93.753014,90.341324 87.056366,93.151283 84.064651,97.672432 
	C69.994019,118.936340 56.009441,140.257584 41.850960,161.462753 
	C38.025097,167.192749 40.375420,174.174438 44.674549,176.992538 
	C66.134941,191.059982 87.492905,205.283646 108.894691,219.440582 
	C112.595665,221.888748 117.761772,221.578598 120.982811,218.451187 
	C122.849922,216.638336 124.303215,214.399292 126.060173,211.627029 
z"/>
<path fill="#003E52" opacity="1.000000" stroke="none" 
	d="
M317.899628,165.112793 
	C315.821991,163.847031 313.703583,162.643051 311.673950,161.304489 
	C304.078979,156.295517 296.026245,156.048080 287.252075,158.771194 
	C292.364929,152.695404 299.594971,150.218414 307.302094,150.113953 
	C330.115234,149.804794 352.938812,149.768295 375.750854,150.115387 
	C385.368713,150.261719 394.366394,153.722412 402.369232,158.986115 
	C425.660767,174.305664 448.792542,189.868607 471.957947,205.379364 
	C480.410126,211.038666 484.635101,224.856857 479.512268,233.613098 
	C471.897949,246.627930 463.393158,259.128845 455.089630,271.731354 
	C447.149719,283.782043 439.291992,295.907867 430.813324,307.575653 
	C424.530853,316.221252 415.172363,320.643982 404.677704,320.855103 
	C381.869598,321.313934 359.031616,321.445374 336.237335,320.720795 
	C329.452942,320.505127 322.773254,316.996613 315.946594,314.668549 
	C323.353607,313.948425 330.592743,312.786407 337.104706,307.122650 
	C359.207947,306.997894 380.522034,307.045105 401.835754,306.973877 
	C409.305603,306.948914 416.003052,304.734161 420.383057,298.264069 
	C435.540588,275.873566 450.616638,253.427353 465.605011,230.923294 
	C469.328491,225.332733 467.833771,219.323395 462.141174,215.510864 
	C439.532898,200.369278 417.145233,184.874954 394.119995,170.395187 
	C388.119812,166.621872 380.182373,164.659744 373.006989,164.280258 
	C356.401855,163.402100 339.718475,163.968384 323.067291,164.049377 
	C321.343048,164.057755 319.622101,164.742096 317.899628,165.112793 
z"/>
<path fill="#3E5200" opacity="1.000000" stroke="none" 
	d="
M145.899490,276.112488 
	C141.880432,273.726624 137.981110,271.102509 133.815125,269.009033 
	C127.032379,265.600616 120.295982,267.094482 113.316055,269.891479 
	C118.478592,264.511169 125.231216,261.231171 132.782242,261.127014 
	C156.587555,260.798615 180.405502,260.716309 204.207504,261.148041 
	C213.776917,261.321655 222.717377,264.943573 230.741043,270.235626 
	C252.483215,284.575775 273.997314,299.266205 295.876831,313.391846 
	C307.830963,321.109558 312.389008,336.391907 303.752411,349.369141 
	C288.497101,372.291534 273.280334,395.246582 257.559753,417.848724 
	C251.567215,426.464417 242.105606,430.637604 231.817795,430.847900 
	C208.683640,431.320770 185.518402,431.459412 162.398117,430.721710 
	C155.237320,430.493225 148.180649,427.001190 140.962067,424.671783 
	C149.115540,424.451385 156.666763,422.295746 164.098114,417.120056 
	C186.217209,416.997894 207.540588,417.048004 228.863510,416.972260 
	C236.335388,416.945740 243.018799,414.703552 247.405670,408.234711 
	C262.029144,386.671051 276.379639,364.920685 291.161804,343.467224 
	C295.512726,337.152802 295.081543,329.447510 287.385193,324.481384 
	C265.490601,310.353912 244.224503,295.240814 222.148819,281.413239 
	C216.135086,277.646423 208.208115,275.661652 201.030777,275.281158 
	C184.418762,274.400452 167.728058,274.968384 151.069748,275.049347 
	C149.344635,275.057709 147.622833,275.741882 145.899490,276.112488 
z"/>
<path fill="#523E00" opacity="1.000000" stroke="none" 
	d="
M113.899635,87.112801 
	C109.993179,84.759933 106.138557,82.315163 102.167961,80.076035 
	C96.397583,76.821953 90.504784,78.436386 84.249489,79.784943 
	C88.270569,73.781067 94.999062,72.299911 101.453804,72.182022 
	C125.105606,71.750053 148.774185,71.751213 172.427826,72.129349 
	C182.776489,72.294777 192.146149,76.581612 200.706268,82.219498 
	C222.611496,96.646805 244.412338,111.232903 266.227234,125.796928 
	C277.215210,133.132675 280.444000,148.230453 273.192963,159.198898 
	C258.178986,181.910080 243.262924,204.693176 227.798401,227.095917 
	C221.240662,236.595810 211.257477,241.671219 199.715729,241.880005 
	C177.229691,242.286789 154.728928,242.176208 132.238953,241.898911 
	C124.806465,241.807281 117.384186,240.559036 110.946648,235.668579 
	C118.353661,234.948395 125.592766,233.786438 132.104721,228.122650 
	C153.874222,227.998169 174.858154,227.764740 195.832977,228.100830 
	C206.018112,228.264038 213.267670,224.146057 218.746368,215.865326 
	C232.660889,194.834381 246.709213,173.891983 260.675201,152.895004 
	C264.740875,146.782486 263.532257,140.782776 257.412231,136.687805 
	C235.625839,122.110367 213.776413,107.626648 192.041901,92.972397 
	C185.022705,88.239784 177.191040,86.252869 169.018021,86.096451 
	C152.373123,85.777901 135.717697,85.968376 119.067093,86.049370 
	C117.342926,86.057755 115.622040,86.742104 113.899635,87.112801 
z"/>
<path fill="#000000" opacity="1.000000" stroke="none" 
	d="
M318.056580,165.421875 
	C319.622101,164.742096 321.343048,164.057755 323.067291,164.049377 
	C339.718475,163.968384 356.401855,163.402100 373.006989,164.280258 
	C380.182373,164.659744 388.119812,166.621872 394.119995,170.395187 
	C417.145233,184.874954 439.532898,200.369278 462.141174,215.510864 
	C467.833771,219.323395 469.328491,225.332733 465.605011,230.923294 
	C450.616638,253.427353 435.540588,275.873566 420.383057,298.264069 
	C416.003052,304.734161 409.305603,306.948914 401.835754,306.973877 
	C380.522034,307.045105 359.207947,306.997894 337.422180,306.995239 
	C347.622681,291.063080 358.286713,275.127411 368.971161,259.205444 
	C373.588867,252.324066 377.938110,245.233627 382.961334,238.659973 
	C390.763092,228.450256 386.362061,211.417557 376.470917,204.887421 
	C356.945282,191.996552 337.621063,178.800674 318.056580,165.421875 
z"/>
<path fill="#000000" opacity="1.000000" stroke="none" 
	d="
M253.271423,229.333557 
	C265.279053,211.505478 277.083435,193.986740 288.864899,176.452591 
	C292.731506,170.697968 297.544189,169.148438 303.353943,172.918945 
	C321.332245,184.586807 339.106720,196.569016 356.940826,208.458450 
	C360.595062,210.894638 364.137360,213.498291 367.779358,215.953384 
	C373.475433,219.793106 374.739014,225.907043 370.948425,231.536301 
	C356.973969,252.289307 342.994293,273.038818 329.037659,293.803833 
	C324.474945,300.592407 318.578979,301.909607 312.032074,297.522400 
	C291.384644,283.686249 270.740417,269.845306 250.088150,256.016388 
	C243.272491,251.452576 242.327164,246.589417 246.873138,239.512314 
	C248.972321,236.244385 250.999466,232.930161 253.271423,229.333557 
z"/>
<path fill="#000000" opacity="1.000000" stroke="none" 
	d="
M146.056427,276.421600 
	C147.622833,275.741882 149.344635,275.057709 151.069748,275.049347 
	C167.728058,274.968384 184.418762,274.400452 201.030777,275.281158 
	C208.208115,275.661652 216.135086,277.646423 222.148819,281.413239 
	C244.224503,295.240814 265.490601,310.353912 287.385193,324.481384 
	C295.081543,329.447510 295.512726,337.152802 291.161804,343.467224 
	C276.379639,364.920685 262.029144,386.671051 247.405670,408.234711 
	C243.018799,414.703552 236.335388,416.945740 228.863510,416.972260 
	C207.540588,417.048004 186.217209,416.997894 164.422195,416.995239 
	C169.532684,408.265808 174.987930,399.453827 180.725845,390.829926 
	C190.359818,376.350281 200.183762,361.997131 209.908478,347.577728 
	C216.764359,337.412140 213.871597,322.063721 203.722275,315.237061 
	C184.579742,302.361298 165.385880,289.561859 146.056427,276.421600 
z"/>
<path fill="#000000" opacity="1.000000" stroke="none" 
	d="
M137.333374,287.727936 
	C156.885620,300.649292 176.148529,313.335663 195.370605,326.083618 
	C199.860489,329.061249 200.957214,335.938171 197.737686,340.750946 
	C183.186264,362.503540 168.604736,384.236023 153.993469,405.948425 
	C151.230881,410.053589 144.242554,411.306183 140.010406,408.476257 
	C118.387253,394.017181 96.781517,379.531982 75.192940,365.021393 
	C70.988831,362.195618 69.603798,355.353455 72.422096,351.112762 
	C86.993378,329.187408 101.592369,307.280365 116.244576,285.409027 
	C118.946228,281.376282 125.927597,280.124176 130.215073,282.780396 
	C132.563065,284.235016 134.762650,285.929260 137.333374,287.727936 
z"/>
<path fill="#000000" opacity="1.000000" stroke="none" 
	d="
M114.072983,87.415741 
	C115.622040,86.742104 117.342926,86.057755 119.067093,86.049370 
	C135.717697,85.968376 152.373123,85.777901 169.018021,86.096451 
	C177.191040,86.252869 185.022705,88.239784 192.041901,92.972397 
	C213.776413,107.626648 235.625839,122.110367 257.412231,136.687805 
	C263.532257,140.782776 264.740875,146.782486 260.675201,152.895004 
	C246.709213,173.891983 232.660889,194.834381 218.746368,215.865326 
	C213.267670,224.146057 206.018112,228.264038 195.832977,228.100830 
	C174.858154,227.764740 153.874222,227.998169 132.422211,227.995239 
	C147.547119,204.870789 163.183868,181.775208 178.722275,158.613632 
	C185.605469,148.353561 181.164780,132.370728 171.659882,126.096405 
	C152.448746,113.414856 133.376083,100.523514 114.072983,87.415741 
z"/>
<path fill="#000000" opacity="1.000000" stroke="none" 
	d="
M126.001450,211.989532 
	C124.303215,214.399292 122.849922,216.638336 120.982811,218.451187 
	C117.761772,221.578598 112.595665,221.888748 108.894691,219.440582 
	C87.492905,205.283646 66.134941,191.059982 44.674549,176.992538 
	C40.375420,174.174438 38.025097,167.192749 41.850960,161.462753 
	C56.009441,140.257584 69.994019,118.936340 84.064651,97.672432 
	C87.056366,93.151283 93.753014,90.341324 99.834373,94.404610 
	C121.179893,108.666740 142.479675,122.997612 163.751892,137.368896 
	C167.967834,140.217148 169.567703,147.298096 166.782974,151.445007 
	C153.279785,171.553406 139.647018,191.574799 126.001450,211.989532 
z"/>
</svg>