<?xml version="1.0" encoding="UTF-8"?>
<!DOCTYPE svg PUBLIC "-//W3C//DTD SVG 1.1//EN" "http://www.w3.org/Graphics/SVG/1.1/DTD/svg11.dtd">
<svg xmlns="http://www.w3.org/2000/svg" version="1.1" width="30px" height="30px" style="shape-rendering:geometricPrecision; text-rendering:geometricPrecision; image-rendering:optimizeQuality; fill-rule:evenodd; clip-rule:evenodd" xmlns:xlink="http://www.w3.org/1999/xlink">
<g><path style="opacity:1" fill="#2f5e9e" d="M 20.5,2.5 C 18.8212,2.28519 17.8212,2.95186 17.5,4.5C 14.4467,4.11066 11.78,4.77733 9.5,6.5C 5.84577,9.14099 4.51243,12.8077 5.5,17.5C 5.5,19.1667 5.5,20.8333 5.5,22.5C 4.16667,20.8333 2.83333,19.1667 1.5,17.5C -0.0759354,7.7024 4.2574,2.03574 14.5,0.5C 16.7986,0.599157 18.7986,1.26582 20.5,2.5 Z"/></g>
<g><path style="opacity:1" fill="#376db5" d="M 20.5,2.5 C 23.8446,3.6799 26.0113,6.01324 27,9.5C 27.6936,13.554 27.5269,17.554 26.5,21.5C 25.5084,21.3284 24.8417,21.6618 24.5,22.5C 22.8089,23.8637 21.1423,25.197 19.5,26.5C 15.4659,26.4955 11.4659,26.1621 7.5,25.5C 6.83333,24.5 6.16667,23.5 5.5,22.5C 5.5,20.8333 5.5,19.1667 5.5,17.5C 6.4725,19.1392 7.80584,20.4726 9.5,21.5C 10.7767,22.8976 12.4434,23.5643 14.5,23.5C 17.1016,23.5328 19.1016,22.5328 20.5,20.5C 21.7899,19.9423 22.6232,18.9423 23,17.5C 24.9608,11.5883 23.1274,7.58831 17.5,5.5C 17.5,5.16667 17.5,4.83333 17.5,4.5C 17.8212,2.95186 18.8212,2.28519 20.5,2.5 Z"/></g>
<g><path style="opacity:1" fill="#bfc1c7" d="M 17.5,4.5 C 17.5,4.83333 17.5,5.16667 17.5,5.5C 16.0278,7.80688 14.3611,9.97354 12.5,12C 13.4034,15.0672 14.57,15.5672 16,13.5C 18.1987,13.6795 20.3654,13.6795 22.5,13.5C 20.8287,15.5098 20.162,17.8431 20.5,20.5C 19.1016,22.5328 17.1016,23.5328 14.5,23.5C 12.4434,23.5643 10.7767,22.8976 9.5,21.5C 10.0889,19.6481 10.7556,17.8148 11.5,16C 9.96798,15.3005 8.96798,14.1338 8.5,12.5C 10.3909,11.6893 11.7242,10.3559 12.5,8.5C 11.2192,8.98393 10.2192,8.31726 9.5,6.5C 11.78,4.77733 14.4467,4.11066 17.5,4.5 Z"/></g>
<g><path style="opacity:1" fill="#8c726c" d="M 17.5,5.5 C 23.1274,7.58831 24.9608,11.5883 23,17.5C 22.6232,18.9423 21.7899,19.9423 20.5,20.5C 20.162,17.8431 20.8287,15.5098 22.5,13.5C 20.3654,13.6795 18.1987,13.6795 16,13.5C 14.57,15.5672 13.4034,15.0672 12.5,12C 14.3611,9.97354 16.0278,7.80688 17.5,5.5 Z"/></g>
<g><path style="opacity:1" fill="#947d76" d="M 9.5,6.5 C 10.2192,8.31726 11.2192,8.98393 12.5,8.5C 11.7242,10.3559 10.3909,11.6893 8.5,12.5C 8.96798,14.1338 9.96798,15.3005 11.5,16C 10.7556,17.8148 10.0889,19.6481 9.5,21.5C 7.80584,20.4726 6.4725,19.1392 5.5,17.5C 4.51243,12.8077 5.84577,9.14099 9.5,6.5 Z"/></g>
<g><path style="opacity:0.096" fill="#050812" d="M 1.5,17.5 C 2.83333,19.1667 4.16667,20.8333 5.5,22.5C 6.16667,23.5 6.83333,24.5 7.5,25.5C 3.63488,24.2938 1.63488,21.6271 1.5,17.5 Z"/></g>
<g><path style="opacity:0.039" fill="#d5d5d5" d="M 24.5,22.5 C 24.8417,21.6618 25.5084,21.3284 26.5,21.5C 27.1667,22.8333 28.1667,23.8333 29.5,24.5C 29.5,25.5 29.5,26.5 29.5,27.5C 29.1667,27.5 28.8333,27.5 28.5,27.5C 27.9202,25.2512 26.5869,23.5846 24.5,22.5 Z"/></g>
<g><path style="opacity:0.545" fill="#101011" d="M 24.5,22.5 C 26.5869,23.5846 27.9202,25.2512 28.5,27.5C 28.1667,28.1667 27.8333,28.8333 27.5,29.5C 26.5,29.5 25.5,29.5 24.5,29.5C 23.5994,27.2729 21.9328,26.2729 19.5,26.5C 21.1423,25.197 22.8089,23.8637 24.5,22.5 Z"/></g>
<g><path style="opacity:0.14" fill="#090c15" d="M 7.5,25.5 C 11.4659,26.1621 15.4659,26.4955 19.5,26.5C 18.036,27.1599 16.3693,27.4932 14.5,27.5C 11.7954,27.6839 9.4621,27.0173 7.5,25.5 Z"/></g>
</svg>
