<?xml version="1.0" standalone="yes"?>
<svg xmlns="http://www.w3.org/2000/svg" width="300" height="300">
<path style="fill:#050507; stroke:none;" d="M0 0L0 300L300 300L300 0L0 0z"/>
<path style="fill:#585063; stroke:none;" d="M82 110C93.6414 112.265 95.9728 118.057 104.09 125.714C111.029 132.26 118.092 136.945 122 146L123 146C118.364 130.245 97.6544 124.701 95.135 108C91.8382 86.1447 113.819 58.4615 137 69.189C154.299 77.1947 144.705 98.4886 156.108 109.892C170.602 124.386 197.132 105.468 207.457 127.001C208.968 130.152 209.675 133.578 210.245 137C211.078 141.998 211 146.95 211 152L219 150C219 159.292 223.048 181.293 217.397 188.852C212.994 194.74 198.532 192 192 192L119 192C125.436 194.701 135.049 193 142 193L194 193C200.02 193 212.719 195.381 217.566 191.258C223.236 186.435 220 167.892 220 161L220 86C220 78.6797 222.874 63.3938 217.991 57.4336C213.443 51.8823 195.619 55 189 55L111 55C104.666 55 88.0266 52.068 83.6034 57.3179C80.6914 60.7741 82 67.7996 82 72L82 110z"/>
<path style="fill:#050507; stroke:none;" d="M118 67.6489C101.318 72.6797 90.1283 96.8496 96.1327 113C100.316 124.251 112.521 129.628 119.211 139C125.23 147.433 125.736 158.352 131.13 167C142.525 185.271 164.074 187.015 183 180.644C202.827 173.97 213.66 157.647 210.41 137C209.232 129.518 207.064 121.851 199.961 117.92C186.937 110.712 170.273 121.27 158.015 110.775C142.908 97.8405 155.813 67.739 128 67.0147C124.742 66.9298 121.154 66.6978 118 67.6489z"/>
<path style="fill:#585063; stroke:none;" d="M119.667 71.3333L120.333 71.6667L119.667 71.3333z"/>
<path style="fill:#6d798a; stroke:none;" d="M121 71L121 72L125 72L121 71z"/>
<path style="fill:#989983; stroke:none;" d="M125 71.5177C108.199 72.7947 95.629 94.1504 100.305 110C103.596 121.155 115.558 126.114 122.073 135.001C133.055 149.984 133.227 175.707 156 178.711C160.199 179.264 164.786 179.238 169 178.83C190.186 176.78 206.257 163.887 205.996 142C205.918 135.421 204.753 126.831 198.895 122.738C192.984 118.61 185.541 120.685 179 120.961C169.95 121.342 159.834 119.112 153.043 112.815C139.888 100.615 151.11 69.5333 125 71.5177z"/>
<path style="fill:#6d798a; stroke:none;" d="M128 71L128 72L131 72L128 71z"/>
<path style="fill:#585063; stroke:none;" d="M131.667 71.3333L132.333 71.6667L131.667 71.3333M117 72L118 73L117 72z"/>
<path style="fill:#6d798a; stroke:none;" d="M118 72L119 73L118 72M134 72L135 73L134 72z"/>
<path style="fill:#585063; stroke:none;" d="M135 72L136 73L135 72M115 73L116 74L115 73z"/>
<path style="fill:#6d798a; stroke:none;" d="M116 73L117 74L116 73M136 73L137 74L136 73z"/>
<path style="fill:#585063; stroke:none;" d="M137 73L138 74L137 73M114 74L115 75L114 74M138 74L139 75L138 74M112 75L113 76L112 75z"/>
<path style="fill:#6d798a; stroke:none;" d="M113 75L114 76L113 75M139 75L140 76L139 75z"/>
<path style="fill:#585063; stroke:none;" d="M111 76L112 77L111 76z"/>
<path style="fill:#6d798a; stroke:none;" d="M121 124L121 123L115 119C126.855 119.97 135.781 127.513 134 140L130 138C137.487 156.249 142.03 173.997 165 174L173 126C161.092 125.027 147.424 119.011 143.105 107C139.399 96.6957 142.886 77.6941 128 76.1998C103.159 73.7064 94.7134 119.729 121 124M140 76L141 77L140 76z"/>
<path style="fill:#585063; stroke:none;" d="M110 77L111 78L110 77M141 77L142 78L141 77M109 78L110 79L109 78M142.333 78.6667L142.667 79.3333L142.333 78.6667M108 79L109 80L108 79M107 80L108 81L107 80M106 81L107 82L106 81M143 81L144 82L143 81z"/>
<path style="fill:#6d798a; stroke:none;" d="M106 82L107 83L106 82M143 82L144 83L143 82z"/>
<path style="fill:#585063; stroke:none;" d="M105 83L106 84L105 83M104 84L105 85L104 84M144.333 84.6667L144.667 85.3333L144.333 84.6667z"/>
<path style="fill:#6d798a; stroke:none;" d="M104 85L105 86L104 85z"/>
<path style="fill:#585063; stroke:none;" d="M103 86L104 87L103 86z"/>
<path style="fill:#6d798a; stroke:none;" d="M144.333 86.6667L144.667 87.3333L144.333 86.6667M103 87L104 88L103 87z"/>
<path style="fill:#585063; stroke:none;" d="M102.333 88.6667L102.667 89.3333L102.333 88.6667M145 89L145 93L146 93L145 89z"/>
<path style="fill:#6d798a; stroke:none;" d="M102 90L103 91L102 90z"/>
<path style="fill:#585063; stroke:none;" d="M101 91L102 92L101 91z"/>
<path style="fill:#6d798a; stroke:none;" d="M101 92L102 93L101 92M145.333 93.6667L145.667 94.3333L145.333 93.6667z"/>
<path style="fill:#585063; stroke:none;" d="M100 94L101 95L100 94z"/>
<path style="fill:#6d798a; stroke:none;" d="M100.333 95.6667L100.667 96.3333L100.333 95.6667z"/>
<path style="fill:#585063; stroke:none;" d="M146 96L146 100L147 100L146 96M99 97L99 100L100 100L99 97z"/>
<path style="fill:#6d798a; stroke:none;" d="M99.3333 100.667L99.6667 101.333L99.3333 100.667M146.333 100.667L146.667 101.333L146.333 100.667z"/>
<path style="fill:#585063; stroke:none;" d="M147.333 103.667L147.667 104.333L147.333 103.667z"/>
<path style="fill:#6d798a; stroke:none;" d="M147 105L148 106L147 105M99.3333 106.667L99.6667 107.333L99.3333 106.667z"/>
<path style="fill:#585063; stroke:none;" d="M148 106L149 107L148 106z"/>
<path style="fill:#6d798a; stroke:none;" d="M148 107L149 108L148 107z"/>
<path style="fill:#585063; stroke:none;" d="M99.3333 108.667L99.6667 109.333L99.3333 108.667M149 108L150 109L149 108z"/>
<path style="fill:#6d798a; stroke:none;" d="M149 109L150 110L149 109M82 110L82.6034 140.57L98 147.204L132 169C126.948 159.397 124.928 148.035 118.895 139.001C114.775 132.83 108.248 129.165 103.171 123.91C95.8257 116.308 93.1235 111.438 82 110z"/>
<path style="fill:#585063; stroke:none;" d="M150 110L151 111L150 110z"/>
<path style="fill:#6d798a; stroke:none;" d="M100 111L101 112L100 111z"/>
<path style="fill:#585063; stroke:none;" d="M151 111L152 112L151 111M100 112L101 113L100 112M152 112L153 113L152 112z"/>
<path style="fill:#6d798a; stroke:none;" d="M101 113L102 114L101 113z"/>
<path style="fill:#585063; stroke:none;" d="M153 113L154 114L153 113M101 114L102 115L101 114z"/>
<path style="fill:#6d798a; stroke:none;" d="M154 114L155 115L154 114z"/>
<path style="fill:#585063; stroke:none;" d="M155 114L156 115L155 114M102 115L103 116L102 115M156 115L157 116L156 115z"/>
<path style="fill:#6d798a; stroke:none;" d="M103 116L105 118L103 116M157 116L158 117L157 116z"/>
<path style="fill:#585063; stroke:none;" d="M158 116L159 117L158 116M103 117L104 118L103 117z"/>
<path style="fill:#6d798a; stroke:none;" d="M159 117L160 118L159 117z"/>
<path style="fill:#585063; stroke:none;" d="M160 117L161 118L160 117M104 118L105 119L104 118z"/>
<path style="fill:#6d798a; stroke:none;" d="M162 118L163 119L162 118z"/>
<path style="fill:#585063; stroke:none;" d="M163 118L164 119L163 118M105 119L106 120L105 119M115 119L121 123C122.021 128.537 129.228 136.927 134 140C136.8 127.121 126.979 119.522 115 119z"/>
<path style="fill:#6d798a; stroke:none;" d="M165 119L166 120L165 119z"/>
<path style="fill:#585063; stroke:none;" d="M166.667 119.333L167.333 119.667L166.667 119.333M106 120L107 121L106 120z"/>
<path style="fill:#6d798a; stroke:none;" d="M170.667 120.333L171.333 120.667L170.667 120.333z"/>
<path style="fill:#585063; stroke:none;" d="M172 120L172 121L181 121L172 120z"/>
<path style="fill:#6d798a; stroke:none;" d="M181 120L181 121L184 121L181 120M192.667 120.333L193.333 120.667L192.667 120.333z"/>
<path style="fill:#585063; stroke:none;" d="M194.667 120.333L195.333 120.667L194.667 120.333M107 121L108 122L107 121M197 121L198 122L197 121M108 122L110 124L108 122z"/>
<path style="fill:#6d798a; stroke:none;" d="M109 122L110 123L109 122z"/>
<path style="fill:#585063; stroke:none;" d="M199 122L200 123L199 122z"/>
<path style="fill:#6d798a; stroke:none;" d="M110 123L111 124L110 123z"/>
<path style="fill:#585063; stroke:none;" d="M200 123L201 124L200 123z"/>
<path style="fill:#6d798a; stroke:none;" d="M111 124L112 125L111 124z"/>
<path style="fill:#585063; stroke:none;" d="M201 124L202 125L201 124M112 125L113 126L112 125z"/>
<path style="fill:#6d798a; stroke:none;" d="M121 125L122 126L121 125z"/>
<path style="fill:#9bb2c5; stroke:none;" d="M177 126L175 172C191.124 170.583 201.025 158.332 201 143C200.991 137.49 200.819 130.407 195.786 126.858C190.554 123.168 182.849 125.879 177 126z"/>
<path style="fill:#585063; stroke:none;" d="M202 125L203 126L202 125M113 126L114 127L113 126z"/>
<path style="fill:#6d798a; stroke:none;" d="M122 126L123 127L122 126M202 126L203 127L202 126z"/>
<path style="fill:#585063; stroke:none;" d="M114 127L115 128L114 127z"/>
<path style="fill:#6d798a; stroke:none;" d="M123 127L124 128L123 127z"/>
<path style="fill:#585063; stroke:none;" d="M203 127L204 128L203 127M115 128L117 130L115 128z"/>
<path style="fill:#6d798a; stroke:none;" d="M116 128L117 129L116 128M203 128L204 129L203 128M117 129L118 130L117 129M124 129L125 130L124 129z"/>
<path style="fill:#585063; stroke:none;" d="M204 129L205 130L204 129z"/>
<path style="fill:#6d798a; stroke:none;" d="M118 130L119 131L118 130M125 130L126 131L125 130M204 130L205 131L204 130M119 131L121 133L119 131M126 131L127 132L126 131z"/>
<path style="fill:#585063; stroke:none;" d="M119 132L120 133L119 132z"/>
<path style="fill:#6d798a; stroke:none;" d="M127.333 132.667L127.667 133.333L127.333 132.667z"/>
<path style="fill:#585063; stroke:none;" d="M205.333 132.667L205.667 133.333L205.333 132.667M120 133L121 134L120 133M121 134L122 135L121 134z"/>
<path style="fill:#6d798a; stroke:none;" d="M128 134L129 135L128 134M205.333 134.667L205.667 135.333L205.333 134.667z"/>
<path style="fill:#585063; stroke:none;" d="M122 135L123 136L122 135z"/>
<path style="fill:#6d798a; stroke:none;" d="M123 136L124 137L123 136M129 136L130 137L129 136z"/>
<path style="fill:#585063; stroke:none;" d="M123 137L124 138L123 137z"/>
<path style="fill:#6d798a; stroke:none;" d="M124 138L125 139L124 138z"/>
<path style="fill:#585063; stroke:none;" d="M206 138L206 152L207 152L206 138M124 139L125 140L124 139M125.333 140.667L125.667 141.333L125.333 140.667z"/>
<path style="fill:#989983; stroke:none;" d="M82 142L82 161C92.4826 163.426 101.737 168.685 108.674 177C111.683 180.606 114.302 189.39 118.418 191.397C124.868 194.541 137.848 192 145 192C142.619 165.561 104.608 146.679 82 142z"/>
<path style="fill:#585063; stroke:none;" d="M126.333 142.667L126.667 143.333L126.333 142.667z"/>
<path style="fill:#6d798a; stroke:none;" d="M127 144L128 145L127 144z"/>
<path style="fill:#585063; stroke:none;" d="M127 145L128 146L127 145z"/>
<path style="fill:#6d798a; stroke:none;" d="M128 146L129 147L128 146z"/>
<path style="fill:#585063; stroke:none;" d="M123.333 147.667L123.667 148.333L123.333 147.667M128.333 147.667L128.667 148.333L128.333 147.667M124 149L124 152L125 152L124 149z"/>
<path style="fill:#6d798a; stroke:none;" d="M129 149L130 150L129 149z"/>
<path style="fill:#585063; stroke:none;" d="M129 150L130 151L129 150z"/>
<path style="fill:#6d798a; stroke:none;" d="M137 175L145 192L198 192C203.085 192 213.743 194.019 217.397 189.682C219.877 186.738 219 181.561 219 178L219 150C209.39 150.875 206.25 165.435 199 171.816C180.97 187.683 156.083 187.568 137 175z"/>
<path style="fill:#585063; stroke:none;" d="M125.333 152.667L125.667 153.333L125.333 152.667z"/>
<path style="fill:#6d798a; stroke:none;" d="M130 152L131 153L130 152z"/>
<path style="fill:#585063; stroke:none;" d="M130 153L131 154L130 153z"/>
<path style="fill:#6d798a; stroke:none;" d="M205.333 153.667L205.667 154.333L205.333 153.667z"/>
<path style="fill:#585063; stroke:none;" d="M210 153L210 157L211 157L210 153z"/>
<path style="fill:#6d798a; stroke:none;" d="M131 154L132 155L131 154z"/>
<path style="fill:#585063; stroke:none;" d="M126.333 155.667L126.667 156.333L126.333 155.667M131.333 155.667L131.667 156.333L131.333 155.667M205 155L206 156L205 155z"/>
<path style="fill:#6d798a; stroke:none;" d="M132 157L133 158L132 157z"/>
<path style="fill:#585063; stroke:none;" d="M204.333 157.667L204.667 158.333L204.333 157.667M209 157L209 160L210 160L209 157M127 158L127 161L128 161L127 158M132.333 158.667L132.667 159.333L132.333 158.667M203 159L204 160L203 159z"/>
<path style="fill:#6d798a; stroke:none;" d="M133 160L134 161L133 160z"/>
<path style="fill:#585063; stroke:none;" d="M208 160L207 163L208 160z"/>
<path style="fill:#9bb2c5; stroke:none;" d="M82 161C82 167.986 78.8852 185.319 84.5139 190.397C90.1142 195.449 109.656 192 117 192C113.169 175.877 98.1972 163.392 82 161z"/>
<path style="fill:#585063; stroke:none;" d="M128.333 161.667L128.667 162.333L128.333 161.667M133 161L134 162L133 161M202 161L203 162L202 161z"/>
<path style="fill:#6d798a; stroke:none;" d="M134 162L135 163L134 162z"/>
<path style="fill:#585063; stroke:none;" d="M201 162L202 163L201 162M134 163L135 164L134 163z"/>
<path style="fill:#6d798a; stroke:none;" d="M200 163L201 164L200 163z"/>
<path style="fill:#585063; stroke:none;" d="M206.333 163.667L206.667 164.333L206.333 163.667M129 164L130 165L129 164M135 164L136 165L135 164z"/>
<path style="fill:#6d798a; stroke:none;" d="M199 164L200 165L199 164M136 165L137 166L136 165M198 165L199 166L198 165z"/>
<path style="fill:#585063; stroke:none;" d="M205 165L206 166L205 165M130 166L131 167L130 166M136 166L137 167L136 166z"/>
<path style="fill:#6d798a; stroke:none;" d="M197 166L198 167L197 166z"/>
<path style="fill:#585063; stroke:none;" d="M204 166L205 167L204 166M131 167L132 168L131 167M137 167L138 168L137 167M196 167L197 168L196 167M203 167L204 168L203 167z"/>
<path style="fill:#6d798a; stroke:none;" d="M138 168L139 169L138 168z"/>
<path style="fill:#585063; stroke:none;" d="M195 168L196 169L195 168M202 168L203 169L202 168M132 169L135 174L136 174L132 169z"/>
<path style="fill:#6d798a; stroke:none;" d="M139 169L143 173L139 169M193 169L192 171L193 169z"/>
<path style="fill:#585063; stroke:none;" d="M194 169L195 170L194 169M201 169L202 170L201 169z"/>
<path style="fill:#6d798a; stroke:none;" d="M132 170L133 171L132 170z"/>
<path style="fill:#585063; stroke:none;" d="M139 170L140 171L139 170M193 170L194 171L193 170M200 170L201 171L200 170z"/>
<path style="fill:#6d798a; stroke:none;" d="M133 171L134 172L133 171z"/>
<path style="fill:#585063; stroke:none;" d="M140 171L141 172L140 171M191 171L192 172L191 171M199 171L200 172L199 171z"/>
<path style="fill:#6d798a; stroke:none;" d="M134 172L135 173L134 172z"/>
<path style="fill:#585063; stroke:none;" d="M141 172L142 173L141 172z"/>
<path style="fill:#6d798a; stroke:none;" d="M189 172L190 173L189 172z"/>
<path style="fill:#585063; stroke:none;" d="M190 172L191 173L190 172M198 172L199 173L198 172z"/>
<path style="fill:#6d798a; stroke:none;" d="M143 173L144 174L143 173z"/>
<path style="fill:#585063; stroke:none;" d="M188 173L189 174L188 173M196.667 173.333L197.333 173.667L196.667 173.333M136 174L137 175L136 174M144 174L145 175L144 174M186.667 174.333L187.333 174.667L186.667 174.333M195 174L196 175L195 174M138 175L139 176L138 175M145 175L146 176L145 175z"/>
<path style="fill:#6d798a; stroke:none;" d="M146 175L147 176L146 175M183 175L184 176L183 175z"/>
<path style="fill:#585063; stroke:none;" d="M184 175L185 176L184 175M193.667 175.333L194.333 175.667L193.667 175.333M139 176L140 177L139 176M147 176L148 177L147 176z"/>
<path style="fill:#6d798a; stroke:none;" d="M181 176L182 177L181 176z"/>
<path style="fill:#585063; stroke:none;" d="M182 176L183 177L182 176M192 176L193 177L192 176M140 177L141 178L140 177M148.667 177.333L149.333 177.667L148.667 177.333z"/>
<path style="fill:#6d798a; stroke:none;" d="M177 177L178 178L177 177z"/>
<path style="fill:#585063; stroke:none;" d="M178.667 177.333L179.333 177.667L178.667 177.333M190.667 177.333L191.333 177.667L190.667 177.333M141 178L142 179L141 178M151.667 178.333L152.333 178.667L151.667 178.333z"/>
<path style="fill:#6d798a; stroke:none;" d="M153.667 178.333L154.333 178.667L153.667 178.333M171.667 178.333L172.333 178.667L171.667 178.333z"/>
<path style="fill:#585063; stroke:none;" d="M173 178L173 179L176 179L173 178M188.667 178.333L189.333 178.667L188.667 178.333M143 179L144 180L143 179M156 179L156 180L169 180L156 179M186.667 179.333L187.333 179.667L186.667 179.333M144 180L145 181L144 180M183 180L183 181L186 181L183 180M146 181L147 182L146 181M180 181L180 182L183 182L180 181M148.667 182.333L149.333 182.667L148.667 182.333M176 182L176 183L179 183L176 182M152 183L152 184L156 184L152 183M169 183L169 184L175 184L169 183z"/>
<path style="fill:#989983; stroke:none;" d="M82 187L83 188L82 187z"/>
<path style="fill:#6d798a; stroke:none;" d="M82 188L83 189L82 188z"/>
<path style="fill:#585063; stroke:none;" d="M82 189L83 190L82 189M83 190L84 191L83 190M84 191L85 192L84 191M86 192L87 193L86 192z"/>
<path style="fill:#6d798a; stroke:none;" d="M87 192L87 193L119 193L87 192z"/>
</svg>
