<?xml version="1.0" encoding="UTF-8"?>
<!DOCTYPE svg PUBLIC "-//W3C//DTD SVG 1.1//EN" "http://www.w3.org/Graphics/SVG/1.1/DTD/svg11.dtd">
<svg xmlns="http://www.w3.org/2000/svg" version="1.1" width="512px" height="512px" style="shape-rendering:geometricPrecision; text-rendering:geometricPrecision; image-rendering:optimizeQuality; fill-rule:evenodd; clip-rule:evenodd" xmlns:xlink="http://www.w3.org/1999/xlink">
<g><path style="opacity:0.135" fill="#010101" d="M 201.5,-0.5 C 239.5,-0.5 277.5,-0.5 315.5,-0.5C 365.002,11.9082 408.169,38.2416 445,78.5C 468.021,108.056 484.521,140.223 494.5,175C 513.791,258.951 496.625,333.785 443,399.5C 433.93,407.447 425.43,415.947 417.5,425C 408.013,432.576 398.346,439.909 388.5,447C 393.627,449.397 398.627,452.064 403.5,455C 415,467.833 427.167,480 440,491.5C 444.257,497.664 445.423,504.33 443.5,511.5C 428.167,511.5 412.833,511.5 397.5,511.5C 371.903,502.009 346.903,490.842 322.5,478C 318.167,477.333 313.833,477.333 309.5,478C 270.926,485.448 232.759,484.615 195,475.5C 176.425,469.201 157.258,461.035 137.5,451C 90.8652,422.908 57.8652,386.242 38.5,341C 34.1999,334.801 31.0332,327.968 29,320.5C 9.2254,258.65 11.5587,197.65 36,137.5C 36.4482,135.776 37.2815,135.109 38.5,135.5C 38.1667,134.833 37.8333,134.167 37.5,133.5C 37.8457,132.304 38.3457,132.304 39,133.5C 39.4643,132.906 39.631,132.239 39.5,131.5C 52.5061,104.243 71.1727,78.7435 95.5,55C 112.468,42.0877 128.302,30.9211 143,21.5C 161.572,12.5748 181.072,5.24144 201.5,-0.5 Z"/></g>
<g><path style="opacity:1" fill="#a8d9f4" d="M 476.5,183.5 C 476.625,190.098 477.625,196.431 479.5,202.5C 486.568,281.139 461.568,347.639 404.5,402C 385.768,418.704 364.768,431.87 341.5,441.5C 340.85,441.804 340.183,442.137 339.5,442.5C 325.591,437.21 312.257,430.877 299.5,423.5C 331.696,410.243 358.03,389.577 378.5,361.5C 383.151,356.871 386.818,351.537 389.5,345.5C 396.201,332.097 402.367,318.43 408,304.5C 412.772,288.805 415.939,272.805 417.5,256.5C 418.66,243.34 418.827,230.006 418,216.5C 417.568,211.503 416.401,206.837 414.5,202.5C 403.961,147.834 375.961,104.667 330.5,73C 283.516,43.4492 233.183,36.1158 179.5,51C 115.824,74.1734 73.8244,118.007 53.5,182.5C 50.4475,189.753 48.7808,197.42 48.5,205.5C 38.9109,272.18 56.4109,330.514 101,380.5C 143.104,422.484 193.938,440.817 253.5,435.5C 257.182,435.665 260.848,435.499 264.5,435C 265.416,434.722 266.082,434.222 266.5,433.5C 270.262,433.309 273.929,432.642 277.5,431.5C 289.606,437.721 301.606,444.221 313.5,451C 312.263,451.232 311.263,451.732 310.5,452.5C 221.827,472.049 145.994,449.382 83,384.5C 30.5514,322.702 13.2181,252.035 31,172.5C 46.6969,114.918 79.1969,69.4185 128.5,36C 189.715,-1.24732 254.715,-9.58065 323.5,11C 405.43,41.0951 456.43,98.5951 476.5,183.5 Z"/></g>
<g><path style="opacity:0.05" fill="#000000" d="M 414.5,202.5 C 417.135,220.386 418.135,238.386 417.5,256.5C 415.939,272.805 412.772,288.805 408,304.5C 402.367,318.43 396.201,332.097 389.5,345.5C 345.973,314.543 299.973,287.377 251.5,264C 249.188,248.355 240.188,241.022 224.5,242C 220.899,243.387 217.399,244.887 214,246.5C 186.448,235.095 157.948,226.928 128.5,222C 119.167,221.333 109.833,221.333 100.5,222C 79.9004,227.056 73.7337,239.556 82,259.5C 85.9895,268.82 90.9895,277.487 97,285.5C 105.588,296.759 114.921,307.426 125,317.5C 171.702,361.242 222.535,399.242 277.5,431.5C 273.929,432.642 270.262,433.309 266.5,433.5C 261.972,433.77 257.639,434.437 253.5,435.5C 193.938,440.817 143.104,422.484 101,380.5C 56.4109,330.514 38.9109,272.18 48.5,205.5C 50.2928,197.981 51.9594,190.314 53.5,182.5C 73.8244,118.007 115.824,74.1734 179.5,51C 233.183,36.1158 283.516,43.4492 330.5,73C 375.961,104.667 403.961,147.834 414.5,202.5 Z"/></g>
<g><path style="opacity:0.004" fill="#000000" d="M 39.5,131.5 C 38.8333,130.167 38.8333,130.167 39.5,131.5 Z"/></g>
<g><path style="opacity:0.863" fill="#789aad" d="M 53.5,182.5 C 51.9594,190.314 50.2928,197.981 48.5,205.5C 48.7808,197.42 50.4475,189.753 53.5,182.5 Z"/></g>
<g><path style="opacity:0.929" fill="#658292" d="M 476.5,183.5 C 478.453,189.556 479.453,195.889 479.5,202.5C 477.625,196.431 476.625,190.098 476.5,183.5 Z"/></g>
<g><path style="opacity:0.847" fill="#8fb9d0" d="M 414.5,202.5 C 416.401,206.837 417.568,211.503 418,216.5C 418.827,230.006 418.66,243.34 417.5,256.5C 418.135,238.386 417.135,220.386 414.5,202.5 Z"/></g>
<g><path style="opacity:0.996" fill="#2e2829" d="M 389.5,345.5 C 386.818,351.537 383.151,356.871 378.5,361.5C 378.489,359.983 377.823,358.816 376.5,358C 336.065,325.853 291.898,299.686 244,279.5C 240.773,280.864 237.606,282.364 234.5,284C 220.706,286.283 212.039,280.783 208.5,267.5C 193.741,263.614 178.741,262.114 163.5,263C 146.651,266.533 141.151,276.367 147,292.5C 153.333,306.503 161.666,319.17 172,330.5C 209.477,368.478 251.977,399.478 299.5,423.5C 312.257,430.877 325.591,437.21 339.5,442.5C 340.183,442.137 340.85,441.804 341.5,441.5C 342.574,443.284 344.24,444.451 346.5,445C 358.986,449.288 371.653,452.955 384.5,456C 398.5,470 412.5,484 426.5,498C 387.591,486.799 350.424,471.299 315,451.5C 313.644,452.38 312.144,452.714 310.5,452.5C 311.263,451.732 312.263,451.232 313.5,451C 301.606,444.221 289.606,437.721 277.5,431.5C 222.535,399.242 171.702,361.242 125,317.5C 114.921,307.426 105.588,296.759 97,285.5C 90.9895,277.487 85.9895,268.82 82,259.5C 73.7337,239.556 79.9004,227.056 100.5,222C 109.833,221.333 119.167,221.333 128.5,222C 157.948,226.928 186.448,235.095 214,246.5C 217.399,244.887 220.899,243.387 224.5,242C 240.188,241.022 249.188,248.355 251.5,264C 299.973,287.377 345.973,314.543 389.5,345.5 Z"/></g>
<g><path style="opacity:0.068" fill="#000000" d="M 378.5,361.5 C 358.03,389.577 331.696,410.243 299.5,423.5C 251.977,399.478 209.477,368.478 172,330.5C 161.666,319.17 153.333,306.503 147,292.5C 141.151,276.367 146.651,266.533 163.5,263C 178.741,262.114 193.741,263.614 208.5,267.5C 212.039,280.783 220.706,286.283 234.5,284C 237.606,282.364 240.773,280.864 244,279.5C 291.898,299.686 336.065,325.853 376.5,358C 377.823,358.816 378.489,359.983 378.5,361.5 Z"/></g>
<g><path style="opacity:0.773" fill="#6f8fa0" d="M 266.5,433.5 C 266.082,434.222 265.416,434.722 264.5,435C 260.848,435.499 257.182,435.665 253.5,435.5C 257.639,434.437 261.972,433.77 266.5,433.5 Z"/></g>
</svg>
