<?xml version="1.0" encoding="UTF-8"?>
<!DOCTYPE svg PUBLIC "-//W3C//DTD SVG 1.1//EN" "http://www.w3.org/Graphics/SVG/1.1/DTD/svg11.dtd">
<svg xmlns="http://www.w3.org/2000/svg" version="1.1" width="280px" height="280px" style="shape-rendering:geometricPrecision; text-rendering:geometricPrecision; image-rendering:optimizeQuality; fill-rule:evenodd; clip-rule:evenodd" xmlns:xlink="http://www.w3.org/1999/xlink">
<g><path style="opacity:1" fill="#1255d6" d="M 127.5,-0.5 C 137.5,-0.5 147.5,-0.5 157.5,-0.5C 212.819,9.31302 250.985,40.313 272,92.5C 274.996,102.156 277.496,111.823 279.5,121.5C 279.5,133.5 279.5,145.5 279.5,157.5C 271.597,206.664 245.597,242.664 201.5,265.5C 200.508,265.672 199.842,265.338 199.5,264.5C 199.5,263.833 199.833,263.5 200.5,263.5C 202.404,263.262 203.738,262.262 204.5,260.5C 208.861,255.807 213.195,251.141 217.5,246.5C 218.906,246.027 219.573,245.027 219.5,243.5C 240.31,211.08 242.643,177.413 226.5,142.5C 226.715,140.821 226.048,139.821 224.5,139.5C 203.684,105.519 173.35,89.0194 133.5,90C 106.735,95.6716 92.0682,112.172 89.5,139.5C 90.212,153.915 95.5454,166.249 105.5,176.5C 105.5,177.167 105.167,177.5 104.5,177.5C 91.293,172.154 79.793,164.154 70,153.5C 48.1262,127.291 41.7929,97.6239 51,64.5C 63.7866,27.8807 89.2866,6.21406 127.5,-0.5 Z"/></g>
<g><path style="opacity:1" fill="#7290e5" d="M 76.5,17.5 C 76.5,16.1667 75.8333,15.5 74.5,15.5C 77.7338,12.8812 81.4005,11.3812 85.5,11C 82.4706,13.1761 79.4706,15.3427 76.5,17.5 Z"/></g>
<g><path style="opacity:1" fill="#1255d6" d="M 74.5,15.5 C 75.8333,15.5 76.5,16.1667 76.5,17.5C 47.3553,44.3694 36.8553,77.3694 45,116.5C 59.5033,160.59 89.8366,185.257 136,190.5C 152.916,190.039 167.083,183.705 178.5,171.5C 179.906,171.027 180.573,170.027 180.5,168.5C 193.99,145.376 191.99,123.71 174.5,103.5C 175.209,102.596 176.209,102.263 177.5,102.5C 191.136,108.645 202.47,117.645 211.5,129.5C 211.738,131.404 212.738,132.738 214.5,133.5C 229.811,153.96 235.311,176.96 231,202.5C 221.762,245.573 195.595,271.24 152.5,279.5C 141.833,279.5 131.167,279.5 120.5,279.5C 61.2304,268.403 22.3971,234.07 4,176.5C 2.44535,169.71 0.945347,163.043 -0.5,156.5C -0.5,145.5 -0.5,134.5 -0.5,123.5C 4.01645,90.1332 18.3498,61.7998 42.5,38.5C 45.0892,37.5806 47.0892,35.914 48.5,33.5C 56.1127,26.023 64.7793,20.023 74.5,15.5 Z"/></g>
<g><path style="opacity:0.914" fill="#6987e3" d="M 48.5,33.5 C 47.0892,35.914 45.0892,37.5806 42.5,38.5C 43.9108,36.086 45.9108,34.4194 48.5,33.5 Z"/></g>
<g><path style="opacity:0.694" fill="#90abeb" d="M 177.5,102.5 C 176.209,102.263 175.209,102.596 174.5,103.5C 172.401,102.483 171.401,101.15 171.5,99.5C 173.604,100.519 175.604,101.519 177.5,102.5 Z"/></g>
<g><path style="opacity:0.906" fill="#889fe9" d="M 211.5,129.5 C 213.262,130.262 214.262,131.596 214.5,133.5C 212.738,132.738 211.738,131.404 211.5,129.5 Z"/></g>
<g><path style="opacity:0.878" fill="#90a1ea" d="M 224.5,139.5 C 226.048,139.821 226.715,140.821 226.5,142.5C 225.599,141.71 224.932,140.71 224.5,139.5 Z"/></g>
<g><path style="opacity:0.812" fill="#8ea5ea" d="M 180.5,168.5 C 180.573,170.027 179.906,171.027 178.5,171.5C 178.427,169.973 179.094,168.973 180.5,168.5 Z"/></g>
<g><path style="opacity:0.859" fill="#7f9fe8" d="M 105.5,176.5 C 106.627,177.122 107.627,177.955 108.5,179C 106.86,179.348 105.527,178.848 104.5,177.5C 105.167,177.5 105.5,177.167 105.5,176.5 Z"/></g>
<g><path style="opacity:0.8" fill="#89a4ea" d="M 219.5,243.5 C 219.573,245.027 218.906,246.027 217.5,246.5C 217.427,244.973 218.094,243.973 219.5,243.5 Z"/></g>
<g><path style="opacity:0.749" fill="#8da5ea" d="M 204.5,260.5 C 203.738,262.262 202.404,263.262 200.5,263.5C 201.262,261.738 202.596,260.738 204.5,260.5 Z"/></g>
<g><path style="opacity:0.725" fill="#8ea8ea" d="M 199.5,264.5 C 199.842,265.338 200.508,265.672 201.5,265.5C 199.36,266.905 197.026,267.738 194.5,268C 195.846,266.331 197.513,265.164 199.5,264.5 Z"/></g>
</svg>
