<?xml version="1.0" standalone="no"?>
<!DOCTYPE svg PUBLIC "-//W3C//DTD SVG 20010904//EN"
 "http://www.w3.org/TR/2001/REC-SVG-20010904/DTD/svg10.dtd">
<svg version="1.0" xmlns="http://www.w3.org/2000/svg"
 width="2341.000000pt" height="605.000000pt" viewBox="0 0 2341.000000 605.000000"
 preserveAspectRatio="xMidYMid meet">

<g transform="translate(0.000000,605.000000) scale(0.100000,-0.100000)"
fill="#000000" stroke="none">
<path d="M175 5378 c-3 -13 -4 -437 -3 -943 l3 -920 940 0 940 0 0 940 0 940
-937 3 -938 2 -5 -22z m1825 -923 l0 -885 -885 0 -885 0 0 885 0 885 885 0
885 0 0 -885z"/>
<path d="M1012 5173 c-106 -52 -104 -201 4 -253 59 -29 113 -21 159 25 115
115 -17 300 -163 228z m92 -99 c22 -21 20 -40 -6 -58 -39 -28 -84 20 -52 55
21 23 38 24 58 3z"/>
<path d="M495 4830 c-118 -77 -64 -260 76 -260 109 0 175 111 125 208 -35 68
-137 94 -201 52z m99 -86 c10 -4 16 -18 16 -35 0 -22 -6 -30 -25 -35 -43 -11
-73 34 -43 64 13 13 28 15 52 6z"/>
<path d="M1642 4663 c-106 -52 -104 -201 4 -253 59 -29 113 -21 159 25 115
115 -17 300 -163 228z m92 -99 c22 -21 20 -40 -6 -58 -39 -28 -84 20 -52 55
21 23 38 24 58 3z"/>
<path d="M1097 4525 c-48 -17 -67 -33 -84 -72 -19 -46 -16 -93 7 -131 78 -127
265 -74 262 76 -1 95 -94 159 -185 127z m78 -129 c0 -36 -27 -56 -52 -40 -40
25 -20 77 26 72 21 -2 26 -8 26 -32z"/>
<path d="M502 4190 c-127 -78 -74 -265 76 -262 106 1 170 119 116 213 -37 65
-128 88 -192 49z m98 -94 c6 -8 10 -25 8 -38 -6 -42 -78 -32 -78 11 0 37 46
55 70 27z"/>
<path d="M1380 3940 c-69 -36 -97 -139 -54 -197 69 -92 181 -94 241 -4 46 69
19 165 -57 203 -44 23 -86 22 -130 -2z m95 -93 c21 -16 15 -61 -11 -71 -39
-15 -73 41 -42 72 16 16 30 15 53 -1z"/>
<path d="M2195 5378 c-3 -13 -4 -437 -3 -943 l3 -920 940 0 940 0 0 940 0 940
-937 3 -938 2 -5 -22z m1825 -923 l0 -885 -885 0 -885 0 0 885 0 885 885 0
885 0 0 -885z"/>
<path d="M2449 5186 c-37 -25 -69 -85 -69 -128 0 -37 38 -102 70 -121 l30 -18
2 -450 c1 -247 2 -455 2 -463 1 -8 -14 -25 -33 -38 -71 -49 -89 -140 -40 -209
58 -82 197 -78 250 7 l21 34 456 0 457 0 17 -30 c69 -121 262 -79 276 61 6 63
-15 110 -65 140 l-33 21 0 461 0 462 30 17 c66 38 91 138 50 206 -58 95 -204
96 -258 2 l-17 -30 -457 0 -456 0 -21 34 c-42 67 -145 87 -212 42z m119 -88
c19 -19 15 -66 -7 -78 -31 -16 -49 -12 -67 15 -15 23 -15 27 0 50 18 27 54 33
74 13z m1211 -2 c38 -46 -25 -111 -69 -71 -24 22 -25 42 -3 67 19 22 56 24 72
4z m-164 -115 c8 -17 28 -38 45 -48 l30 -17 0 -467 0 -466 -24 -11 c-14 -6
-35 -25 -47 -41 l-23 -31 -460 0 -461 0 -17 30 c-9 17 -28 35 -42 41 l-25 12
-3 461 -3 461 50 51 50 52 457 1 457 1 16 -29z m-1047 -1103 c7 -7 12 -21 12
-33 0 -45 -53 -61 -85 -25 -15 17 -16 24 -7 45 13 27 58 35 80 13z m1212 -2
c15 -19 9 -56 -11 -69 -9 -5 -28 -7 -42 -3 -52 13 -42 86 12 86 16 0 34 -7 41
-14z"/>
<path d="M4280 4510 l0 -890 220 0 220 0 0 665 0 665 665 0 665 0 0 225 0 225
-885 0 -885 0 0 -890z"/>
<path d="M18455 4391 c-68 -17 -100 -58 -111 -143 -8 -60 12 -150 39 -176 50
-47 229 -56 298 -16 50 29 64 65 64 166 0 96 -15 130 -71 157 -33 17 -173 24
-219 12z"/>
<path d="M9215 4314 c-51 -8 -83 -25 -89 -47 -8 -29 -8 -1705 0 -1734 10 -35
58 -48 184 -48 126 0 174 13 184 48 7 28 8 1705 0 1733 -3 12 -18 27 -32 34
-28 12 -194 22 -247 14z"/>
<path d="M11500 4170 c-55 -13 -60 -28 -60 -187 l0 -143 -86 0 -85 0 -16 -37
c-11 -28 -14 -61 -11 -125 6 -118 15 -128 120 -128 l78 0 0 -334 c0 -449 15
-542 101 -639 53 -61 123 -93 232 -108 130 -16 288 9 324 53 33 40 39 213 8
254 -12 17 -15 17 -65 1 -108 -35 -188 -15 -220 55 -18 40 -20 68 -20 381 l0
337 138 0 c95 0 143 4 155 13 38 27 45 201 11 255 -14 21 -20 22 -159 22
l-145 0 0 143 c0 162 -4 173 -65 187 -48 11 -187 11 -235 0z"/>
<path d="M17490 4170 c-55 -14 -60 -28 -60 -187 l0 -143 -84 0 c-110 0 -111
-2 -111 -140 0 -142 6 -150 117 -150 l78 0 0 -342 c0 -189 5 -373 10 -410 30
-208 127 -305 330 -329 79 -9 110 -9 183 4 97 17 133 35 147 73 16 40 12 207
-4 229 -13 19 -16 19 -68 2 -105 -33 -181 -17 -215 46 -16 28 -18 70 -21 380
l-3 347 138 0 c76 0 143 4 149 8 25 16 34 55 34 144 0 140 3 138 -176 138
l-144 0 0 134 c0 142 -7 178 -37 191 -27 11 -223 15 -263 5z"/>
<path d="M6643 3855 c-96 -27 -196 -88 -285 -173 l-38 -36 0 79 c0 44 -4 86
-8 92 -13 20 -120 36 -190 28 -112 -12 -102 52 -102 -678 0 -491 3 -637 13
-650 26 -36 245 -46 314 -14 l23 10 0 432 0 432 73 70 c105 102 172 131 257
112 88 -20 138 -81 159 -194 7 -36 11 -212 11 -456 l0 -397 33 -13 c45 -19
242 -18 282 2 l30 14 3 400 c3 426 -5 575 -38 671 -43 123 -126 212 -237 254
-76 29 -226 36 -300 15z"/>
<path d="M8181 3854 c-78 -21 -161 -68 -246 -141 l-75 -64 0 85 c0 71 -3 87
-17 94 -30 15 -121 23 -185 16 -107 -12 -98 50 -98 -677 0 -495 3 -637 13
-651 25 -34 237 -44 315 -15 l22 9 0 431 0 431 63 65 c102 106 179 141 270
121 62 -13 108 -53 138 -120 24 -53 24 -55 27 -486 l3 -432 26 -17 c35 -23
243 -25 288 -2 l30 14 0 470 c0 336 -4 487 -13 530 -17 82 -62 175 -112 229
-97 105 -291 153 -449 110z"/>
<path d="M10482 3854 c-90 -24 -174 -75 -259 -158 l-53 -50 0 79 c0 44 -4 86
-8 93 -27 42 -257 42 -283 0 -5 -7 -9 -302 -9 -655 l0 -643 27 -17 c22 -15 49
-18 148 -18 69 1 132 6 148 13 l27 12 0 431 0 431 66 69 c113 116 214 147 314
97 36 -19 51 -35 75 -82 l30 -60 5 -439 c5 -412 6 -439 23 -452 43 -31 266
-31 314 1 l23 14 0 411 c0 429 -8 562 -41 656 -64 188 -208 284 -422 282 -40
0 -96 -7 -125 -15z"/>
<path d="M12750 3854 c-109 -23 -218 -83 -291 -162 -107 -113 -159 -238 -181
-430 -13 -123 -2 -286 29 -392 43 -151 139 -273 265 -334 120 -59 181 -71 368
-71 174 0 249 10 382 52 110 34 119 49 116 176 -4 131 -4 131 -140 89 -145
-45 -207 -55 -333 -50 -88 3 -121 9 -163 27 -95 42 -149 127 -167 262 l-6 46
407 8 c272 5 413 11 425 18 35 22 42 61 37 205 -6 149 -27 232 -84 329 -65
112 -192 198 -335 228 -87 18 -242 18 -329 -1z m282 -259 c67 -33 116 -122
125 -227 l6 -68 -264 2 -264 3 4 45 c8 110 87 229 171 257 50 17 177 10 222
-12z"/>
<path d="M14313 3846 c-51 -24 -135 -98 -186 -166 l-27 -35 0 67 c0 91 -10
114 -57 127 -85 24 -223 8 -243 -29 -6 -12 -10 -243 -10 -649 0 -729 -10 -664
105 -676 86 -10 202 1 232 21 l23 14 0 404 0 404 43 59 c24 32 63 75 87 96 71
61 121 68 233 36 45 -13 50 -12 62 5 29 39 34 277 7 309 -35 42 -191 49 -269
13z"/>
<path d="M15110 3861 c-160 -30 -305 -90 -344 -144 -17 -24 -21 -42 -20 -107
2 -135 34 -156 147 -99 113 58 194 81 302 86 121 6 177 -7 221 -51 39 -39 54
-89 54 -183 l0 -73 -132 0 c-211 0 -378 -33 -482 -94 -136 -80 -202 -229 -177
-398 33 -212 197 -337 446 -338 133 0 238 36 343 119 l51 41 6 -48 c11 -82 21
-89 140 -91 93 -1 143 13 151 43 3 12 4 243 2 512 -4 462 -5 492 -24 550 -44
129 -123 206 -259 250 -69 23 -101 27 -230 30 -82 1 -170 -1 -195 -5z m360
-900 l0 -108 -49 -46 c-63 -59 -122 -88 -191 -94 -163 -15 -257 110 -187 247
39 78 123 107 315 109 l112 1 0 -109z"/>
<path d="M16565 3854 c-230 -45 -394 -223 -450 -489 -23 -108 -24 -331 -1
-440 38 -182 144 -333 280 -400 96 -48 213 -69 336 -62 146 8 292 61 355 127
29 31 30 33 30 138 0 117 -7 157 -29 165 -8 3 -51 -18 -96 -48 -107 -71 -159
-88 -264 -84 -70 3 -89 8 -123 31 -96 63 -133 152 -140 338 -6 147 5 221 47
307 50 101 120 143 236 143 80 0 141 -21 228 -77 114 -74 138 -52 134 121 l-3
108 -35 30 c-110 92 -317 130 -505 92z"/>
<path d="M20811 3854 c-268 -58 -443 -280 -470 -598 -10 -116 0 -276 23 -368
52 -207 192 -348 401 -404 90 -24 309 -29 430 -11 123 19 259 61 284 88 28 31
41 160 21 214 -5 14 -17 28 -26 32 -9 3 -60 -8 -113 -25 -131 -43 -213 -55
-339 -50 -83 3 -119 9 -158 27 -95 42 -152 129 -162 246 l-5 62 404 8 c267 5
409 11 420 18 34 21 44 67 42 182 -6 317 -156 525 -418 580 -87 18 -249 18
-334 -1z m289 -265 c73 -40 120 -135 120 -241 l0 -48 -261 0 -262 0 6 58 c10
110 66 198 152 239 67 32 179 29 245 -8z"/>
<path d="M18436 3839 c-22 -5 -45 -14 -53 -20 -11 -9 -13 -132 -13 -655 l0
-644 27 -17 c22 -15 49 -18 153 -18 83 0 132 4 148 13 l22 13 0 653 0 653 -27
13 c-35 16 -205 22 -257 9z"/>
<path d="M18984 3841 c-47 -12 -54 -19 -54 -59 0 -45 396 -1240 419 -1265 22
-23 111 -37 237 -37 120 0 203 14 225 38 20 20 406 1177 415 1243 8 59 -8 75
-82 85 -71 8 -204 0 -232 -15 -24 -13 -31 -34 -211 -626 -80 -262 -111 -355
-117 -340 -5 11 -72 226 -150 479 -78 252 -149 465 -157 473 -8 8 -32 19 -53
23 -46 11 -196 11 -240 1z"/>
<path d="M175 3398 c-3 -13 -4 -439 -3 -948 l3 -925 940 0 940 0 0 945 0 945
-937 3 -938 2 -5 -22z m1825 -928 l0 -890 -885 0 -885 0 0 890 0 890 885 0
885 0 0 -890z"/>
<path d="M653 3179 c-63 -31 -97 -110 -74 -171 7 -19 0 -35 -45 -98 -53 -73
-55 -74 -93 -71 -139 10 -210 -157 -106 -248 40 -34 92 -48 133 -33 26 9 41 2
185 -92 138 -90 155 -104 150 -124 -15 -63 41 -152 106 -167 26 -5 32 -13 41
-48 6 -23 15 -56 20 -73 7 -28 4 -34 -22 -54 -60 -44 -74 -136 -29 -199 31
-43 100 -67 150 -52 22 6 50 23 63 37 12 14 30 33 38 43 11 11 81 27 248 54
l232 38 33 -34 c18 -19 51 -40 73 -47 36 -11 47 -10 87 8 58 26 87 70 87 132
0 52 -26 101 -67 126 -15 10 -29 18 -30 18 -1 1 -18 79 -38 175 l-36 174 38
39 c36 37 38 42 38 103 0 61 -2 67 -37 101 -29 30 -45 38 -86 42 -27 2 -59 -1
-70 -7 -19 -10 -74 12 -401 160 -363 163 -381 173 -399 208 -12 23 -34 44 -62
59 -55 27 -74 28 -127 1z m97 -104 c10 -12 10 -21 2 -40 -13 -29 -43 -33 -66
-9 -19 18 -19 20 -6 45 13 23 52 25 70 4z m485 -274 l310 -140 6 -50 c8 -60
28 -95 72 -121 31 -19 33 -24 69 -195 l36 -175 -31 -34 c-18 -18 -37 -40 -43
-48 -8 -10 -91 -27 -247 -53 l-236 -38 -26 31 c-14 17 -34 34 -45 37 -14 4
-24 28 -39 93 l-21 88 26 49 c20 39 24 59 19 90 -13 85 -92 139 -173 119 -36
-9 -42 -6 -187 88 l-150 97 -7 67 -7 68 48 65 c47 65 48 66 102 71 58 6 84 17
112 48 18 20 19 20 60 2 23 -11 182 -82 352 -159z m-780 -74 c21 -16 15 -61
-11 -71 -39 -15 -73 41 -42 72 16 16 30 15 53 -1z m1273 -79 c27 -27 7 -78
-29 -78 -21 0 -49 26 -49 45 0 35 53 58 78 33z m-754 -307 c33 -36 -18 -88
-55 -55 -23 21 -24 37 -3 58 20 21 37 20 58 -3z m840 -324 c38 -27 -2 -95 -41
-71 -25 16 -29 55 -7 71 10 7 21 13 24 13 3 0 14 -6 24 -13z m-750 -103 c19
-18 19 -20 6 -45 -13 -23 -52 -25 -70 -4 -10 12 -10 21 -2 40 13 29 43 33 66
9z"/>
<path d="M2195 3388 c-3 -13 -4 -437 -3 -943 l3 -920 940 0 940 0 0 940 0 940
-937 3 -938 2 -5 -22z m1825 -923 l0 -885 -885 0 -885 0 0 885 0 885 885 0
885 0 0 -885z"/>
<path d="M3202 3114 c-62 -57 -65 -87 -66 -664 -1 -324 -6 -524 -12 -538 -10
-24 -10 -23 -46 20 -100 122 -227 347 -458 807 -94 189 -168 324 -179 331 -50
26 -111 -8 -111 -63 0 -29 262 -557 395 -797 157 -280 267 -430 346 -470 53
-28 101 -26 137 5 70 59 87 213 78 715 -3 195 -3 380 2 410 l8 55 39 -70 c21
-38 103 -207 180 -375 199 -429 231 -487 286 -516 83 -43 144 55 80 128 -33
38 -105 180 -216 423 -210 463 -303 610 -391 622 -35 4 -46 1 -72 -23z"/>
<path d="M22630 2635 l0 -665 -665 0 -665 0 0 -225 0 -225 885 0 885 0 0 890
0 890 -220 0 -220 0 0 -665z"/>
</g>
</svg>
