<?xml version="1.0" encoding="UTF-8"?>
<!DOCTYPE svg PUBLIC "-//W3C//DTD SVG 1.1//EN" "http://www.w3.org/Graphics/SVG/1.1/DTD/svg11.dtd">
<svg xmlns="http://www.w3.org/2000/svg" version="1.1" width="128px" height="128px" style="shape-rendering:geometricPrecision; text-rendering:geometricPrecision; image-rendering:optimizeQuality; fill-rule:evenodd; clip-rule:evenodd" xmlns:xlink="http://www.w3.org/1999/xlink">
<g><path style="opacity:1" fill="#9d7229" d="M 12.5,-0.5 C 16.8333,-0.5 21.1667,-0.5 25.5,-0.5C 25.2627,0.791047 25.596,1.79105 26.5,2.5C 23.207,5.59797 19.207,6.9313 14.5,6.5C 12.8516,4.54409 12.1849,2.21076 12.5,-0.5 Z"/></g>
<g><path style="opacity:0.963" fill="#81869c" d="M 98.5,-0.5 C 105.833,-0.5 113.167,-0.5 120.5,-0.5C 122.139,0.472504 123.473,1.80584 124.5,3.5C 116.5,3.5 108.5,3.5 100.5,3.5C 100.281,4.67504 100.614,5.67504 101.5,6.5C 104.773,5.41495 108.106,5.24828 111.5,6C 112.252,6.67076 112.586,7.5041 112.5,8.5C 109.094,6.20743 105.427,5.87409 101.5,7.5C 99.9397,5.84386 98.9397,3.84386 98.5,1.5C 98.5,0.833333 98.5,0.166667 98.5,-0.5 Z"/></g>
<g><path style="opacity:0.599" fill="#5b7718" d="M 6.5,-0.5 C 8.5,-0.5 10.5,-0.5 12.5,-0.5C 12.1849,2.21076 12.8516,4.54409 14.5,6.5C 14.6495,7.55198 14.4828,8.55198 14,9.5C 13.3292,8.74756 12.4959,8.41423 11.5,8.5C 8.26781,7.04455 4.93448,5.71121 1.5,4.5C 2.86063,2.47266 4.52729,0.805998 6.5,-0.5 Z"/></g>
<g><path style="opacity:1" fill="#8d7a7f" d="M 55.5,-0.5 C 60.8333,-0.5 66.1667,-0.5 71.5,-0.5C 71.5,1.83333 71.5,4.16667 71.5,6.5C 71.5,7.83333 70.8333,8.5 69.5,8.5C 66.1339,5.54154 62.1339,4.04154 57.5,4C 55.9632,2.89037 55.2965,1.39037 55.5,-0.5 Z"/></g>
<g><path style="opacity:1" fill="#9ecb81" d="M 25.5,-0.5 C 31.8333,-0.5 38.1667,-0.5 44.5,-0.5C 45.1667,2.83318 43.8333,4.83318 40.5,5.5C 37.2053,4.55148 33.872,4.55148 30.5,5.5C 29.205,4.51163 27.8717,3.51163 26.5,2.5C 25.596,1.79105 25.2627,0.791047 25.5,-0.5 Z"/></g>
<g><path style="opacity:1" fill="#625e45" d="M 26.5,2.5 C 27.8717,3.51163 29.205,4.51163 30.5,5.5C 29.8333,6.5 29.1667,7.5 28.5,8.5C 26.8974,9.67725 25.564,9.51058 24.5,8C 23.1667,7.33333 21.8333,7.33333 20.5,8C 19.4404,9.29799 18.2737,10.4647 17,11.5C 13.4555,9.99918 12.9555,10.4992 15.5,13C 14.7562,14.0386 13.7562,14.5386 12.5,14.5C 10.5,12.8333 8.5,11.1667 6.5,9.5C 8.04181,8.69929 9.70848,8.36596 11.5,8.5C 12.4959,8.41423 13.3292,8.74756 14,9.5C 14.4828,8.55198 14.6495,7.55198 14.5,6.5C 19.207,6.9313 23.207,5.59797 26.5,2.5 Z"/></g>
<g><path style="opacity:1" fill="#2d3a5a" d="M 71.5,-0.5 C 74.8333,-0.5 78.1667,-0.5 81.5,-0.5C 80.6586,1.3792 80.3253,3.3792 80.5,5.5C 82.4147,5.21552 84.0813,5.54885 85.5,6.5C 82.7212,6.27863 80.0545,6.61197 77.5,7.5C 75.5,7.16667 73.5,6.83333 71.5,6.5C 71.5,4.16667 71.5,1.83333 71.5,-0.5 Z"/></g>
<g><path style="opacity:1" fill="#988b45" d="M 124.5,3.5 C 125.728,4.30646 126.728,5.30646 127.5,6.5C 127.5,7.5 127.5,8.5 127.5,9.5C 126.834,12.3583 126.167,15.3583 125.5,18.5C 124.583,17.8728 123.583,17.5394 122.5,17.5C 119.713,16.5233 116.713,16.19 113.5,16.5C 113.806,13.6146 113.473,10.9479 112.5,8.5C 112.586,7.5041 112.252,6.67076 111.5,6C 108.106,5.24828 104.773,5.41495 101.5,6.5C 100.614,5.67504 100.281,4.67504 100.5,3.5C 108.5,3.5 116.5,3.5 124.5,3.5 Z"/></g>
<g><path style="opacity:1" fill="#5a5c67" d="M 44.5,-0.5 C 46.8333,-0.5 49.1667,-0.5 51.5,-0.5C 50.1667,0.833333 48.8333,2.16667 47.5,3.5C 46.7109,3.78281 46.0442,4.28281 45.5,5C 46.8228,5.81595 47.4894,6.98261 47.5,8.5C 46.2058,7.7101 45.0391,6.7101 44,5.5C 42.9614,6.24382 42.4614,7.24382 42.5,8.5C 40.9184,7.12421 39.0851,6.12421 37,5.5C 34.1054,6.4088 31.2721,7.4088 28.5,8.5C 29.1667,7.5 29.8333,6.5 30.5,5.5C 33.872,4.55148 37.2053,4.55148 40.5,5.5C 43.8333,4.83318 45.1667,2.83318 44.5,-0.5 Z"/></g>
<g><path style="opacity:1" fill="#395007" d="M 47.5,8.5 C 47.4894,6.98261 46.8228,5.81595 45.5,5C 46.0442,4.28281 46.7109,3.78281 47.5,3.5C 49.1703,3.24885 50.6703,2.58218 52,1.5C 53.1545,2.74332 54.4878,3.74332 56,4.5C 56.49,5.79323 56.6567,7.12656 56.5,8.5C 53.5,8.5 50.5,8.5 47.5,8.5 Z"/></g>
<g><path style="opacity:1" fill="#8b7b4b" d="M 81.5,-0.5 C 87.1667,-0.5 92.8333,-0.5 98.5,-0.5C 98.5,0.166667 98.5,0.833333 98.5,1.5C 99.1676,8.50557 96.1676,11.1722 89.5,9.5C 88.1667,8.5 86.8333,7.5 85.5,6.5C 84.0813,5.54885 82.4147,5.21552 80.5,5.5C 80.3253,3.3792 80.6586,1.3792 81.5,-0.5 Z"/></g>
<g><path style="opacity:0.77" fill="#4f5a76" d="M 1.5,4.5 C 4.93448,5.71121 8.26781,7.04455 11.5,8.5C 9.70848,8.36596 8.04181,8.69929 6.5,9.5C 4.27696,10.979 1.94363,12.3123 -0.5,13.5C -0.5,11.1667 -0.5,8.83333 -0.5,6.5C 0.166667,5.83333 0.833333,5.16667 1.5,4.5 Z"/></g>
<g><path style="opacity:1" fill="#646e1d" d="M 47.5,8.5 C 47.1667,9.83333 46.8333,11.1667 46.5,12.5C 44.7263,11.6304 43.393,10.297 42.5,8.5C 42.4614,7.24382 42.9614,6.24382 44,5.5C 45.0391,6.7101 46.2058,7.7101 47.5,8.5 Z"/></g>
<g><path style="opacity:1" fill="#9b6b5a" d="M 42.5,8.5 C 43.2631,11.1411 43.4298,13.8078 43,16.5C 41.2454,19.3384 38.912,20.005 36,18.5C 35.5223,13.1913 32.6889,11.1913 27.5,12.5C 27.4326,11.0413 27.7659,9.70792 28.5,8.5C 31.2721,7.4088 34.1054,6.4088 37,5.5C 39.0851,6.12421 40.9184,7.12421 42.5,8.5 Z"/></g>
<g><path style="opacity:1" fill="#202a32" d="M 71.5,6.5 C 73.5,6.83333 75.5,7.16667 77.5,7.5C 74.9439,10.6677 73.9439,14.3344 74.5,18.5C 72.0439,18.289 69.7106,18.289 67.5,18.5C 68.2216,18.0825 68.7216,17.4158 69,16.5C 69.4974,13.854 69.6641,11.1873 69.5,8.5C 70.8333,8.5 71.5,7.83333 71.5,6.5 Z"/></g>
<g><path style="opacity:1" fill="#8d668b" d="M 51.5,-0.5 C 52.8333,-0.5 54.1667,-0.5 55.5,-0.5C 55.2965,1.39037 55.9632,2.89037 57.5,4C 62.1339,4.04154 66.1339,5.54154 69.5,8.5C 69.6641,11.1873 69.4974,13.854 69,16.5C 68.7216,17.4158 68.2216,18.0825 67.5,18.5C 65.6208,19.3414 63.6208,19.6747 61.5,19.5C 61.7845,17.5853 61.4511,15.9187 60.5,14.5C 56.573,8.75896 51.9063,8.09229 46.5,12.5C 46.8333,11.1667 47.1667,9.83333 47.5,8.5C 50.5,8.5 53.5,8.5 56.5,8.5C 56.6567,7.12656 56.49,5.79323 56,4.5C 54.4878,3.74332 53.1545,2.74332 52,1.5C 50.6703,2.58218 49.1703,3.24885 47.5,3.5C 48.8333,2.16667 50.1667,0.833333 51.5,-0.5 Z"/></g>
<g><path style="opacity:1" fill="#7ac581" d="M 112.5,8.5 C 112.281,12.4844 112.281,16.3177 112.5,20C 111.906,20.4643 111.239,20.631 110.5,20.5C 106.702,19.5166 102.702,19.1832 98.5,19.5C 98.4142,18.5041 98.7476,17.6708 99.5,17C 102.167,16.6667 104.833,16.3333 107.5,16C 104.146,15.5448 100.813,15.0448 97.5,14.5C 97.238,13.0222 97.5713,11.6888 98.5,10.5C 99.8549,9.81181 100.855,8.81181 101.5,7.5C 105.427,5.87409 109.094,6.20743 112.5,8.5 Z"/></g>
<g><path style="opacity:1" fill="#9c8e30" d="M 60.5,14.5 C 60.5,16.1667 60.5,17.8333 60.5,19.5C 55.1667,19.5 49.8333,19.5 44.5,19.5C 44.1658,16.812 44.8325,14.4786 46.5,12.5C 51.9063,8.09229 56.573,8.75896 60.5,14.5 Z"/></g>
<g><path style="opacity:1" fill="#70bf4c" d="M 85.5,6.5 C 86.8333,7.5 88.1667,8.5 89.5,9.5C 89.5,11.8333 89.5,14.1667 89.5,16.5C 92.8306,16.0181 95.4973,17.0181 97.5,19.5C 90.5,18.1667 83.5,18.1667 76.5,19.5C 75.8333,19.1667 75.1667,18.8333 74.5,18.5C 73.9439,14.3344 74.9439,10.6677 77.5,7.5C 80.0545,6.61197 82.7212,6.27863 85.5,6.5 Z"/></g>
<g><path style="opacity:1" fill="#5b6347" d="M 98.5,1.5 C 98.9397,3.84386 99.9397,5.84386 101.5,7.5C 100.855,8.81181 99.8549,9.81181 98.5,10.5C 97.5713,11.6888 97.238,13.0222 97.5,14.5C 100.813,15.0448 104.146,15.5448 107.5,16C 104.833,16.3333 102.167,16.6667 99.5,17C 98.7476,17.6708 98.4142,18.5041 98.5,19.5C 98.1667,19.5 97.8333,19.5 97.5,19.5C 95.4973,17.0181 92.8306,16.0181 89.5,16.5C 89.5,14.1667 89.5,11.8333 89.5,9.5C 96.1676,11.1722 99.1676,8.50557 98.5,1.5 Z"/></g>
<g><path style="opacity:1" fill="#81404b" d="M 6.5,9.5 C 8.5,11.1667 10.5,12.8333 12.5,14.5C 13.6272,20.0859 11.9605,24.4192 7.5,27.5C 5.5,27.5 3.5,27.5 1.5,27.5C 1.82943,30.2282 1.16276,32.5615 -0.5,34.5C -0.5,27.5 -0.5,20.5 -0.5,13.5C 1.94363,12.3123 4.27696,10.979 6.5,9.5 Z"/></g>
<g><path style="opacity:1" fill="#644784" d="M 28.5,8.5 C 27.7659,9.70792 27.4326,11.0413 27.5,12.5C 32.6889,11.1913 35.5223,13.1913 36,18.5C 38.912,20.005 41.2454,19.3384 43,16.5C 43.4298,13.8078 43.2631,11.1411 42.5,8.5C 43.393,10.297 44.7263,11.6304 46.5,12.5C 44.8325,14.4786 44.1658,16.812 44.5,19.5C 35.8333,20.1667 27.1667,20.8333 18.5,21.5C 18.1667,21.5 17.8333,21.5 17.5,21.5C 17.1667,21.5 16.8333,21.5 16.5,21.5C 17.8333,19.5 19.5,17.8333 21.5,16.5C 22.8333,15.8333 24.1667,15.1667 25.5,14.5C 26.657,16.1376 27.8236,17.8043 29,19.5C 30.8254,18.8971 32.6587,18.2304 34.5,17.5C 33.9598,16.2519 33.2931,15.0852 32.5,14C 30.1902,13.5034 27.8568,13.3367 25.5,13.5C 25.1848,8.95915 23.3515,7.95915 20,10.5C 19.51,11.7932 19.3433,13.1266 19.5,14.5C 14.5823,14.1719 12.5823,16.5052 13.5,21.5C 12.6597,23.8525 11.3264,25.8525 9.5,27.5C 8.83333,27.5 8.16667,27.5 7.5,27.5C 11.9605,24.4192 13.6272,20.0859 12.5,14.5C 13.7562,14.5386 14.7562,14.0386 15.5,13C 12.9555,10.4992 13.4555,9.99918 17,11.5C 18.2737,10.4647 19.4404,9.29799 20.5,8C 21.8333,7.33333 23.1667,7.33333 24.5,8C 25.564,9.51058 26.8974,9.67725 28.5,8.5 Z"/></g>
<g><path style="opacity:1" fill="#8c4c3c" d="M 19.5,14.5 C 20.5,14.8333 21.1667,15.5 21.5,16.5C 19.5,17.8333 17.8333,19.5 16.5,21.5C 15.5,21.5 14.5,21.5 13.5,21.5C 12.5823,16.5052 14.5823,14.1719 19.5,14.5 Z"/></g>
<g><path style="opacity:1" fill="#335a88" d="M 25.5,13.5 C 27.8568,13.3367 30.1902,13.5034 32.5,14C 33.2931,15.0852 33.9598,16.2519 34.5,17.5C 32.6587,18.2304 30.8254,18.8971 29,19.5C 27.8236,17.8043 26.657,16.1376 25.5,14.5C 25.5,14.1667 25.5,13.8333 25.5,13.5 Z"/></g>
<g><path style="opacity:1" fill="#ae979b" d="M 25.5,13.5 C 25.5,13.8333 25.5,14.1667 25.5,14.5C 24.1667,15.1667 22.8333,15.8333 21.5,16.5C 21.1667,15.5 20.5,14.8333 19.5,14.5C 19.3433,13.1266 19.51,11.7932 20,10.5C 23.3515,7.95915 25.1848,8.95915 25.5,13.5 Z"/></g>
<g><path style="opacity:1" fill="#422f7c" d="M 60.5,14.5 C 61.4511,15.9187 61.7845,17.5853 61.5,19.5C 63.6208,19.6747 65.6208,19.3414 67.5,18.5C 69.7106,18.289 72.0439,18.289 74.5,18.5C 75.1667,18.8333 75.8333,19.1667 76.5,19.5C 71.1667,20.8333 65.8333,20.8333 60.5,19.5C 60.5,17.8333 60.5,16.1667 60.5,14.5 Z"/></g>
<g><path style="opacity:1" fill="#6d7a77" d="M 97.5,19.5 C 97.8333,19.5 98.1667,19.5 98.5,19.5C 102.702,19.1832 106.702,19.5166 110.5,20.5C 110.5,20.8333 110.5,21.1667 110.5,21.5C 96.8333,21.5 83.1667,21.5 69.5,21.5C 68.8333,21.5 68.1667,21.5 67.5,21.5C 60.1667,21.5 52.8333,21.5 45.5,21.5C 36.5,21.5 27.5,21.5 18.5,21.5C 27.1667,20.8333 35.8333,20.1667 44.5,19.5C 49.8333,19.5 55.1667,19.5 60.5,19.5C 65.8333,20.8333 71.1667,20.8333 76.5,19.5C 83.5,18.1667 90.5,18.1667 97.5,19.5 Z"/></g>
<g><path style="opacity:1" fill="#5b8188" d="M 127.5,9.5 C 127.5,16.5 127.5,23.5 127.5,30.5C 125.076,30.8076 122.743,30.4742 120.5,29.5C 119.123,26.5692 117.456,23.9026 115.5,21.5C 114.859,20.5178 114.193,19.5178 113.5,18.5C 116.428,17.5159 119.428,17.1826 122.5,17.5C 123.583,17.5394 124.583,17.8728 125.5,18.5C 126.167,15.3583 126.834,12.3583 127.5,9.5 Z"/></g>
<g><path style="opacity:1" fill="#aeed6a" d="M 45.5,21.5 C 52.8333,21.5 60.1667,21.5 67.5,21.5C 68.1667,23.1667 68.8333,24.8333 69.5,26.5C 71.5514,32.225 69.5514,35.725 63.5,37C 53.5471,37.7525 51.2138,34.0858 56.5,26C 54.2445,26.6147 51.9111,26.9481 49.5,27C 47.5359,25.549 46.2026,23.7157 45.5,21.5 Z"/></g>
<g><path style="opacity:1" fill="#ade170" d="M 17.5,21.5 C 17.8333,21.5 18.1667,21.5 18.5,21.5C 27.5,21.5 36.5,21.5 45.5,21.5C 46.2026,23.7157 47.5359,25.549 49.5,27C 51.9111,26.9481 54.2445,26.6147 56.5,26C 51.2138,34.0858 53.5471,37.7525 63.5,37C 69.5514,35.725 71.5514,32.225 69.5,26.5C 76.1738,27.6795 77.8405,31.1795 74.5,37C 73.552,37.4828 72.552,37.6495 71.5,37.5C 71.4332,39.4008 71.7665,41.2341 72.5,43C 71.7379,45.9669 70.0712,46.8002 67.5,45.5C 66.9556,39.2985 63.6223,36.9652 57.5,38.5C 57.335,41.8499 57.5017,45.1832 58,48.5C 58.5,49 59,49.5 59.5,50C 54.9147,51.2252 50.248,51.7252 45.5,51.5C 45.6646,48.4816 45.498,45.4816 45,42.5C 44.1667,41 43,39.8333 41.5,39C 34.783,39.0552 28.1163,38.8886 21.5,38.5C 21.3418,35.2832 21.1751,31.9499 21,28.5C 19.9331,26.3083 18.4331,24.6417 16.5,23.5C 16.8333,22.8333 17.1667,22.1667 17.5,21.5 Z"/></g>
<g><path style="opacity:1" fill="#4d628d" d="M 115.5,21.5 C 117.456,23.9026 119.123,26.5692 120.5,29.5C 122.743,30.4742 125.076,30.8076 127.5,30.5C 127.5,30.8333 127.5,31.1667 127.5,31.5C 124.66,31.807 123.826,33.1403 125,35.5C 123.261,33.2589 121.094,31.5922 118.5,30.5C 117.623,27.4352 116.623,24.4352 115.5,21.5 Z"/></g>
<g><path style="opacity:1" fill="#aee36c" d="M 69.5,21.5 C 83.1667,21.5 96.8333,21.5 110.5,21.5C 111.458,21.9528 112.292,22.6195 113,23.5C 113.83,50.0032 113.663,76.3365 112.5,102.5C 112.5,97.5 112.5,92.5 112.5,87.5C 112.5,81.8333 112.5,76.1667 112.5,70.5C 112.5,60.1667 112.5,49.8333 112.5,39.5C 109.15,39.335 105.817,39.5017 102.5,40C 99.0175,40.7649 96.0175,42.2649 93.5,44.5C 89.1667,44.5 84.8333,44.5 80.5,44.5C 79.9293,39.4652 79.0959,34.4652 78,29.5C 75.2709,26.6007 72.4376,23.934 69.5,21.5 Z"/></g>
<g><path style="opacity:1" fill="#5a4047" d="M 7.5,27.5 C 8.16667,27.5 8.83333,27.5 9.5,27.5C 8.00773,28.6074 7.00773,30.1074 6.5,32C 6.9543,33.9386 7.62097,35.772 8.5,37.5C 5.5,36.1667 2.5,36.1667 -0.5,37.5C -0.5,36.5 -0.5,35.5 -0.5,34.5C 1.16276,32.5615 1.82943,30.2282 1.5,27.5C 3.5,27.5 5.5,27.5 7.5,27.5 Z"/></g>
<g><path style="opacity:1" fill="#a65067" d="M 13.5,21.5 C 14.5,21.5 15.5,21.5 16.5,21.5C 16.8333,21.5 17.1667,21.5 17.5,21.5C 17.1667,22.1667 16.8333,22.8333 16.5,23.5C 16.1667,23.5 15.8333,23.5 15.5,23.5C 14.4993,27.3962 14.166,32.0629 14.5,37.5C 13.5,37.5 12.5,37.5 11.5,37.5C 10.5,37.5 9.5,37.5 8.5,37.5C 7.62097,35.772 6.9543,33.9386 6.5,32C 7.00773,30.1074 8.00773,28.6074 9.5,27.5C 11.3264,25.8525 12.6597,23.8525 13.5,21.5 Z"/></g>
<g><path style="opacity:1" fill="#5a815a" d="M 8.5,37.5 C 9.5,37.5 10.5,37.5 11.5,37.5C 12.1667,38.5 12.8333,39.5 13.5,40.5C 13.0133,41.4734 12.5133,42.4734 12,43.5C 11.4363,41.1133 10.2696,39.1133 8.5,37.5 Z"/></g>
<g><path style="opacity:1" fill="#757c65" d="M 115.5,21.5 C 116.623,24.4352 117.623,27.4352 118.5,30.5C 121.094,31.5922 123.261,33.2589 125,35.5C 123.826,33.1403 124.66,31.807 127.5,31.5C 127.5,37.1667 127.5,42.8333 127.5,48.5C 127.167,48.5 126.833,48.5 126.5,48.5C 126.822,46.2776 126.155,44.4443 124.5,43C 121.688,41.4511 118.688,40.6178 115.5,40.5C 115.167,40.5 114.833,40.5 114.5,40.5C 114.177,33.9779 114.51,27.6446 115.5,21.5 Z"/></g>
<g><path style="opacity:1" fill="#b5d96b" d="M 67.5,21.5 C 68.1667,21.5 68.8333,21.5 69.5,21.5C 72.4376,23.934 75.2709,26.6007 78,29.5C 79.0959,34.4652 79.9293,39.4652 80.5,44.5C 80.5,44.8333 80.5,45.1667 80.5,45.5C 79.8333,45.5 79.5,45.8333 79.5,46.5C 78.1266,46.3433 76.7932,46.51 75.5,47C 70.8831,49.2371 66.5498,51.7371 62.5,54.5C 56.8755,53.5887 51.2088,52.922 45.5,52.5C 42.5141,52.2893 39.8474,52.956 37.5,54.5C 36.3915,53.71 35.0581,53.21 33.5,53C 27.5092,52.5005 21.5092,52.3338 15.5,52.5C 15.5,42.8333 15.5,33.1667 15.5,23.5C 15.8333,23.5 16.1667,23.5 16.5,23.5C 18.4331,24.6417 19.9331,26.3083 21,28.5C 21.1751,31.9499 21.3418,35.2832 21.5,38.5C 28.1163,38.8886 34.783,39.0552 41.5,39C 43,39.8333 44.1667,41 45,42.5C 45.498,45.4816 45.6646,48.4816 45.5,51.5C 50.248,51.7252 54.9147,51.2252 59.5,50C 59,49.5 58.5,49 58,48.5C 57.5017,45.1832 57.335,41.8499 57.5,38.5C 63.6223,36.9652 66.9556,39.2985 67.5,45.5C 70.0712,46.8002 71.7379,45.9669 72.5,43C 71.7665,41.2341 71.4332,39.4008 71.5,37.5C 72.552,37.6495 73.552,37.4828 74.5,37C 77.8405,31.1795 76.1738,27.6795 69.5,26.5C 68.8333,24.8333 68.1667,23.1667 67.5,21.5 Z"/></g>
<g><path style="opacity:1" fill="#63557c" d="M 8.5,37.5 C 10.2696,39.1133 11.4363,41.1133 12,43.5C 12.5133,42.4734 13.0133,41.4734 13.5,40.5C 14.7815,43.7307 14.7815,47.0641 13.5,50.5C 8.52571,50.7552 3.85905,49.7552 -0.5,47.5C -0.5,44.1667 -0.5,40.8333 -0.5,37.5C 2.5,36.1667 5.5,36.1667 8.5,37.5 Z"/></g>
<g><path style="opacity:1" fill="#64736e" d="M 80.5,45.5 C 80.5,45.1667 80.5,44.8333 80.5,44.5C 84.8333,44.5 89.1667,44.5 93.5,44.5C 96.1873,44.3359 98.854,44.5026 101.5,45C 98.99,47.677 96.3233,50.177 93.5,52.5C 93.683,50.0637 93.0163,47.897 91.5,46C 87.8484,45.5014 84.1817,45.3347 80.5,45.5 Z"/></g>
<g><path style="opacity:1" fill="#edd195" d="M 80.5,45.5 C 84.1817,45.3347 87.8484,45.5014 91.5,46C 93.0163,47.897 93.683,50.0637 93.5,52.5C 91.712,56.1038 89.0453,58.7705 85.5,60.5C 85.5,58.8333 85.5,57.1667 85.5,55.5C 83.8333,55.5 82.1667,55.5 80.5,55.5C 80.447,52.5311 80.1137,49.5311 79.5,46.5C 79.5,45.8333 79.8333,45.5 80.5,45.5 Z"/></g>
<g><path style="opacity:1" fill="#ebc12b" d="M 115.5,40.5 C 118.688,40.6178 121.688,41.4511 124.5,43C 126.155,44.4443 126.822,46.2776 126.5,48.5C 126.665,52.1817 126.499,55.8484 126,59.5C 125.691,58.2341 125.191,57.0674 124.5,56C 121.518,55.502 118.518,55.3354 115.5,55.5C 115.5,50.5 115.5,45.5 115.5,40.5 Z"/></g>
<g><path style="opacity:1" fill="#52497f" d="M 112.5,8.5 C 113.473,10.9479 113.806,13.6146 113.5,16.5C 116.713,16.19 119.713,16.5233 122.5,17.5C 119.428,17.1826 116.428,17.5159 113.5,18.5C 114.193,19.5178 114.859,20.5178 115.5,21.5C 114.51,27.6446 114.177,33.9779 114.5,40.5C 114.5,49.1667 114.5,57.8333 114.5,66.5C 114.5,72.5 114.5,78.5 114.5,84.5C 118.666,85.0561 122.332,84.0561 125.5,81.5C 126.824,84.7947 125.491,86.128 121.5,85.5C 115.095,84.4062 112.762,87.0729 114.5,93.5C 114.693,97.5662 114.36,101.566 113.5,105.5C 111.297,105.604 109.297,106.27 107.5,107.5C 107.782,106.222 108.449,105.222 109.5,104.5C 111.027,104.573 112.027,103.906 112.5,102.5C 113.663,76.3365 113.83,50.0032 113,23.5C 112.292,22.6195 111.458,21.9528 110.5,21.5C 110.5,21.1667 110.5,20.8333 110.5,20.5C 111.239,20.631 111.906,20.4643 112.5,20C 112.281,16.3177 112.281,12.4844 112.5,8.5 Z"/></g>
<g><path style="opacity:1" fill="#21b4d9" d="M 79.5,46.5 C 80.1137,49.5311 80.447,52.5311 80.5,55.5C 79.4522,57.5338 77.7855,58.8671 75.5,59.5C 75.5236,58.2135 75.1903,56.8802 74.5,55.5C 70.4517,55.6054 66.4517,55.2721 62.5,54.5C 66.5498,51.7371 70.8831,49.2371 75.5,47C 76.7932,46.51 78.1266,46.3433 79.5,46.5 Z"/></g>
<g><path style="opacity:1" fill="#b03051" d="M -0.5,47.5 C 3.85905,49.7552 8.52571,50.7552 13.5,50.5C 13.5,51.1667 13.5,51.8333 13.5,52.5C 9.16542,52.9167 4.83209,53.4167 0.5,54C 1.63992,55.9734 2.97325,57.8067 4.5,59.5C 4.04311,60.2975 3.37644,60.6309 2.5,60.5C 1.39105,60.4431 0.391047,60.1098 -0.5,59.5C -0.5,55.5 -0.5,51.5 -0.5,47.5 Z"/></g>
<g><path style="opacity:1" fill="#870c24" d="M 13.5,52.5 C 13.5,56.8333 13.5,61.1667 13.5,65.5C 10.8915,65.5997 8.55817,64.9331 6.5,63.5C 4.76967,62.9744 3.43634,61.9744 2.5,60.5C 3.37644,60.6309 4.04311,60.2975 4.5,59.5C 2.97325,57.8067 1.63992,55.9734 0.5,54C 4.83209,53.4167 9.16542,52.9167 13.5,52.5 Z"/></g>
<g><path style="opacity:1" fill="#afcf5f" d="M 15.5,52.5 C 21.5092,52.3338 27.5092,52.5005 33.5,53C 35.0581,53.21 36.3915,53.71 37.5,54.5C 35.9302,55.8748 35.0969,57.5415 35,59.5C 37.2796,61.0367 39.7796,62.2033 42.5,63C 38.6641,63.9721 37.3308,66.1388 38.5,69.5C 36.631,71.6353 35.9644,74.3019 36.5,77.5C 32.8809,76.8195 29.2142,76.3195 25.5,76C 28.2263,75.8184 30.8929,75.3184 33.5,74.5C 30.3912,74.1277 27.3912,74.1277 24.5,74.5C 22.0313,71.6971 19.0313,69.6971 15.5,68.5C 15.5,63.1667 15.5,57.8333 15.5,52.5 Z"/></g>
<g><path style="opacity:1" fill="#7b999a" d="M 62.5,54.5 C 66.4517,55.2721 70.4517,55.6054 74.5,55.5C 74.5858,56.4959 74.2524,57.3292 73.5,58C 68.0098,61.4118 62.3431,64.2452 56.5,66.5C 52.51,67.4662 48.6767,66.7996 45,64.5C 41.8818,64.944 40.0485,66.6107 39.5,69.5C 39.1667,69.5 38.8333,69.5 38.5,69.5C 37.3308,66.1388 38.6641,63.9721 42.5,63C 39.7796,62.2033 37.2796,61.0367 35,59.5C 35.0969,57.5415 35.9302,55.8748 37.5,54.5C 39.8474,52.956 42.5141,52.2893 45.5,52.5C 51.2088,52.922 56.8755,53.5887 62.5,54.5 Z"/></g>
<g><path style="opacity:1" fill="#d5e5e6" d="M 44.5,53.5 C 51.6526,55.4369 59.6526,56.9369 68.5,58C 63.4356,60.3514 58.4356,62.8514 53.5,65.5C 48.8835,62.797 44.0502,60.4637 39,58.5C 38.3162,57.2161 38.4829,56.0495 39.5,55C 41.3817,54.8019 43.0484,54.3019 44.5,53.5 Z"/></g>
<g><path style="opacity:1" fill="#bef065" d="M 112.5,70.5 C 110.42,69.0541 108.087,68.0541 105.5,67.5C 99.2009,68.2676 93.2009,69.9343 87.5,72.5C 82.8031,71.6465 78.4697,69.9799 74.5,67.5C 74.5,66.8333 74.5,66.1667 74.5,65.5C 78.0775,63.6407 81.7441,61.974 85.5,60.5C 89.0453,58.7705 91.712,56.1038 93.5,52.5C 96.3233,50.177 98.99,47.677 101.5,45C 98.854,44.5026 96.1873,44.3359 93.5,44.5C 96.0175,42.2649 99.0175,40.7649 102.5,40C 105.817,39.5017 109.15,39.335 112.5,39.5C 112.5,49.8333 112.5,60.1667 112.5,70.5 Z"/></g>
<g><path style="opacity:1" fill="#1bc3f4" d="M 56.5,66.5 C 57.7383,66.81 57.7383,67.31 56.5,68C 51.5014,69.4973 46.8348,71.6639 42.5,74.5C 41.8589,73.0065 40.8589,72.0065 39.5,71.5C 39.5,70.8333 39.5,70.1667 39.5,69.5C 40.0485,66.6107 41.8818,64.944 45,64.5C 48.6767,66.7996 52.51,67.4662 56.5,66.5 Z"/></g>
<g><path style="opacity:1" fill="#d6c256" d="M 114.5,40.5 C 114.833,40.5 115.167,40.5 115.5,40.5C 115.5,45.5 115.5,50.5 115.5,55.5C 118.518,55.3354 121.518,55.502 124.5,56C 125.191,57.0674 125.691,58.2341 126,59.5C 126.499,55.8484 126.665,52.1817 126.5,48.5C 126.833,48.5 127.167,48.5 127.5,48.5C 127.5,57.5 127.5,66.5 127.5,75.5C 127.167,75.5 126.833,75.5 126.5,75.5C 126.665,72.4816 126.498,69.4816 126,66.5C 125.32,68.513 123.987,69.8464 122,70.5C 119.388,69.6882 117.221,68.3549 115.5,66.5C 115.167,66.5 114.833,66.5 114.5,66.5C 114.5,57.8333 114.5,49.1667 114.5,40.5 Z"/></g>
<g><path style="opacity:1" fill="#3db418" d="M -0.5,59.5 C 0.391047,60.1098 1.39105,60.4431 2.5,60.5C 3.43634,61.9744 4.76967,62.9744 6.5,63.5C 6.9528,64.4584 7.61947,65.2917 8.5,66C 8.27155,66.3988 7.93822,66.5654 7.5,66.5C 4.35989,66.946 1.69323,68.2794 -0.5,70.5C -0.5,66.8333 -0.5,63.1667 -0.5,59.5 Z"/></g>
<g><path style="opacity:1" fill="#b0e260" d="M 74.5,67.5 C 78.4697,69.9799 82.8031,71.6465 87.5,72.5C 93.2009,69.9343 99.2009,68.2676 105.5,67.5C 108.087,68.0541 110.42,69.0541 112.5,70.5C 112.5,76.1667 112.5,81.8333 112.5,87.5C 108.571,88.4123 104.571,88.4123 100.5,87.5C 100.577,84.4908 99.2437,82.3241 96.5,81C 93.5,80.6667 90.5,80.3333 87.5,80C 86.5291,78.5187 85.1958,77.6854 83.5,77.5C 79.4567,75.3755 75.1234,74.0422 70.5,73.5C 71.3507,71.1184 72.684,69.1184 74.5,67.5 Z"/></g>
<g><path style="opacity:1" fill="#1d94c1" d="M 74.5,55.5 C 75.1903,56.8802 75.5236,58.2135 75.5,59.5C 77.7855,58.8671 79.4522,57.5338 80.5,55.5C 82.1667,55.5 83.8333,55.5 85.5,55.5C 85.5,57.1667 85.5,58.8333 85.5,60.5C 81.7441,61.974 78.0775,63.6407 74.5,65.5C 69.3271,67.1122 64.3271,69.1122 59.5,71.5C 59.5,74.8333 59.5,78.1667 59.5,81.5C 58.8333,81.5 58.5,81.1667 58.5,80.5C 58.5,78.1667 58.5,75.8333 58.5,73.5C 53.6339,75.4259 48.6339,77.0926 43.5,78.5C 41.231,76.7576 39.8976,74.4243 39.5,71.5C 40.8589,72.0065 41.8589,73.0065 42.5,74.5C 46.8348,71.6639 51.5014,69.4973 56.5,68C 57.7383,67.31 57.7383,66.81 56.5,66.5C 62.3431,64.2452 68.0098,61.4118 73.5,58C 74.2524,57.3292 74.5858,56.4959 74.5,55.5 Z"/></g>
<g><path style="opacity:1" fill="#89a4a4" d="M 74.5,65.5 C 74.5,66.1667 74.5,66.8333 74.5,67.5C 72.684,69.1184 71.3507,71.1184 70.5,73.5C 70.1667,74.5 69.5,75.1667 68.5,75.5C 68.33,74.1779 68.6634,73.0113 69.5,72C 66.7682,71.8462 64.1015,72.3462 61.5,73.5C 61.1667,74.5 60.8333,75.5 60.5,76.5C 60.6399,78.0296 61.3065,79.0296 62.5,79.5C 61.7095,80.4013 60.7095,81.0679 59.5,81.5C 59.5,78.1667 59.5,74.8333 59.5,71.5C 64.3271,69.1122 69.3271,67.1122 74.5,65.5 Z"/></g>
<g><path style="opacity:1" fill="#4d5f3c" d="M 7.5,66.5 C 9.22945,67.2362 10.2294,68.5695 10.5,70.5C 9.59603,71.209 9.26269,72.209 9.5,73.5C 6.8431,73.162 4.50976,73.8287 2.5,75.5C 1.58317,74.8728 0.583168,74.5394 -0.5,74.5C -0.5,73.1667 -0.5,71.8333 -0.5,70.5C 1.69323,68.2794 4.35989,66.946 7.5,66.5 Z"/></g>
<g><path style="opacity:1" fill="#ec2927" d="M 38.5,69.5 C 38.8333,69.5 39.1667,69.5 39.5,69.5C 39.5,70.1667 39.5,70.8333 39.5,71.5C 39.8976,74.4243 41.231,76.7576 43.5,78.5C 41.0467,79.6451 38.7134,79.3117 36.5,77.5C 35.9644,74.3019 36.631,71.6353 38.5,69.5 Z"/></g>
<g><path style="opacity:1" fill="#c1ef66" d="M 70.5,73.5 C 75.1234,74.0422 79.4567,75.3755 83.5,77.5C 90.7804,85.346 92.447,94.346 88.5,104.5C 82.8333,104.5 77.1667,104.5 71.5,104.5C 71.7022,102.011 71.2022,99.6775 70,97.5C 65.932,99.4158 63.0987,98.2492 61.5,94C 62.4721,91.8887 63.3054,89.7221 64,87.5C 64.3333,88.1667 64.6667,88.8333 65,89.5C 65.5837,86.7433 65.2504,84.0766 64,81.5C 63.3333,85.5 62.6667,85.5 62,81.5C 61.6924,82.3081 61.1924,82.9747 60.5,83.5C 58.6639,82.9724 56.9972,82.3058 55.5,81.5C 55.5,80.8333 55.8333,80.5 56.5,80.5C 57.1667,80.5 57.8333,80.5 58.5,80.5C 58.5,81.1667 58.8333,81.5 59.5,81.5C 60.7095,81.0679 61.7095,80.4013 62.5,79.5C 65.225,79.063 67.225,77.7296 68.5,75.5C 69.5,75.1667 70.1667,74.5 70.5,73.5 Z"/></g>
<g><path style="opacity:1" fill="#8b880e" d="M 115.5,66.5 C 117.221,68.3549 119.388,69.6882 122,70.5C 123.987,69.8464 125.32,68.513 126,66.5C 126.498,69.4816 126.665,72.4816 126.5,75.5C 126.634,77.2915 126.301,78.9582 125.5,80.5C 122.279,81.5732 119.112,81.5732 116,80.5C 115.501,75.8452 115.334,71.1785 115.5,66.5 Z"/></g>
<g><path style="opacity:1" fill="#a0318c" d="M 13.5,81.5 C 13.1583,80.6618 12.4916,80.3284 11.5,80.5C 11.1667,79.1667 10.8333,77.8333 10.5,76.5C 9.89022,75.609 9.55688,74.609 9.5,73.5C 9.26269,72.209 9.59603,71.209 10.5,70.5C 11.7079,69.7659 13.0413,69.4326 14.5,69.5C 14.8168,73.7016 14.4834,77.7016 13.5,81.5 Z"/></g>
<g><path style="opacity:1" fill="#cfe0df" d="M 68.5,75.5 C 67.225,77.7296 65.225,79.063 62.5,79.5C 61.3065,79.0296 60.6399,78.0296 60.5,76.5C 60.8333,75.5 61.1667,74.5 61.5,73.5C 64.1015,72.3462 66.7682,71.8462 69.5,72C 68.6634,73.0113 68.33,74.1779 68.5,75.5 Z"/></g>
<g><path style="opacity:1" fill="#953f4a" d="M 9.5,73.5 C 9.55688,74.609 9.89022,75.609 10.5,76.5C 8.7428,77.292 7.40947,78.6253 6.5,80.5C 1.31978,81.8508 1.48645,82.8508 7,83.5C 9.25611,83.4534 10.7561,82.4534 11.5,80.5C 12.4916,80.3284 13.1583,80.6618 13.5,81.5C 13.3893,82.1174 13.056,82.6174 12.5,83C 13.7797,85.8939 14.4464,89.0606 14.5,92.5C 14.3333,95.5 14.1667,98.5 14,101.5C 12.5952,100.269 11.4286,98.9361 10.5,97.5C 10.6653,93.8183 10.4986,90.1516 10,86.5C 6.50188,83.8805 3.00188,83.8805 -0.5,86.5C -0.5,82.5 -0.5,78.5 -0.5,74.5C 0.583168,74.5394 1.58317,74.8728 2.5,75.5C 4.50976,73.8287 6.8431,73.162 9.5,73.5 Z"/></g>
<g><path style="opacity:1" fill="#80090d" d="M 10.5,76.5 C 10.8333,77.8333 11.1667,79.1667 11.5,80.5C 10.7561,82.4534 9.25611,83.4534 7,83.5C 1.48645,82.8508 1.31978,81.8508 6.5,80.5C 7.40947,78.6253 8.7428,77.292 10.5,76.5 Z"/></g>
<g><path style="opacity:1" fill="#c1ef66" d="M 55.5,81.5 C 56.9972,82.3058 58.6639,82.9724 60.5,83.5C 61.1924,82.9747 61.6924,82.3081 62,81.5C 62.6667,85.5 63.3333,85.5 64,81.5C 65.2504,84.0766 65.5837,86.7433 65,89.5C 64.6667,88.8333 64.3333,88.1667 64,87.5C 63.3054,89.7221 62.4721,91.8887 61.5,94C 63.0987,98.2492 65.932,99.4158 70,97.5C 71.2022,99.6775 71.7022,102.011 71.5,104.5C 61.5,104.5 51.5,104.5 41.5,104.5C 39.6234,98.9819 39.1234,93.3153 40,87.5C 41.1766,83.0915 43.6766,81.0915 47.5,81.5C 50.1667,81.5 52.8333,81.5 55.5,81.5 Z"/></g>
<g><path style="opacity:1" fill="#6d9554" d="M 56.5,80.5 C 55.8333,80.5 55.5,80.8333 55.5,81.5C 52.8333,81.5 50.1667,81.5 47.5,81.5C 48.6222,80.0527 50.1222,79.0527 52,78.5C 52.3076,79.3081 52.8076,79.9747 53.5,80.5C 54.6868,79.3473 55.6868,79.3473 56.5,80.5 Z"/></g>
<g><path style="opacity:1" fill="#686220" d="M 114.5,66.5 C 114.833,66.5 115.167,66.5 115.5,66.5C 115.334,71.1785 115.501,75.8452 116,80.5C 119.112,81.5732 122.279,81.5732 125.5,80.5C 125.5,80.8333 125.5,81.1667 125.5,81.5C 122.332,84.0561 118.666,85.0561 114.5,84.5C 114.5,78.5 114.5,72.5 114.5,66.5 Z"/></g>
<g><path style="opacity:1" fill="#ade366" d="M 83.5,77.5 C 85.1958,77.6854 86.5291,78.5187 87.5,80C 90.5,80.3333 93.5,80.6667 96.5,81C 99.2437,82.3241 100.577,84.4908 100.5,87.5C 104.571,88.4123 108.571,88.4123 112.5,87.5C 112.5,92.5 112.5,97.5 112.5,102.5C 112.027,103.906 111.027,104.573 109.5,104.5C 102.5,104.5 95.5,104.5 88.5,104.5C 92.447,94.346 90.7804,85.346 83.5,77.5 Z"/></g>
<g><path style="opacity:1" fill="#b8dc69" d="M 15.5,68.5 C 19.0313,69.6971 22.0313,71.6971 24.5,74.5C 27.3912,74.1277 30.3912,74.1277 33.5,74.5C 30.8929,75.3184 28.2263,75.8184 25.5,76C 29.2142,76.3195 32.8809,76.8195 36.5,77.5C 38.7134,79.3117 41.0467,79.6451 43.5,78.5C 48.6339,77.0926 53.6339,75.4259 58.5,73.5C 58.5,75.8333 58.5,78.1667 58.5,80.5C 57.8333,80.5 57.1667,80.5 56.5,80.5C 55.6868,79.3473 54.6868,79.3473 53.5,80.5C 52.8076,79.9747 52.3076,79.3081 52,78.5C 50.1222,79.0527 48.6222,80.0527 47.5,81.5C 43.6766,81.0915 41.1766,83.0915 40,87.5C 39.1234,93.3153 39.6234,98.9819 41.5,104.5C 33.8333,104.5 26.1667,104.5 18.5,104.5C 17.5416,104.047 16.7083,103.381 16,102.5C 15.5001,91.1716 15.3335,79.8382 15.5,68.5 Z"/></g>
<g><path style="opacity:1" fill="#647ba4" d="M 10.5,97.5 C 10.5,98.5 10.5,99.5 10.5,100.5C 8.58533,100.216 6.91866,100.549 5.5,101.5C 3.85834,99.9192 1.85834,99.2525 -0.5,99.5C -0.5,99.1667 -0.5,98.8333 -0.5,98.5C 0.497222,98.5299 1.16389,98.0299 1.5,97C 1.10099,95.2725 0.434327,93.7725 -0.5,92.5C -0.5,90.5 -0.5,88.5 -0.5,86.5C 3.00188,83.8805 6.50188,83.8805 10,86.5C 10.4986,90.1516 10.6653,93.8183 10.5,97.5 Z"/></g>
<g><path style="opacity:1" fill="#5c4279" d="M 15.5,23.5 C 15.5,33.1667 15.5,42.8333 15.5,52.5C 15.5,57.8333 15.5,63.1667 15.5,68.5C 15.3335,79.8382 15.5001,91.1716 16,102.5C 16.7083,103.381 17.5416,104.047 18.5,104.5C 23.6405,105.488 28.9738,105.821 34.5,105.5C 33.1718,109.17 30.5051,110.837 26.5,110.5C 24.302,110.88 22.6354,110.213 21.5,108.5C 18.3968,106.577 15.3968,104.41 12.5,102C 10.1902,101.503 7.85684,101.337 5.5,101.5C 6.91866,100.549 8.58533,100.216 10.5,100.5C 10.5,99.5 10.5,98.5 10.5,97.5C 11.4286,98.9361 12.5952,100.269 14,101.5C 14.1667,98.5 14.3333,95.5 14.5,92.5C 14.4464,89.0606 13.7797,85.8939 12.5,83C 13.056,82.6174 13.3893,82.1174 13.5,81.5C 14.4834,77.7016 14.8168,73.7016 14.5,69.5C 13.0413,69.4326 11.7079,69.7659 10.5,70.5C 10.2294,68.5695 9.22945,67.2362 7.5,66.5C 7.93822,66.5654 8.27155,66.3988 8.5,66C 7.61947,65.2917 6.9528,64.4584 6.5,63.5C 8.55817,64.9331 10.8915,65.5997 13.5,65.5C 13.5,61.1667 13.5,56.8333 13.5,52.5C 13.5,51.8333 13.5,51.1667 13.5,50.5C 14.7815,47.0641 14.7815,43.7307 13.5,40.5C 12.8333,39.5 12.1667,38.5 11.5,37.5C 12.5,37.5 13.5,37.5 14.5,37.5C 14.166,32.0629 14.4993,27.3962 15.5,23.5 Z"/></g>
<g><path style="opacity:1" fill="#a32642" d="M -0.5,92.5 C 0.434327,93.7725 1.10099,95.2725 1.5,97C 1.16389,98.0299 0.497222,98.5299 -0.5,98.5C -0.5,96.5 -0.5,94.5 -0.5,92.5 Z"/></g>
<g><path style="opacity:1" fill="#93aea2" d="M 126.5,75.5 C 126.833,75.5 127.167,75.5 127.5,75.5C 127.5,89.1667 127.5,102.833 127.5,116.5C 126.521,113.375 126.187,110.042 126.5,106.5C 126.5,105.833 126.5,105.167 126.5,104.5C 126.5,98.5 126.5,92.5 126.5,86.5C 124.585,86.7845 122.919,86.4511 121.5,85.5C 125.491,86.128 126.824,84.7947 125.5,81.5C 125.5,81.1667 125.5,80.8333 125.5,80.5C 126.301,78.9582 126.634,77.2915 126.5,75.5 Z"/></g>
<g><path style="opacity:1" fill="#3e9769" d="M 121.5,85.5 C 122.919,86.4511 124.585,86.7845 126.5,86.5C 126.5,92.5 126.5,98.5 126.5,104.5C 124.5,104.5 122.5,104.5 120.5,104.5C 120.682,102.409 120.348,100.409 119.5,98.5C 117.132,97.4226 115.465,95.7559 114.5,93.5C 112.762,87.0729 115.095,84.4062 121.5,85.5 Z"/></g>
<g><path style="opacity:1" fill="#3c6a6e" d="M 114.5,93.5 C 115.465,95.7559 117.132,97.4226 119.5,98.5C 120.348,100.409 120.682,102.409 120.5,104.5C 122.5,104.5 124.5,104.5 126.5,104.5C 126.5,105.167 126.5,105.833 126.5,106.5C 122.202,105.8 117.869,105.467 113.5,105.5C 114.36,101.566 114.693,97.5662 114.5,93.5 Z"/></g>
<g><path style="opacity:0.982" fill="#8ca7d4" d="M 5.5,101.5 C 7.85684,101.337 10.1902,101.503 12.5,102C 15.3968,104.41 18.3968,106.577 21.5,108.5C 22.6354,110.213 24.302,110.88 26.5,110.5C 26.6107,111.117 26.944,111.617 27.5,112C 36.2857,114.382 45.2857,116.049 54.5,117C 57.9417,119.896 61.6084,122.563 65.5,125C 68.2272,125.818 70.8938,125.652 73.5,124.5C 76.9809,122.76 80.6476,121.593 84.5,121C 87.4718,118.048 91.1385,116.881 95.5,117.5C 105.137,119.494 114.804,121.494 124.5,123.5C 123.473,125.194 122.139,126.527 120.5,127.5C 82.5,127.5 44.5,127.5 6.5,127.5C 4.19388,125.861 2.19388,123.861 0.5,121.5C 6.49096,121.966 12.491,122.299 18.5,122.5C 17.019,113.695 12.6857,106.695 5.5,101.5 Z"/></g>
<g><path style="opacity:1" fill="#716a70" d="M 18.5,104.5 C 26.1667,104.5 33.8333,104.5 41.5,104.5C 51.5,104.5 61.5,104.5 71.5,104.5C 77.1667,104.5 82.8333,104.5 88.5,104.5C 95.5,104.5 102.5,104.5 109.5,104.5C 108.449,105.222 107.782,106.222 107.5,107.5C 101.705,107.882 95.8716,107.215 90,105.5C 89.2352,105.57 88.7352,105.903 88.5,106.5C 87.8333,106.833 87.1667,107.167 86.5,107.5C 86.1583,106.662 85.4916,106.328 84.5,106.5C 72.1667,106.5 59.8333,106.5 47.5,106.5C 46.1667,106.5 44.8333,106.5 43.5,106.5C 40.6085,105.597 37.6085,105.264 34.5,105.5C 28.9738,105.821 23.6405,105.488 18.5,104.5 Z"/></g>
<g><path style="opacity:1" fill="#9a3c3b" d="M 21.5,108.5 C 21.3893,107.883 21.056,107.383 20.5,107C 24.5,106.333 28.5,106.333 32.5,107C 29.1537,109.668 25.487,110.168 21.5,108.5 Z"/></g>
<g><path style="opacity:1" fill="#6d88b2" d="M 34.5,105.5 C 37.6085,105.264 40.6085,105.597 43.5,106.5C 48.0947,114.213 54.9281,117.547 64,116.5C 73.21,117.469 80.71,114.469 86.5,107.5C 87.1667,107.167 87.8333,106.833 88.5,106.5C 94.0475,108.022 99.7141,108.688 105.5,108.5C 105.5,111.833 105.5,115.167 105.5,118.5C 109.221,118.911 112.888,119.578 116.5,120.5C 119.786,121.207 123.119,121.54 126.5,121.5C 126.167,122.5 125.5,123.167 124.5,123.5C 114.804,121.494 105.137,119.494 95.5,117.5C 91.1385,116.881 87.4718,118.048 84.5,121C 80.6476,121.593 76.9809,122.76 73.5,124.5C 70.8938,125.652 68.2272,125.818 65.5,125C 61.6084,122.563 57.9417,119.896 54.5,117C 45.2857,116.049 36.2857,114.382 27.5,112C 26.944,111.617 26.6107,111.117 26.5,110.5C 30.5051,110.837 33.1718,109.17 34.5,105.5 Z"/></g>
<g><path style="opacity:1" fill="#bdce7b" d="M 43.5,106.5 C 44.8333,106.5 46.1667,106.5 47.5,106.5C 48.2543,109.091 49.921,110.924 52.5,112C 58.306,114.959 64.1393,115.126 70,112.5C 71.3876,113.554 72.8876,113.72 74.5,113C 76.7225,110.777 79.3892,109.444 82.5,109C 83.3805,108.292 84.0472,107.458 84.5,106.5C 85.4916,106.328 86.1583,106.662 86.5,107.5C 80.71,114.469 73.21,117.469 64,116.5C 54.9281,117.547 48.0947,114.213 43.5,106.5 Z"/></g>
<g><path style="opacity:1" fill="#c7a227" d="M 47.5,106.5 C 59.8333,106.5 72.1667,106.5 84.5,106.5C 84.0472,107.458 83.3805,108.292 82.5,109C 79.3892,109.444 76.7225,110.777 74.5,113C 72.8876,113.72 71.3876,113.554 70,112.5C 64.1393,115.126 58.306,114.959 52.5,112C 49.921,110.924 48.2543,109.091 47.5,106.5 Z"/></g>
<g><path style="opacity:0.908" fill="#706a45" d="M 113.5,105.5 C 117.869,105.467 122.202,105.8 126.5,106.5C 126.187,110.042 126.521,113.375 127.5,116.5C 127.5,117.833 127.5,119.167 127.5,120.5C 126.833,120.5 126.5,120.833 126.5,121.5C 123.119,121.54 119.786,121.207 116.5,120.5C 113.821,118.399 110.988,116.399 108,114.5C 106.193,112.26 106.026,109.927 107.5,107.5C 109.297,106.27 111.297,105.604 113.5,105.5 Z"/></g>
<g><path style="opacity:1" fill="#7cb331" d="M -0.5,99.5 C 1.85834,99.2525 3.85834,99.9192 5.5,101.5C 12.6857,106.695 17.019,113.695 18.5,122.5C 12.491,122.299 6.49096,121.966 0.5,121.5C 0.5,120.833 0.166667,120.5 -0.5,120.5C -0.5,113.5 -0.5,106.5 -0.5,99.5 Z"/></g>
<g><path style="opacity:1" fill="#4962a0" d="M 88.5,106.5 C 88.7352,105.903 89.2352,105.57 90,105.5C 95.8716,107.215 101.705,107.882 107.5,107.5C 106.026,109.927 106.193,112.26 108,114.5C 110.988,116.399 113.821,118.399 116.5,120.5C 112.888,119.578 109.221,118.911 105.5,118.5C 105.5,115.167 105.5,111.833 105.5,108.5C 99.7141,108.688 94.0475,108.022 88.5,106.5 Z"/></g>
</svg>
